<?xml version="1.0" encoding="utf-8" standalone="no"?>
<!DOCTYPE svg PUBLIC "-//W3C//DTD SVG 1.1//EN"
  "http://www.w3.org/Graphics/SVG/1.1/DTD/svg11.dtd">
<svg xmlns:xlink="http://www.w3.org/1999/xlink" width="335.837712pt" height="213.416409pt" viewBox="0 0 335.837712 213.416409" xmlns="http://www.w3.org/2000/svg" version="1.1">
 <metadata>
  <rdf:RDF xmlns:dc="http://purl.org/dc/elements/1.1/" xmlns:cc="http://creativecommons.org/ns#" xmlns:rdf="http://www.w3.org/1999/02/22-rdf-syntax-ns#">
   <cc:Work>
    <dc:type rdf:resource="http://purl.org/dc/dcmitype/StillImage"/>
    <dc:date>2025-07-29T20:28:16.380273</dc:date>
    <dc:format>image/svg+xml</dc:format>
    <dc:creator>
     <cc:Agent>
      <dc:title>Matplotlib v3.7.3, https://matplotlib.org/</dc:title>
     </cc:Agent>
    </dc:creator>
   </cc:Work>
  </rdf:RDF>
 </metadata>
 <defs>
  <style type="text/css">*{stroke-linejoin: round; stroke-linecap: butt}</style>
 </defs>
 <g id="figure_1">
  <g id="patch_1">
   <path d="M 0 213.416409 
L 335.837712 213.416409 
L 335.837712 0 
L 0 0 
z
" style="fill: #282c34"/>
  </g>
  <g id="axes_1">
   <g id="patch_2">
    <path d="M 49.637712 173.52 
L 328.637712 173.52 
L 328.637712 7.2 
L 49.637712 7.2 
z
" style="fill: #282c34"/>
   </g>
   <g id="PolyCollection_1">
    <defs>
     <path id="m1739625d90" d="M 79.811693 -30.07065 
L 79.719727 -30.07065 
L 79.622857 -31.753691 
L 79.462498 -33.436731 
L 79.22886 -35.119772 
L 78.930962 -36.802813 
L 78.601609 -38.485853 
L 78.290896 -40.168894 
L 78.048524 -41.851935 
L 77.903681 -43.534975 
L 77.854429 -45.218016 
L 77.872527 -46.901057 
L 77.918966 -48.584097 
L 77.959363 -50.267138 
L 77.97146 -51.950179 
L 77.945345 -53.633219 
L 77.882064 -55.31626 
L 77.793821 -56.999301 
L 77.703134 -58.682341 
L 77.636605 -60.365382 
L 77.613757 -62.048423 
L 77.637214 -63.731463 
L 77.690783 -65.414504 
L 77.746239 -67.097545 
L 77.773657 -68.780586 
L 77.748978 -70.463626 
L 77.656014 -72.146667 
L 77.484572 -73.829708 
L 77.228369 -75.512748 
L 76.885174 -77.195789 
L 76.459001 -78.87883 
L 75.962364 -80.56187 
L 75.416945 -82.244911 
L 74.851981 -83.927952 
L 74.300071 -85.610992 
L 73.790167 -87.294033 
L 73.339043 -88.977074 
L 72.945157 -90.660114 
L 72.589564 -92.343155 
L 72.244939 -94.026196 
L 71.887854 -95.709236 
L 71.506408 -97.392277 
L 71.098214 -99.075318 
L 70.660692 -100.758358 
L 70.181454 -102.441399 
L 69.637029 -104.12444 
L 69.00246 -105.80748 
L 68.266159 -107.490521 
L 67.440156 -109.173562 
L 66.559628 -110.856603 
L 65.674174 -112.539643 
L 64.838208 -114.222684 
L 64.104332 -115.905725 
L 63.516677 -117.588765 
L 63.100077 -119.271806 
L 62.84792 -120.954847 
L 62.718756 -122.637887 
L 62.649894 -124.320928 
L 62.584487 -126.003969 
L 62.496785 -127.687009 
L 62.399364 -129.37005 
L 62.328457 -131.053091 
L 62.31953 -132.736131 
L 62.391804 -134.419172 
L 62.551708 -136.102213 
L 62.808693 -137.785253 
L 63.186689 -139.468294 
L 63.719242 -141.151335 
L 64.430951 -142.834375 
L 65.319137 -144.517416 
L 66.348824 -146.200457 
L 67.463764 -147.883497 
L 68.605733 -149.566538 
L 69.730712 -151.249579 
L 70.814547 -152.93262 
L 71.848056 -154.61566 
L 72.827349 -156.298701 
L 73.746221 -157.981742 
L 74.594365 -159.664782 
L 75.360813 -161.347823 
L 76.039173 -163.030864 
L 76.631019 -164.713904 
L 77.14548 -166.396945 
L 77.595491 -168.079986 
L 77.992994 -169.763026 
L 78.345619 -171.446067 
L 78.656013 -173.129108 
L 78.923218 -174.812148 
L 79.144808 -176.495189 
L 79.319061 -178.17823 
L 79.447015 -179.86127 
L 79.534046 -181.544311 
L 79.589967 -183.227352 
L 79.627014 -184.910392 
L 79.656346 -186.593433 
L 79.68494 -188.276474 
L 79.714582 -189.959514 
L 79.743283 -191.642555 
L 79.767922 -193.325596 
L 79.786431 -195.008637 
L 79.798594 -196.691677 
L 79.811693 -196.691677 
L 79.811693 -196.691677 
L 79.811693 -195.008637 
L 79.811693 -193.325596 
L 79.811693 -191.642555 
L 79.811693 -189.959514 
L 79.811693 -188.276474 
L 79.811693 -186.593433 
L 79.811693 -184.910392 
L 79.811693 -183.227352 
L 79.811693 -181.544311 
L 79.811693 -179.86127 
L 79.811693 -178.17823 
L 79.811693 -176.495189 
L 79.811693 -174.812148 
L 79.811693 -173.129108 
L 79.811693 -171.446067 
L 79.811693 -169.763026 
L 79.811693 -168.079986 
L 79.811693 -166.396945 
L 79.811693 -164.713904 
L 79.811693 -163.030864 
L 79.811693 -161.347823 
L 79.811693 -159.664782 
L 79.811693 -157.981742 
L 79.811693 -156.298701 
L 79.811693 -154.61566 
L 79.811693 -152.93262 
L 79.811693 -151.249579 
L 79.811693 -149.566538 
L 79.811693 -147.883497 
L 79.811693 -146.200457 
L 79.811693 -144.517416 
L 79.811693 -142.834375 
L 79.811693 -141.151335 
L 79.811693 -139.468294 
L 79.811693 -137.785253 
L 79.811693 -136.102213 
L 79.811693 -134.419172 
L 79.811693 -132.736131 
L 79.811693 -131.053091 
L 79.811693 -129.37005 
L 79.811693 -127.687009 
L 79.811693 -126.003969 
L 79.811693 -124.320928 
L 79.811693 -122.637887 
L 79.811693 -120.954847 
L 79.811693 -119.271806 
L 79.811693 -117.588765 
L 79.811693 -115.905725 
L 79.811693 -114.222684 
L 79.811693 -112.539643 
L 79.811693 -110.856603 
L 79.811693 -109.173562 
L 79.811693 -107.490521 
L 79.811693 -105.80748 
L 79.811693 -104.12444 
L 79.811693 -102.441399 
L 79.811693 -100.758358 
L 79.811693 -99.075318 
L 79.811693 -97.392277 
L 79.811693 -95.709236 
L 79.811693 -94.026196 
L 79.811693 -92.343155 
L 79.811693 -90.660114 
L 79.811693 -88.977074 
L 79.811693 -87.294033 
L 79.811693 -85.610992 
L 79.811693 -83.927952 
L 79.811693 -82.244911 
L 79.811693 -80.56187 
L 79.811693 -78.87883 
L 79.811693 -77.195789 
L 79.811693 -75.512748 
L 79.811693 -73.829708 
L 79.811693 -72.146667 
L 79.811693 -70.463626 
L 79.811693 -68.780586 
L 79.811693 -67.097545 
L 79.811693 -65.414504 
L 79.811693 -63.731463 
L 79.811693 -62.048423 
L 79.811693 -60.365382 
L 79.811693 -58.682341 
L 79.811693 -56.999301 
L 79.811693 -55.31626 
L 79.811693 -53.633219 
L 79.811693 -51.950179 
L 79.811693 -50.267138 
L 79.811693 -48.584097 
L 79.811693 -46.901057 
L 79.811693 -45.218016 
L 79.811693 -43.534975 
L 79.811693 -41.851935 
L 79.811693 -40.168894 
L 79.811693 -38.485853 
L 79.811693 -36.802813 
L 79.811693 -35.119772 
L 79.811693 -33.436731 
L 79.811693 -31.753691 
L 79.811693 -30.07065 
z
" style="stroke: #ffffff; stroke-width: 0.75"/>
    </defs>
    <g clip-path="url(#pb3c51ceefa)">
     <use xlink:href="#m1739625d90" x="0" y="213.416409" style="fill: #73addd; stroke: #ffffff; stroke-width: 0.75"/>
    </g>
   </g>
   <g id="PolyCollection_2">
    <defs>
     <path id="maf6661f58f" d="M 79.82624 -31.379663 
L 79.811693 -31.379663 
L 79.811693 -33.060929 
L 79.811693 -34.742194 
L 79.811693 -36.423459 
L 79.811693 -38.104724 
L 79.811693 -39.785989 
L 79.811693 -41.467254 
L 79.811693 -43.148519 
L 79.811693 -44.829784 
L 79.811693 -46.51105 
L 79.811693 -48.192315 
L 79.811693 -49.87358 
L 79.811693 -51.554845 
L 79.811693 -53.23611 
L 79.811693 -54.917375 
L 79.811693 -56.59864 
L 79.811693 -58.279906 
L 79.811693 -59.961171 
L 79.811693 -61.642436 
L 79.811693 -63.323701 
L 79.811693 -65.004966 
L 79.811693 -66.686231 
L 79.811693 -68.367496 
L 79.811693 -70.048761 
L 79.811693 -71.730027 
L 79.811693 -73.411292 
L 79.811693 -75.092557 
L 79.811693 -76.773822 
L 79.811693 -78.455087 
L 79.811693 -80.136352 
L 79.811693 -81.817617 
L 79.811693 -83.498883 
L 79.811693 -85.180148 
L 79.811693 -86.861413 
L 79.811693 -88.542678 
L 79.811693 -90.223943 
L 79.811693 -91.905208 
L 79.811693 -93.586473 
L 79.811693 -95.267738 
L 79.811693 -96.949004 
L 79.811693 -98.630269 
L 79.811693 -100.311534 
L 79.811693 -101.992799 
L 79.811693 -103.674064 
L 79.811693 -105.355329 
L 79.811693 -107.036594 
L 79.811693 -108.71786 
L 79.811693 -110.399125 
L 79.811693 -112.08039 
L 79.811693 -113.761655 
L 79.811693 -115.44292 
L 79.811693 -117.124185 
L 79.811693 -118.80545 
L 79.811693 -120.486715 
L 79.811693 -122.167981 
L 79.811693 -123.849246 
L 79.811693 -125.530511 
L 79.811693 -127.211776 
L 79.811693 -128.893041 
L 79.811693 -130.574306 
L 79.811693 -132.255571 
L 79.811693 -133.936837 
L 79.811693 -135.618102 
L 79.811693 -137.299367 
L 79.811693 -138.980632 
L 79.811693 -140.661897 
L 79.811693 -142.343162 
L 79.811693 -144.024427 
L 79.811693 -145.705693 
L 79.811693 -147.386958 
L 79.811693 -149.068223 
L 79.811693 -150.749488 
L 79.811693 -152.430753 
L 79.811693 -154.112018 
L 79.811693 -155.793283 
L 79.811693 -157.474548 
L 79.811693 -159.155814 
L 79.811693 -160.837079 
L 79.811693 -162.518344 
L 79.811693 -164.199609 
L 79.811693 -165.880874 
L 79.811693 -167.562139 
L 79.811693 -169.243404 
L 79.811693 -170.92467 
L 79.811693 -172.605935 
L 79.811693 -174.2872 
L 79.811693 -175.968465 
L 79.811693 -177.64973 
L 79.811693 -179.330995 
L 79.811693 -181.01226 
L 79.811693 -182.693525 
L 79.811693 -184.374791 
L 79.811693 -186.056056 
L 79.811693 -187.737321 
L 79.811693 -189.418586 
L 79.811693 -191.099851 
L 79.811693 -192.781116 
L 79.811693 -194.462381 
L 79.811693 -196.143647 
L 79.811693 -197.824912 
L 79.826399 -197.824912 
L 79.826399 -197.824912 
L 79.842062 -196.143647 
L 79.867316 -194.462381 
L 79.902331 -192.781116 
L 79.943736 -191.099851 
L 79.9851 -189.418586 
L 80.020067 -187.737321 
L 80.046925 -186.056056 
L 80.071702 -184.374791 
L 80.107287 -182.693525 
L 80.168701 -181.01226 
L 80.267639 -179.330995 
L 80.410167 -177.64973 
L 80.599169 -175.968465 
L 80.839127 -174.2872 
L 81.138381 -172.605935 
L 81.505594 -170.92467 
L 81.942299 -169.243404 
L 82.437858 -167.562139 
L 82.972134 -165.880874 
L 83.525334 -164.199609 
L 84.088772 -162.518344 
L 84.6696 -160.837079 
L 85.2864 -159.155814 
L 85.957922 -157.474548 
L 86.691467 -155.793283 
L 87.478023 -154.112018 
L 88.296735 -152.430753 
L 89.124369 -150.749488 
L 89.942368 -149.068223 
L 90.738053 -147.386958 
L 91.50298 -145.705693 
L 92.233511 -144.024427 
L 92.934135 -142.343162 
L 93.617725 -140.661897 
L 94.296675 -138.980632 
L 94.967947 -137.299367 
L 95.605199 -135.618102 
L 96.168528 -133.936837 
L 96.625581 -132.255571 
L 96.964877 -130.574306 
L 97.190003 -128.893041 
L 97.303856 -127.211776 
L 97.301658 -125.530511 
L 97.179776 -123.849246 
L 96.949152 -122.167981 
L 96.637191 -120.486715 
L 96.273906 -118.80545 
L 95.873714 -117.124185 
L 95.428469 -115.44292 
L 94.916941 -113.761655 
L 94.32183 -112.08039 
L 93.640945 -110.399125 
L 92.887213 -108.71786 
L 92.082486 -107.036594 
L 91.252127 -105.355329 
L 90.421944 -103.674064 
L 89.615002 -101.992799 
L 88.847416 -100.311534 
L 88.125644 -98.630269 
L 87.447825 -96.949004 
L 86.808987 -95.267738 
L 86.207702 -93.586473 
L 85.650909 -91.905208 
L 85.153424 -90.223943 
L 84.730175 -88.542678 
L 84.38412 -86.861413 
L 84.098163 -85.180148 
L 83.838759 -83.498883 
L 83.570855 -81.817617 
L 83.274814 -80.136352 
L 82.954539 -78.455087 
L 82.632925 -76.773822 
L 82.33929 -75.092557 
L 82.096714 -73.411292 
L 81.914736 -71.730027 
L 81.788804 -70.048761 
L 81.704967 -68.367496 
L 81.646806 -66.686231 
L 81.601154 -65.004966 
L 81.560314 -63.323701 
L 81.521025 -61.642436 
L 81.482314 -59.961171 
L 81.443988 -58.279906 
L 81.405715 -56.59864 
L 81.365769 -54.917375 
L 81.319453 -53.23611 
L 81.258421 -51.554845 
L 81.172213 -49.87358 
L 81.052233 -48.192315 
L 80.89657 -46.51105 
L 80.712882 -44.829784 
L 80.517179 -43.148519 
L 80.328863 -41.467254 
L 80.164732 -39.785989 
L 80.034853 -38.104724 
L 79.94152 -36.423459 
L 79.880751 -34.742194 
L 79.845056 -33.060929 
L 79.82624 -31.379663 
z
" style="stroke: #ffffff; stroke-width: 0.75"/>
    </defs>
    <g clip-path="url(#pb3c51ceefa)">
     <use xlink:href="#maf6661f58f" x="0" y="213.416409" style="fill: #d8bc88; stroke: #ffffff; stroke-width: 0.75"/>
    </g>
   </g>
   <g id="PolyCollection_3">
    <defs>
     <path id="m24cc3d7f9d" d="M 123.5421 -32.501193 
L 123.433943 -32.501193 
L 123.326802 -33.71838 
L 123.152855 -34.935567 
L 122.901744 -36.152753 
L 122.581107 -37.36994 
L 122.222016 -38.587127 
L 121.874281 -39.804313 
L 121.590711 -41.0215 
L 121.40681 -42.238687 
L 121.326717 -43.455873 
L 121.323253 -44.67306 
L 121.351368 -45.890246 
L 121.366643 -47.107433 
L 121.339395 -48.32462 
L 121.260083 -49.541806 
L 121.137548 -50.758993 
L 120.993575 -51.97618 
L 120.855475 -53.193366 
L 120.746986 -54.410553 
L 120.679272 -55.62774 
L 120.646084 -56.844926 
L 120.626704 -58.062113 
L 120.595955 -59.2793 
L 120.535804 -60.496486 
L 120.441777 -61.713673 
L 120.32078 -62.93086 
L 120.182499 -64.148046 
L 120.030379 -65.365233 
L 119.857882 -66.582419 
L 119.651847 -67.799606 
L 119.400236 -69.016793 
L 119.099348 -70.233979 
L 118.75646 -71.451166 
L 118.386596 -72.668353 
L 118.005189 -73.885539 
L 117.620511 -75.102726 
L 117.230216 -76.319913 
L 116.824308 -77.537099 
L 116.392764 -78.754286 
L 115.932533 -79.971473 
L 115.448636 -81.188659 
L 114.948336 -82.405846 
L 114.43272 -83.623033 
L 113.892225 -84.840219 
L 113.309896 -86.057406 
L 112.670743 -87.274593 
L 111.971573 -88.491779 
L 111.226083 -89.708966 
L 110.463537 -90.926152 
L 109.722828 -92.143339 
L 109.044256 -93.360526 
L 108.460203 -94.577712 
L 107.985917 -95.794899 
L 107.613659 -97.012086 
L 107.31461 -98.229272 
L 107.050289 -99.446459 
L 106.78992 -100.663646 
L 106.5263 -101.880832 
L 106.282652 -103.098019 
L 106.106255 -104.315206 
L 106.049937 -105.532392 
L 106.148811 -106.749579 
L 106.404116 -107.966766 
L 106.784108 -109.183952 
L 107.242457 -110.401139 
L 107.743288 -111.618326 
L 108.277925 -112.835512 
L 108.864766 -114.052699 
L 109.534889 -115.269885 
L 110.313301 -116.487072 
L 111.205471 -117.704259 
L 112.193842 -118.921445 
L 113.243806 -120.138632 
L 114.315167 -121.355819 
L 115.373407 -122.573005 
L 116.395344 -123.790192 
L 117.366934 -125.007379 
L 118.276178 -126.224565 
L 119.107629 -127.441752 
L 119.843613 -128.658939 
L 120.471421 -129.876125 
L 120.99066 -131.093312 
L 121.414948 -132.310499 
L 121.766814 -133.527685 
L 122.069405 -134.744872 
L 122.339606 -135.962059 
L 122.585105 -137.179245 
L 122.805368 -138.396432 
L 122.995201 -139.613618 
L 123.14925 -140.830805 
L 123.265717 -142.047992 
L 123.347901 -143.265178 
L 123.403199 -144.482365 
L 123.44043 -145.699552 
L 123.467096 -146.916738 
L 123.487893 -148.133925 
L 123.504801 -149.351112 
L 123.51819 -150.568298 
L 123.52802 -151.785485 
L 123.534549 -153.002672 
L 123.5421 -153.002672 
L 123.5421 -153.002672 
L 123.5421 -151.785485 
L 123.5421 -150.568298 
L 123.5421 -149.351112 
L 123.5421 -148.133925 
L 123.5421 -146.916738 
L 123.5421 -145.699552 
L 123.5421 -144.482365 
L 123.5421 -143.265178 
L 123.5421 -142.047992 
L 123.5421 -140.830805 
L 123.5421 -139.613618 
L 123.5421 -138.396432 
L 123.5421 -137.179245 
L 123.5421 -135.962059 
L 123.5421 -134.744872 
L 123.5421 -133.527685 
L 123.5421 -132.310499 
L 123.5421 -131.093312 
L 123.5421 -129.876125 
L 123.5421 -128.658939 
L 123.5421 -127.441752 
L 123.5421 -126.224565 
L 123.5421 -125.007379 
L 123.5421 -123.790192 
L 123.5421 -122.573005 
L 123.5421 -121.355819 
L 123.5421 -120.138632 
L 123.5421 -118.921445 
L 123.5421 -117.704259 
L 123.5421 -116.487072 
L 123.5421 -115.269885 
L 123.5421 -114.052699 
L 123.5421 -112.835512 
L 123.5421 -111.618326 
L 123.5421 -110.401139 
L 123.5421 -109.183952 
L 123.5421 -107.966766 
L 123.5421 -106.749579 
L 123.5421 -105.532392 
L 123.5421 -104.315206 
L 123.5421 -103.098019 
L 123.5421 -101.880832 
L 123.5421 -100.663646 
L 123.5421 -99.446459 
L 123.5421 -98.229272 
L 123.5421 -97.012086 
L 123.5421 -95.794899 
L 123.5421 -94.577712 
L 123.5421 -93.360526 
L 123.5421 -92.143339 
L 123.5421 -90.926152 
L 123.5421 -89.708966 
L 123.5421 -88.491779 
L 123.5421 -87.274593 
L 123.5421 -86.057406 
L 123.5421 -84.840219 
L 123.5421 -83.623033 
L 123.5421 -82.405846 
L 123.5421 -81.188659 
L 123.5421 -79.971473 
L 123.5421 -78.754286 
L 123.5421 -77.537099 
L 123.5421 -76.319913 
L 123.5421 -75.102726 
L 123.5421 -73.885539 
L 123.5421 -72.668353 
L 123.5421 -71.451166 
L 123.5421 -70.233979 
L 123.5421 -69.016793 
L 123.5421 -67.799606 
L 123.5421 -66.582419 
L 123.5421 -65.365233 
L 123.5421 -64.148046 
L 123.5421 -62.93086 
L 123.5421 -61.713673 
L 123.5421 -60.496486 
L 123.5421 -59.2793 
L 123.5421 -58.062113 
L 123.5421 -56.844926 
L 123.5421 -55.62774 
L 123.5421 -54.410553 
L 123.5421 -53.193366 
L 123.5421 -51.97618 
L 123.5421 -50.758993 
L 123.5421 -49.541806 
L 123.5421 -48.32462 
L 123.5421 -47.107433 
L 123.5421 -45.890246 
L 123.5421 -44.67306 
L 123.5421 -43.455873 
L 123.5421 -42.238687 
L 123.5421 -41.0215 
L 123.5421 -39.804313 
L 123.5421 -38.587127 
L 123.5421 -37.36994 
L 123.5421 -36.152753 
L 123.5421 -34.935567 
L 123.5421 -33.71838 
L 123.5421 -32.501193 
z
" style="stroke: #ffffff; stroke-width: 0.75"/>
    </defs>
    <g clip-path="url(#pb3c51ceefa)">
     <use xlink:href="#m24cc3d7f9d" x="0" y="213.416409" style="fill: #73addd; stroke: #ffffff; stroke-width: 0.75"/>
    </g>
   </g>
   <g id="PolyCollection_4">
    <defs>
     <path id="mfccc736580" d="M 123.553931 -32.971827 
L 123.5421 -32.971827 
L 123.5421 -34.312043 
L 123.5421 -35.652259 
L 123.5421 -36.992476 
L 123.5421 -38.332692 
L 123.5421 -39.672908 
L 123.5421 -41.013125 
L 123.5421 -42.353341 
L 123.5421 -43.693557 
L 123.5421 -45.033773 
L 123.5421 -46.37399 
L 123.5421 -47.714206 
L 123.5421 -49.054422 
L 123.5421 -50.394639 
L 123.5421 -51.734855 
L 123.5421 -53.075071 
L 123.5421 -54.415287 
L 123.5421 -55.755504 
L 123.5421 -57.09572 
L 123.5421 -58.435936 
L 123.5421 -59.776153 
L 123.5421 -61.116369 
L 123.5421 -62.456585 
L 123.5421 -63.796802 
L 123.5421 -65.137018 
L 123.5421 -66.477234 
L 123.5421 -67.81745 
L 123.5421 -69.157667 
L 123.5421 -70.497883 
L 123.5421 -71.838099 
L 123.5421 -73.178316 
L 123.5421 -74.518532 
L 123.5421 -75.858748 
L 123.5421 -77.198964 
L 123.5421 -78.539181 
L 123.5421 -79.879397 
L 123.5421 -81.219613 
L 123.5421 -82.55983 
L 123.5421 -83.900046 
L 123.5421 -85.240262 
L 123.5421 -86.580478 
L 123.5421 -87.920695 
L 123.5421 -89.260911 
L 123.5421 -90.601127 
L 123.5421 -91.941344 
L 123.5421 -93.28156 
L 123.5421 -94.621776 
L 123.5421 -95.961992 
L 123.5421 -97.302209 
L 123.5421 -98.642425 
L 123.5421 -99.982641 
L 123.5421 -101.322858 
L 123.5421 -102.663074 
L 123.5421 -104.00329 
L 123.5421 -105.343506 
L 123.5421 -106.683723 
L 123.5421 -108.023939 
L 123.5421 -109.364155 
L 123.5421 -110.704372 
L 123.5421 -112.044588 
L 123.5421 -113.384804 
L 123.5421 -114.725021 
L 123.5421 -116.065237 
L 123.5421 -117.405453 
L 123.5421 -118.745669 
L 123.5421 -120.085886 
L 123.5421 -121.426102 
L 123.5421 -122.766318 
L 123.5421 -124.106535 
L 123.5421 -125.446751 
L 123.5421 -126.786967 
L 123.5421 -128.127183 
L 123.5421 -129.4674 
L 123.5421 -130.807616 
L 123.5421 -132.147832 
L 123.5421 -133.488049 
L 123.5421 -134.828265 
L 123.5421 -136.168481 
L 123.5421 -137.508697 
L 123.5421 -138.848914 
L 123.5421 -140.18913 
L 123.5421 -141.529346 
L 123.5421 -142.869563 
L 123.5421 -144.209779 
L 123.5421 -145.549995 
L 123.5421 -146.890211 
L 123.5421 -148.230428 
L 123.5421 -149.570644 
L 123.5421 -150.91086 
L 123.5421 -152.251077 
L 123.5421 -153.591293 
L 123.5421 -154.931509 
L 123.5421 -156.271725 
L 123.5421 -157.611942 
L 123.5421 -158.952158 
L 123.5421 -160.292374 
L 123.5421 -161.632591 
L 123.5421 -162.972807 
L 123.5421 -164.313023 
L 123.5421 -165.65324 
L 123.544785 -165.65324 
L 123.544785 -165.65324 
L 123.547782 -164.313023 
L 123.552677 -162.972807 
L 123.559569 -161.632591 
L 123.568049 -160.292374 
L 123.57752 -158.952158 
L 123.587912 -157.611942 
L 123.600379 -156.271725 
L 123.617399 -154.931509 
L 123.642166 -153.591293 
L 123.67769 -152.251077 
L 123.726191 -150.91086 
L 123.789005 -149.570644 
L 123.866987 -148.230428 
L 123.961497 -146.890211 
L 124.076047 -145.549995 
L 124.218132 -144.209779 
L 124.400407 -142.869563 
L 124.640659 -141.529346 
L 124.960515 -140.18913 
L 125.38283 -138.848914 
L 125.927614 -137.508697 
L 126.606406 -136.168481 
L 127.415402 -134.828265 
L 128.329198 -133.488049 
L 129.29986 -132.147832 
L 130.267057 -130.807616 
L 131.180159 -129.4674 
L 132.02352 -128.127183 
L 132.828942 -126.786967 
L 133.662533 -125.446751 
L 134.588068 -124.106535 
L 135.626489 -122.766318 
L 136.73717 -121.426102 
L 137.833719 -120.085886 
L 138.823917 -118.745669 
L 139.646866 -117.405453 
L 140.283006 -116.065237 
L 140.733799 -114.725021 
L 140.992466 -113.384804 
L 141.034263 -112.044588 
L 140.83691 -110.704372 
L 140.414035 -109.364155 
L 139.830709 -108.023939 
L 139.181969 -106.683723 
L 138.545539 -105.343506 
L 137.944881 -104.00329 
L 137.353126 -102.663074 
L 136.732553 -101.322858 
L 136.072613 -99.982641 
L 135.395361 -98.642425 
L 134.73243 -97.302209 
L 134.101949 -95.961992 
L 133.504486 -94.621776 
L 132.932299 -93.28156 
L 132.376441 -91.941344 
L 131.82654 -90.601127 
L 131.269537 -89.260911 
L 130.693586 -87.920695 
L 130.096434 -86.580478 
L 129.492217 -85.240262 
L 128.910049 -83.900046 
L 128.382498 -82.55983 
L 127.929932 -81.219613 
L 127.551096 -79.879397 
L 127.226372 -78.539181 
L 126.931448 -77.198964 
L 126.652132 -75.858748 
L 126.390138 -74.518532 
L 126.156449 -73.178316 
L 125.959319 -71.838099 
L 125.798021 -70.497883 
L 125.666257 -69.157667 
L 125.559176 -67.81745 
L 125.476499 -66.477234 
L 125.41989 -65.137018 
L 125.387031 -63.796802 
L 125.366076 -62.456585 
L 125.335465 -61.116369 
L 125.272937 -59.776153 
L 125.170149 -58.435936 
L 125.041153 -57.09572 
L 124.915348 -55.755504 
L 124.818602 -54.415287 
L 124.756944 -53.075071 
L 124.715026 -51.734855 
L 124.668946 -50.394639 
L 124.602061 -49.054422 
L 124.511995 -47.714206 
L 124.406214 -46.37399 
L 124.293034 -45.033773 
L 124.176466 -43.693557 
L 124.057562 -42.353341 
L 123.938777 -41.013125 
L 123.826399 -39.672908 
L 123.728979 -38.332692 
L 123.653339 -36.992476 
L 123.601461 -35.652259 
L 123.57028 -34.312043 
L 123.553931 -32.971827 
z
" style="stroke: #ffffff; stroke-width: 0.75"/>
    </defs>
    <g clip-path="url(#pb3c51ceefa)">
     <use xlink:href="#mfccc736580" x="0" y="213.416409" style="fill: #d8bc88; stroke: #ffffff; stroke-width: 0.75"/>
    </g>
   </g>
   <g id="PolyCollection_5">
    <defs>
     <path id="m06d415a94f" d="M 167.272508 -34.292935 
L 167.198366 -34.292935 
L 167.122369 -35.228839 
L 166.997171 -36.164744 
L 166.814099 -37.100648 
L 166.577221 -38.036553 
L 166.307011 -38.972457 
L 166.036286 -39.908362 
L 165.798343 -40.844266 
L 165.613128 -41.780171 
L 165.479802 -42.716075 
L 165.380368 -43.65198 
L 165.291331 -44.587884 
L 165.19523 -45.523789 
L 165.085302 -46.459693 
L 164.962887 -47.395598 
L 164.832371 -48.331502 
L 164.698422 -49.267407 
L 164.566216 -50.203311 
L 164.441892 -51.139216 
L 164.330795 -52.07512 
L 164.234055 -53.011025 
L 164.146355 -53.946929 
L 164.057266 -54.882834 
L 163.955665 -55.818738 
L 163.834042 -56.754643 
L 163.689382 -57.690547 
L 163.520378 -58.626452 
L 163.324422 -59.562356 
L 163.098154 -60.498261 
L 162.841448 -61.434165 
L 162.560567 -62.37007 
L 162.266432 -63.305974 
L 161.9687 -64.241879 
L 161.670315 -65.177783 
L 161.366519 -66.113688 
L 161.048002 -67.049592 
L 160.704921 -67.985497 
L 160.329558 -68.921401 
L 159.918317 -69.857306 
L 159.474419 -70.79321 
L 159.009843 -71.729115 
L 158.54238 -72.665019 
L 158.085461 -73.600924 
L 157.634915 -74.536828 
L 157.162334 -75.472733 
L 156.622853 -76.408637 
L 155.975476 -77.344542 
L 155.204574 -78.280446 
L 154.33042 -79.216351 
L 153.405189 -80.152255 
L 152.499739 -81.08816 
L 151.687868 -82.024064 
L 151.030339 -82.959969 
L 150.558995 -83.895873 
L 150.265519 -84.831778 
L 150.103514 -85.767682 
L 150.008459 -86.703587 
L 149.928159 -87.639491 
L 149.846373 -88.575396 
L 149.784478 -89.5113 
L 149.780345 -90.447205 
L 149.859626 -91.383109 
L 150.019744 -92.319014 
L 150.237051 -93.254918 
L 150.490697 -94.190823 
L 150.785529 -95.126727 
L 151.158027 -96.062632 
L 151.661267 -96.998536 
L 152.338305 -97.934441 
L 153.199921 -98.870345 
L 154.21894 -99.80625 
L 155.342457 -100.742154 
L 156.512612 -101.678059 
L 157.683337 -102.613963 
L 158.825769 -103.549868 
L 159.923486 -104.485772 
L 160.964071 -105.421677 
L 161.933325 -106.357582 
L 162.814811 -107.293486 
L 163.59358 -108.229391 
L 164.260838 -109.165295 
L 164.816676 -110.1012 
L 165.269871 -111.037104 
L 165.635603 -111.973009 
L 165.932296 -112.908913 
L 166.178111 -113.844818 
L 166.387343 -114.780722 
L 166.567823 -115.716627 
L 166.720983 -116.652531 
L 166.845057 -117.588436 
L 166.939614 -118.52434 
L 167.008474 -119.460245 
L 167.059231 -120.396149 
L 167.100176 -121.332054 
L 167.137036 -122.267958 
L 167.171607 -123.203863 
L 167.202692 -124.139767 
L 167.228205 -125.075672 
L 167.246928 -126.011576 
L 167.259134 -126.947481 
L 167.272508 -126.947481 
L 167.272508 -126.947481 
L 167.272508 -126.011576 
L 167.272508 -125.075672 
L 167.272508 -124.139767 
L 167.272508 -123.203863 
L 167.272508 -122.267958 
L 167.272508 -121.332054 
L 167.272508 -120.396149 
L 167.272508 -119.460245 
L 167.272508 -118.52434 
L 167.272508 -117.588436 
L 167.272508 -116.652531 
L 167.272508 -115.716627 
L 167.272508 -114.780722 
L 167.272508 -113.844818 
L 167.272508 -112.908913 
L 167.272508 -111.973009 
L 167.272508 -111.037104 
L 167.272508 -110.1012 
L 167.272508 -109.165295 
L 167.272508 -108.229391 
L 167.272508 -107.293486 
L 167.272508 -106.357582 
L 167.272508 -105.421677 
L 167.272508 -104.485772 
L 167.272508 -103.549868 
L 167.272508 -102.613963 
L 167.272508 -101.678059 
L 167.272508 -100.742154 
L 167.272508 -99.80625 
L 167.272508 -98.870345 
L 167.272508 -97.934441 
L 167.272508 -96.998536 
L 167.272508 -96.062632 
L 167.272508 -95.126727 
L 167.272508 -94.190823 
L 167.272508 -93.254918 
L 167.272508 -92.319014 
L 167.272508 -91.383109 
L 167.272508 -90.447205 
L 167.272508 -89.5113 
L 167.272508 -88.575396 
L 167.272508 -87.639491 
L 167.272508 -86.703587 
L 167.272508 -85.767682 
L 167.272508 -84.831778 
L 167.272508 -83.895873 
L 167.272508 -82.959969 
L 167.272508 -82.024064 
L 167.272508 -81.08816 
L 167.272508 -80.152255 
L 167.272508 -79.216351 
L 167.272508 -78.280446 
L 167.272508 -77.344542 
L 167.272508 -76.408637 
L 167.272508 -75.472733 
L 167.272508 -74.536828 
L 167.272508 -73.600924 
L 167.272508 -72.665019 
L 167.272508 -71.729115 
L 167.272508 -70.79321 
L 167.272508 -69.857306 
L 167.272508 -68.921401 
L 167.272508 -67.985497 
L 167.272508 -67.049592 
L 167.272508 -66.113688 
L 167.272508 -65.177783 
L 167.272508 -64.241879 
L 167.272508 -63.305974 
L 167.272508 -62.37007 
L 167.272508 -61.434165 
L 167.272508 -60.498261 
L 167.272508 -59.562356 
L 167.272508 -58.626452 
L 167.272508 -57.690547 
L 167.272508 -56.754643 
L 167.272508 -55.818738 
L 167.272508 -54.882834 
L 167.272508 -53.946929 
L 167.272508 -53.011025 
L 167.272508 -52.07512 
L 167.272508 -51.139216 
L 167.272508 -50.203311 
L 167.272508 -49.267407 
L 167.272508 -48.331502 
L 167.272508 -47.395598 
L 167.272508 -46.459693 
L 167.272508 -45.523789 
L 167.272508 -44.587884 
L 167.272508 -43.65198 
L 167.272508 -42.716075 
L 167.272508 -41.780171 
L 167.272508 -40.844266 
L 167.272508 -39.908362 
L 167.272508 -38.972457 
L 167.272508 -38.036553 
L 167.272508 -37.100648 
L 167.272508 -36.164744 
L 167.272508 -35.228839 
L 167.272508 -34.292935 
z
" style="stroke: #ffffff; stroke-width: 0.75"/>
    </defs>
    <g clip-path="url(#pb3c51ceefa)">
     <use xlink:href="#m06d415a94f" x="0" y="213.416409" style="fill: #73addd; stroke: #ffffff; stroke-width: 0.75"/>
    </g>
   </g>
   <g id="PolyCollection_6">
    <defs>
     <path id="ma03acb4087" d="M 167.288732 -33.098537 
L 167.272508 -33.098537 
L 167.272508 -34.349751 
L 167.272508 -35.600964 
L 167.272508 -36.852178 
L 167.272508 -38.103392 
L 167.272508 -39.354605 
L 167.272508 -40.605819 
L 167.272508 -41.857032 
L 167.272508 -43.108246 
L 167.272508 -44.359459 
L 167.272508 -45.610673 
L 167.272508 -46.861886 
L 167.272508 -48.1131 
L 167.272508 -49.364314 
L 167.272508 -50.615527 
L 167.272508 -51.866741 
L 167.272508 -53.117954 
L 167.272508 -54.369168 
L 167.272508 -55.620381 
L 167.272508 -56.871595 
L 167.272508 -58.122808 
L 167.272508 -59.374022 
L 167.272508 -60.625236 
L 167.272508 -61.876449 
L 167.272508 -63.127663 
L 167.272508 -64.378876 
L 167.272508 -65.63009 
L 167.272508 -66.881303 
L 167.272508 -68.132517 
L 167.272508 -69.38373 
L 167.272508 -70.634944 
L 167.272508 -71.886158 
L 167.272508 -73.137371 
L 167.272508 -74.388585 
L 167.272508 -75.639798 
L 167.272508 -76.891012 
L 167.272508 -78.142225 
L 167.272508 -79.393439 
L 167.272508 -80.644652 
L 167.272508 -81.895866 
L 167.272508 -83.14708 
L 167.272508 -84.398293 
L 167.272508 -85.649507 
L 167.272508 -86.90072 
L 167.272508 -88.151934 
L 167.272508 -89.403147 
L 167.272508 -90.654361 
L 167.272508 -91.905574 
L 167.272508 -93.156788 
L 167.272508 -94.408002 
L 167.272508 -95.659215 
L 167.272508 -96.910429 
L 167.272508 -98.161642 
L 167.272508 -99.412856 
L 167.272508 -100.664069 
L 167.272508 -101.915283 
L 167.272508 -103.166496 
L 167.272508 -104.41771 
L 167.272508 -105.668924 
L 167.272508 -106.920137 
L 167.272508 -108.171351 
L 167.272508 -109.422564 
L 167.272508 -110.673778 
L 167.272508 -111.924991 
L 167.272508 -113.176205 
L 167.272508 -114.427419 
L 167.272508 -115.678632 
L 167.272508 -116.929846 
L 167.272508 -118.181059 
L 167.272508 -119.432273 
L 167.272508 -120.683486 
L 167.272508 -121.9347 
L 167.272508 -123.185913 
L 167.272508 -124.437127 
L 167.272508 -125.688341 
L 167.272508 -126.939554 
L 167.272508 -128.190768 
L 167.272508 -129.441981 
L 167.272508 -130.693195 
L 167.272508 -131.944408 
L 167.272508 -133.195622 
L 167.272508 -134.446835 
L 167.272508 -135.698049 
L 167.272508 -136.949263 
L 167.272508 -138.200476 
L 167.272508 -139.45169 
L 167.272508 -140.702903 
L 167.272508 -141.954117 
L 167.272508 -143.20533 
L 167.272508 -144.456544 
L 167.272508 -145.707757 
L 167.272508 -146.958971 
L 167.272508 -148.210185 
L 167.272508 -149.461398 
L 167.272508 -150.712612 
L 167.272508 -151.963825 
L 167.272508 -153.215039 
L 167.272508 -154.466252 
L 167.272508 -155.717466 
L 167.272508 -156.968679 
L 167.279153 -156.968679 
L 167.279153 -156.968679 
L 167.28694 -155.717466 
L 167.300887 -154.466252 
L 167.32346 -153.215039 
L 167.356792 -151.963825 
L 167.402258 -150.712612 
L 167.460536 -149.461398 
L 167.532441 -148.210185 
L 167.620282 -146.958971 
L 167.728776 -145.707757 
L 167.864561 -144.456544 
L 168.034704 -143.20533 
L 168.246327 -141.954117 
L 168.509176 -140.702903 
L 168.839677 -139.45169 
L 169.26159 -138.200476 
L 169.79922 -136.949263 
L 170.465251 -135.698049 
L 171.251319 -134.446835 
L 172.129194 -133.195622 
L 173.062874 -131.944408 
L 174.023585 -130.693195 
L 174.997894 -129.441981 
L 175.985306 -128.190768 
L 176.989761 -126.939554 
L 178.012119 -125.688341 
L 179.046533 -124.437127 
L 180.07852 -123.185913 
L 181.082841 -121.9347 
L 182.023693 -120.683486 
L 182.860779 -119.432273 
L 183.559494 -118.181059 
L 184.098416 -116.929846 
L 184.470618 -115.678632 
L 184.683768 -114.427419 
L 184.764671 -113.176205 
L 184.762875 -111.924991 
L 184.739381 -110.673778 
L 184.736545 -109.422564 
L 184.747331 -108.171351 
L 184.710994 -106.920137 
L 184.544352 -105.668924 
L 184.188443 -104.41771 
L 183.637847 -103.166496 
L 182.935628 -101.915283 
L 182.144639 -100.664069 
L 181.319736 -99.412856 
L 180.495687 -98.161642 
L 179.687631 -96.910429 
L 178.894771 -95.659215 
L 178.105295 -94.408002 
L 177.306301 -93.156788 
L 176.497728 -91.905574 
L 175.701441 -90.654361 
L 174.957151 -89.403147 
L 174.305833 -88.151934 
L 173.769879 -86.90072 
L 173.341197 -85.649507 
L 172.984207 -84.398293 
L 172.65268 -83.14708 
L 172.311032 -81.895866 
L 171.947455 -80.644652 
L 171.572012 -79.393439 
L 171.203726 -78.142225 
L 170.857674 -76.891012 
L 170.540454 -75.639798 
L 170.253682 -74.388585 
L 169.998977 -73.137371 
L 169.778906 -71.886158 
L 169.594013 -70.634944 
L 169.440097 -69.38373 
L 169.309111 -68.132517 
L 169.192997 -66.881303 
L 169.087054 -65.63009 
L 168.990379 -64.378876 
L 168.904181 -63.127663 
L 168.830331 -61.876449 
L 168.770941 -60.625236 
L 168.727571 -59.374022 
L 168.699065 -58.122808 
L 168.679356 -56.871595 
L 168.657727 -55.620381 
L 168.622458 -54.369168 
L 168.566116 -53.117954 
L 168.489334 -51.866741 
L 168.400697 -50.615527 
L 168.312546 -49.364314 
L 168.234811 -48.1131 
L 168.170003 -46.861886 
L 168.111814 -45.610673 
L 168.048067 -44.359459 
L 167.966852 -43.108246 
L 167.863017 -41.857032 
L 167.741581 -40.605819 
L 167.615973 -39.354605 
L 167.502041 -38.103392 
L 167.411478 -36.852178 
L 167.348311 -35.600964 
L 167.309599 -34.349751 
L 167.288732 -33.098537 
z
" style="stroke: #ffffff; stroke-width: 0.75"/>
    </defs>
    <g clip-path="url(#pb3c51ceefa)">
     <use xlink:href="#ma03acb4087" x="0" y="213.416409" style="fill: #d8bc88; stroke: #ffffff; stroke-width: 0.75"/>
    </g>
   </g>
   <g id="PolyCollection_7">
    <defs>
     <path id="mc648e73e58" d="M 211.002915 -35.354704 
L 210.921122 -35.354704 
L 210.835408 -36.108533 
L 210.691201 -36.862362 
L 210.474731 -37.616191 
L 210.185771 -38.37002 
L 209.844413 -39.12385 
L 209.490059 -39.877679 
L 209.170189 -40.631508 
L 208.922927 -41.385337 
L 208.762653 -42.139166 
L 208.677015 -42.892995 
L 208.636579 -43.646824 
L 208.610207 -44.400653 
L 208.576671 -45.154483 
L 208.527497 -45.908312 
L 208.463137 -46.662141 
L 208.387978 -47.41597 
L 208.307405 -48.169799 
L 208.226022 -48.923628 
L 208.144903 -49.677457 
L 208.058364 -50.431287 
L 207.953565 -51.185116 
L 207.815494 -51.938945 
L 207.635665 -52.692774 
L 207.418796 -53.446603 
L 207.18198 -54.200432 
L 206.945968 -54.954261 
L 206.724256 -55.70809 
L 206.517321 -56.46192 
L 206.315014 -57.215749 
L 206.103565 -57.969578 
L 205.870978 -58.723407 
L 205.607522 -59.477236 
L 205.303242 -60.231065 
L 204.946723 -60.984894 
L 204.527543 -61.738724 
L 204.041536 -62.492553 
L 203.495904 -63.246382 
L 202.911011 -64.000211 
L 202.316506 -64.75404 
L 201.741527 -65.507869 
L 201.202266 -66.261698 
L 200.693223 -67.015527 
L 200.187912 -67.769357 
L 199.6498 -68.523186 
L 199.047943 -69.277015 
L 198.369042 -70.030844 
L 197.620883 -70.784673 
L 196.828596 -71.538502 
L 196.0294 -72.292331 
L 195.269473 -73.04616 
L 194.600851 -73.79999 
L 194.073326 -74.553819 
L 193.720151 -75.307648 
L 193.543711 -76.061477 
L 193.510752 -76.815306 
L 193.562588 -77.569135 
L 193.636721 -78.322964 
L 193.689366 -79.076794 
L 193.708033 -79.830623 
L 193.709673 -80.584452 
L 193.728614 -81.338281 
L 193.803753 -82.09211 
L 193.97235 -82.845939 
L 194.270074 -83.599768 
L 194.730195 -84.353597 
L 195.37537 -85.107427 
L 196.203393 -85.861256 
L 197.176719 -86.615085 
L 198.226763 -87.368914 
L 199.275427 -88.122743 
L 200.263953 -88.876572 
L 201.172723 -89.630401 
L 202.020804 -90.38423 
L 202.847106 -91.13806 
L 203.685648 -91.891889 
L 204.54828 -92.645718 
L 205.421048 -93.399547 
L 206.272156 -94.153376 
L 207.065202 -94.907205 
L 207.771243 -95.661034 
L 208.375487 -96.414864 
L 208.877699 -97.168693 
L 209.288353 -97.922522 
L 209.623539 -98.676351 
L 209.900437 -99.43018 
L 210.133698 -100.184009 
L 210.332895 -100.937838 
L 210.501853 -101.691667 
L 210.640465 -102.445497 
L 210.748085 -103.199326 
L 210.826457 -103.953155 
L 210.880498 -104.706984 
L 210.916935 -105.460813 
L 210.942129 -106.214642 
L 210.960561 -106.968471 
L 210.97459 -107.7223 
L 210.985146 -108.47613 
L 210.992629 -109.229959 
L 210.997478 -109.983788 
L 211.002915 -109.983788 
L 211.002915 -109.983788 
L 211.002915 -109.229959 
L 211.002915 -108.47613 
L 211.002915 -107.7223 
L 211.002915 -106.968471 
L 211.002915 -106.214642 
L 211.002915 -105.460813 
L 211.002915 -104.706984 
L 211.002915 -103.953155 
L 211.002915 -103.199326 
L 211.002915 -102.445497 
L 211.002915 -101.691667 
L 211.002915 -100.937838 
L 211.002915 -100.184009 
L 211.002915 -99.43018 
L 211.002915 -98.676351 
L 211.002915 -97.922522 
L 211.002915 -97.168693 
L 211.002915 -96.414864 
L 211.002915 -95.661034 
L 211.002915 -94.907205 
L 211.002915 -94.153376 
L 211.002915 -93.399547 
L 211.002915 -92.645718 
L 211.002915 -91.891889 
L 211.002915 -91.13806 
L 211.002915 -90.38423 
L 211.002915 -89.630401 
L 211.002915 -88.876572 
L 211.002915 -88.122743 
L 211.002915 -87.368914 
L 211.002915 -86.615085 
L 211.002915 -85.861256 
L 211.002915 -85.107427 
L 211.002915 -84.353597 
L 211.002915 -83.599768 
L 211.002915 -82.845939 
L 211.002915 -82.09211 
L 211.002915 -81.338281 
L 211.002915 -80.584452 
L 211.002915 -79.830623 
L 211.002915 -79.076794 
L 211.002915 -78.322964 
L 211.002915 -77.569135 
L 211.002915 -76.815306 
L 211.002915 -76.061477 
L 211.002915 -75.307648 
L 211.002915 -74.553819 
L 211.002915 -73.79999 
L 211.002915 -73.04616 
L 211.002915 -72.292331 
L 211.002915 -71.538502 
L 211.002915 -70.784673 
L 211.002915 -70.030844 
L 211.002915 -69.277015 
L 211.002915 -68.523186 
L 211.002915 -67.769357 
L 211.002915 -67.015527 
L 211.002915 -66.261698 
L 211.002915 -65.507869 
L 211.002915 -64.75404 
L 211.002915 -64.000211 
L 211.002915 -63.246382 
L 211.002915 -62.492553 
L 211.002915 -61.738724 
L 211.002915 -60.984894 
L 211.002915 -60.231065 
L 211.002915 -59.477236 
L 211.002915 -58.723407 
L 211.002915 -57.969578 
L 211.002915 -57.215749 
L 211.002915 -56.46192 
L 211.002915 -55.70809 
L 211.002915 -54.954261 
L 211.002915 -54.200432 
L 211.002915 -53.446603 
L 211.002915 -52.692774 
L 211.002915 -51.938945 
L 211.002915 -51.185116 
L 211.002915 -50.431287 
L 211.002915 -49.677457 
L 211.002915 -48.923628 
L 211.002915 -48.169799 
L 211.002915 -47.41597 
L 211.002915 -46.662141 
L 211.002915 -45.908312 
L 211.002915 -45.154483 
L 211.002915 -44.400653 
L 211.002915 -43.646824 
L 211.002915 -42.892995 
L 211.002915 -42.139166 
L 211.002915 -41.385337 
L 211.002915 -40.631508 
L 211.002915 -39.877679 
L 211.002915 -39.12385 
L 211.002915 -38.37002 
L 211.002915 -37.616191 
L 211.002915 -36.862362 
L 211.002915 -36.108533 
L 211.002915 -35.354704 
z
" style="stroke: #ffffff; stroke-width: 0.75"/>
    </defs>
    <g clip-path="url(#pb3c51ceefa)">
     <use xlink:href="#mc648e73e58" x="0" y="213.416409" style="fill: #73addd; stroke: #ffffff; stroke-width: 0.75"/>
    </g>
   </g>
   <g id="PolyCollection_8">
    <defs>
     <path id="m5328efced5" d="M 211.028257 -32.427417 
L 211.002915 -32.427417 
L 211.002915 -33.804402 
L 211.002915 -35.181387 
L 211.002915 -36.558372 
L 211.002915 -37.935357 
L 211.002915 -39.312343 
L 211.002915 -40.689328 
L 211.002915 -42.066313 
L 211.002915 -43.443298 
L 211.002915 -44.820283 
L 211.002915 -46.197268 
L 211.002915 -47.574253 
L 211.002915 -48.951238 
L 211.002915 -50.328223 
L 211.002915 -51.705209 
L 211.002915 -53.082194 
L 211.002915 -54.459179 
L 211.002915 -55.836164 
L 211.002915 -57.213149 
L 211.002915 -58.590134 
L 211.002915 -59.967119 
L 211.002915 -61.344104 
L 211.002915 -62.72109 
L 211.002915 -64.098075 
L 211.002915 -65.47506 
L 211.002915 -66.852045 
L 211.002915 -68.22903 
L 211.002915 -69.606015 
L 211.002915 -70.983 
L 211.002915 -72.359985 
L 211.002915 -73.73697 
L 211.002915 -75.113956 
L 211.002915 -76.490941 
L 211.002915 -77.867926 
L 211.002915 -79.244911 
L 211.002915 -80.621896 
L 211.002915 -81.998881 
L 211.002915 -83.375866 
L 211.002915 -84.752851 
L 211.002915 -86.129837 
L 211.002915 -87.506822 
L 211.002915 -88.883807 
L 211.002915 -90.260792 
L 211.002915 -91.637777 
L 211.002915 -93.014762 
L 211.002915 -94.391747 
L 211.002915 -95.768732 
L 211.002915 -97.145717 
L 211.002915 -98.522703 
L 211.002915 -99.899688 
L 211.002915 -101.276673 
L 211.002915 -102.653658 
L 211.002915 -104.030643 
L 211.002915 -105.407628 
L 211.002915 -106.784613 
L 211.002915 -108.161598 
L 211.002915 -109.538583 
L 211.002915 -110.915569 
L 211.002915 -112.292554 
L 211.002915 -113.669539 
L 211.002915 -115.046524 
L 211.002915 -116.423509 
L 211.002915 -117.800494 
L 211.002915 -119.177479 
L 211.002915 -120.554464 
L 211.002915 -121.93145 
L 211.002915 -123.308435 
L 211.002915 -124.68542 
L 211.002915 -126.062405 
L 211.002915 -127.43939 
L 211.002915 -128.816375 
L 211.002915 -130.19336 
L 211.002915 -131.570345 
L 211.002915 -132.94733 
L 211.002915 -134.324316 
L 211.002915 -135.701301 
L 211.002915 -137.078286 
L 211.002915 -138.455271 
L 211.002915 -139.832256 
L 211.002915 -141.209241 
L 211.002915 -142.586226 
L 211.002915 -143.963211 
L 211.002915 -145.340197 
L 211.002915 -146.717182 
L 211.002915 -148.094167 
L 211.002915 -149.471152 
L 211.002915 -150.848137 
L 211.002915 -152.225122 
L 211.002915 -153.602107 
L 211.002915 -154.979092 
L 211.002915 -156.356077 
L 211.002915 -157.733063 
L 211.002915 -159.110048 
L 211.002915 -160.487033 
L 211.002915 -161.864018 
L 211.002915 -163.241003 
L 211.002915 -164.617988 
L 211.002915 -165.994973 
L 211.002915 -167.371958 
L 211.002915 -168.748943 
L 211.012653 -168.748943 
L 211.012653 -168.748943 
L 211.022705 -167.371958 
L 211.038909 -165.994973 
L 211.061882 -164.617988 
L 211.090881 -163.241003 
L 211.124525 -161.864018 
L 211.162788 -160.487033 
L 211.209182 -159.110048 
L 211.271447 -157.733063 
L 211.359882 -156.356077 
L 211.484303 -154.979092 
L 211.651784 -153.602107 
L 211.866813 -152.225122 
L 212.133537 -150.848137 
L 212.457962 -149.471152 
L 212.847549 -148.094167 
L 213.307406 -146.717182 
L 213.83568 -145.340197 
L 214.423146 -143.963211 
L 215.060098 -142.586226 
L 215.747271 -141.209241 
L 216.501753 -139.832256 
L 217.350234 -138.455271 
L 218.311041 -137.078286 
L 219.376351 -135.701301 
L 220.507873 -134.324316 
L 221.650744 -132.94733 
L 222.757136 -131.570345 
L 223.803333 -130.19336 
L 224.788365 -128.816375 
L 225.715971 -127.43939 
L 226.573887 -126.062405 
L 227.325592 -124.68542 
L 227.920162 -123.308435 
L 228.314356 -121.93145 
L 228.495078 -120.554464 
L 228.490749 -119.177479 
L 228.364891 -117.800494 
L 228.192905 -116.423509 
L 228.03194 -115.046524 
L 227.899147 -113.669539 
L 227.770331 -112.292554 
L 227.598908 -110.915569 
L 227.342119 -109.538583 
L 226.978089 -108.161598 
L 226.506728 -106.784613 
L 225.940393 -105.407628 
L 225.295064 -104.030643 
L 224.587329 -102.653658 
L 223.835344 -101.276673 
L 223.059695 -99.899688 
L 222.282095 -98.522703 
L 221.522136 -97.145717 
L 220.793846 -95.768732 
L 220.10453 -94.391747 
L 219.456725 -93.014762 
L 218.850912 -91.637777 
L 218.285821 -90.260792 
L 217.75666 -88.883807 
L 217.255083 -87.506822 
L 216.773083 -86.129837 
L 216.308196 -84.752851 
L 215.865484 -83.375866 
L 215.454781 -81.998881 
L 215.085622 -80.621896 
L 214.763264 -79.244911 
L 214.487538 -77.867926 
L 214.254234 -76.490941 
L 214.057427 -75.113956 
L 213.890975 -73.73697 
L 213.748472 -72.359985 
L 213.622682 -70.983 
L 213.506033 -69.606015 
L 213.39234 -68.22903 
L 213.27826 -66.852045 
L 213.163381 -65.47506 
L 213.049683 -64.098075 
L 212.941337 -62.72109 
L 212.843955 -61.344104 
L 212.761687 -59.967119 
L 212.693035 -58.590134 
L 212.629612 -57.213149 
L 212.561322 -55.836164 
L 212.485852 -54.459179 
L 212.414672 -53.082194 
L 212.368395 -51.705209 
L 212.362378 -50.328223 
L 212.392294 -48.951238 
L 212.430729 -47.574253 
L 212.438038 -46.197268 
L 212.380584 -44.820283 
L 212.245546 -43.443298 
L 212.045167 -42.066313 
L 211.810203 -40.689328 
L 211.57732 -39.312343 
L 211.376653 -37.935357 
L 211.224364 -36.558372 
L 211.121952 -35.181387 
L 211.060766 -33.804402 
L 211.028257 -32.427417 
z
" style="stroke: #ffffff; stroke-width: 0.75"/>
    </defs>
    <g clip-path="url(#pb3c51ceefa)">
     <use xlink:href="#m5328efced5" x="0" y="213.416409" style="fill: #d8bc88; stroke: #ffffff; stroke-width: 0.75"/>
    </g>
   </g>
   <g id="PolyCollection_9">
    <defs>
     <path id="m57980ccd7b" d="M 254.733323 -36.199385 
L 254.670892 -36.199385 
L 254.604926 -36.804853 
L 254.49219 -37.410322 
L 254.318925 -38.015791 
L 254.079834 -38.621259 
L 253.784186 -39.226728 
L 253.457335 -39.832196 
L 253.13511 -40.437665 
L 252.852649 -41.043134 
L 252.633259 -41.648602 
L 252.483252 -42.254071 
L 252.394557 -42.859539 
L 252.351656 -43.465008 
L 252.337396 -44.070477 
L 252.335076 -44.675945 
L 252.328652 -45.281414 
L 252.304325 -45.886882 
L 252.254182 -46.492351 
L 252.178985 -47.09782 
L 252.086657 -47.703288 
L 251.986225 -48.308757 
L 251.880944 -48.914225 
L 251.765408 -49.519694 
L 251.628778 -50.125163 
L 251.461749 -50.730631 
L 251.262091 -51.3361 
L 251.034644 -51.941568 
L 250.785876 -52.547037 
L 250.517183 -53.152506 
L 250.221863 -53.757974 
L 249.887931 -54.363443 
L 249.505207 -54.968911 
L 249.072918 -55.57438 
L 248.603906 -56.179849 
L 248.122702 -56.785317 
L 247.657124 -57.390786 
L 247.226618 -57.996255 
L 246.833635 -58.601723 
L 246.463715 -59.207192 
L 246.094743 -59.81266 
L 245.709226 -60.418129 
L 245.301113 -61.023598 
L 244.872773 -61.629066 
L 244.425053 -62.234535 
L 243.948159 -62.840003 
L 243.42039 -63.445472 
L 242.816585 -64.050941 
L 242.121937 -64.656409 
L 241.343477 -65.261878 
L 240.513123 -65.867346 
L 239.681636 -66.472815 
L 238.907832 -67.078284 
L 238.247856 -67.683752 
L 237.745911 -68.289221 
L 237.425183 -68.894689 
L 237.279533 -69.500158 
L 237.270507 -70.105627 
L 237.335171 -70.711095 
L 237.405351 -71.316564 
L 237.431206 -71.922032 
L 237.397804 -72.527501 
L 237.326223 -73.13297 
L 237.25933 -73.738438 
L 237.24116 -74.343907 
L 237.301788 -74.949376 
L 237.454789 -75.554844 
L 237.705262 -76.160313 
L 238.05983 -76.765781 
L 238.530582 -77.37125 
L 239.131214 -77.976719 
L 239.869701 -78.582187 
L 240.742983 -79.187656 
L 241.735792 -79.793124 
L 242.822066 -80.398593 
L 243.966809 -81.004062 
L 245.12835 -81.60953 
L 246.262578 -82.214999 
L 247.329793 -82.820467 
L 248.302019 -83.425936 
L 249.167005 -84.031405 
L 249.926669 -84.636873 
L 250.59141 -85.242342 
L 251.174075 -85.84781 
L 251.686633 -86.453279 
L 252.139711 -87.058748 
L 252.543129 -87.664216 
L 252.905659 -88.269685 
L 253.233768 -88.875153 
L 253.530319 -89.480622 
L 253.794417 -90.086091 
L 254.02286 -90.691559 
L 254.212669 -91.297028 
L 254.363404 -91.902496 
L 254.478045 -92.507965 
L 254.562177 -93.113434 
L 254.62225 -93.718902 
L 254.664103 -94.324371 
L 254.69236 -94.92984 
L 254.710577 -95.535308 
L 254.721599 -96.140777 
L 254.733323 -96.140777 
L 254.733323 -96.140777 
L 254.733323 -95.535308 
L 254.733323 -94.92984 
L 254.733323 -94.324371 
L 254.733323 -93.718902 
L 254.733323 -93.113434 
L 254.733323 -92.507965 
L 254.733323 -91.902496 
L 254.733323 -91.297028 
L 254.733323 -90.691559 
L 254.733323 -90.086091 
L 254.733323 -89.480622 
L 254.733323 -88.875153 
L 254.733323 -88.269685 
L 254.733323 -87.664216 
L 254.733323 -87.058748 
L 254.733323 -86.453279 
L 254.733323 -85.84781 
L 254.733323 -85.242342 
L 254.733323 -84.636873 
L 254.733323 -84.031405 
L 254.733323 -83.425936 
L 254.733323 -82.820467 
L 254.733323 -82.214999 
L 254.733323 -81.60953 
L 254.733323 -81.004062 
L 254.733323 -80.398593 
L 254.733323 -79.793124 
L 254.733323 -79.187656 
L 254.733323 -78.582187 
L 254.733323 -77.976719 
L 254.733323 -77.37125 
L 254.733323 -76.765781 
L 254.733323 -76.160313 
L 254.733323 -75.554844 
L 254.733323 -74.949376 
L 254.733323 -74.343907 
L 254.733323 -73.738438 
L 254.733323 -73.13297 
L 254.733323 -72.527501 
L 254.733323 -71.922032 
L 254.733323 -71.316564 
L 254.733323 -70.711095 
L 254.733323 -70.105627 
L 254.733323 -69.500158 
L 254.733323 -68.894689 
L 254.733323 -68.289221 
L 254.733323 -67.683752 
L 254.733323 -67.078284 
L 254.733323 -66.472815 
L 254.733323 -65.867346 
L 254.733323 -65.261878 
L 254.733323 -64.656409 
L 254.733323 -64.050941 
L 254.733323 -63.445472 
L 254.733323 -62.840003 
L 254.733323 -62.234535 
L 254.733323 -61.629066 
L 254.733323 -61.023598 
L 254.733323 -60.418129 
L 254.733323 -59.81266 
L 254.733323 -59.207192 
L 254.733323 -58.601723 
L 254.733323 -57.996255 
L 254.733323 -57.390786 
L 254.733323 -56.785317 
L 254.733323 -56.179849 
L 254.733323 -55.57438 
L 254.733323 -54.968911 
L 254.733323 -54.363443 
L 254.733323 -53.757974 
L 254.733323 -53.152506 
L 254.733323 -52.547037 
L 254.733323 -51.941568 
L 254.733323 -51.3361 
L 254.733323 -50.730631 
L 254.733323 -50.125163 
L 254.733323 -49.519694 
L 254.733323 -48.914225 
L 254.733323 -48.308757 
L 254.733323 -47.703288 
L 254.733323 -47.09782 
L 254.733323 -46.492351 
L 254.733323 -45.886882 
L 254.733323 -45.281414 
L 254.733323 -44.675945 
L 254.733323 -44.070477 
L 254.733323 -43.465008 
L 254.733323 -42.859539 
L 254.733323 -42.254071 
L 254.733323 -41.648602 
L 254.733323 -41.043134 
L 254.733323 -40.437665 
L 254.733323 -39.832196 
L 254.733323 -39.226728 
L 254.733323 -38.621259 
L 254.733323 -38.015791 
L 254.733323 -37.410322 
L 254.733323 -36.804853 
L 254.733323 -36.199385 
z
" style="stroke: #ffffff; stroke-width: 0.75"/>
    </defs>
    <g clip-path="url(#pb3c51ceefa)">
     <use xlink:href="#m57980ccd7b" x="0" y="213.416409" style="fill: #73addd; stroke: #ffffff; stroke-width: 0.75"/>
    </g>
   </g>
   <g id="PolyCollection_10">
    <defs>
     <path id="m791211bc08" d="M 254.771235 -30.936412 
L 254.733323 -30.936412 
L 254.733323 -32.436794 
L 254.733323 -33.937176 
L 254.733323 -35.437558 
L 254.733323 -36.93794 
L 254.733323 -38.438322 
L 254.733323 -39.938704 
L 254.733323 -41.439087 
L 254.733323 -42.939469 
L 254.733323 -44.439851 
L 254.733323 -45.940233 
L 254.733323 -47.440615 
L 254.733323 -48.940997 
L 254.733323 -50.441379 
L 254.733323 -51.941761 
L 254.733323 -53.442143 
L 254.733323 -54.942525 
L 254.733323 -56.442907 
L 254.733323 -57.943289 
L 254.733323 -59.443671 
L 254.733323 -60.944053 
L 254.733323 -62.444435 
L 254.733323 -63.944817 
L 254.733323 -65.445199 
L 254.733323 -66.945581 
L 254.733323 -68.445963 
L 254.733323 -69.946345 
L 254.733323 -71.446727 
L 254.733323 -72.947109 
L 254.733323 -74.447492 
L 254.733323 -75.947874 
L 254.733323 -77.448256 
L 254.733323 -78.948638 
L 254.733323 -80.44902 
L 254.733323 -81.949402 
L 254.733323 -83.449784 
L 254.733323 -84.950166 
L 254.733323 -86.450548 
L 254.733323 -87.95093 
L 254.733323 -89.451312 
L 254.733323 -90.951694 
L 254.733323 -92.452076 
L 254.733323 -93.952458 
L 254.733323 -95.45284 
L 254.733323 -96.953222 
L 254.733323 -98.453604 
L 254.733323 -99.953986 
L 254.733323 -101.454368 
L 254.733323 -102.95475 
L 254.733323 -104.455132 
L 254.733323 -105.955514 
L 254.733323 -107.455896 
L 254.733323 -108.956279 
L 254.733323 -110.456661 
L 254.733323 -111.957043 
L 254.733323 -113.457425 
L 254.733323 -114.957807 
L 254.733323 -116.458189 
L 254.733323 -117.958571 
L 254.733323 -119.458953 
L 254.733323 -120.959335 
L 254.733323 -122.459717 
L 254.733323 -123.960099 
L 254.733323 -125.460481 
L 254.733323 -126.960863 
L 254.733323 -128.461245 
L 254.733323 -129.961627 
L 254.733323 -131.462009 
L 254.733323 -132.962391 
L 254.733323 -134.462773 
L 254.733323 -135.963155 
L 254.733323 -137.463537 
L 254.733323 -138.963919 
L 254.733323 -140.464301 
L 254.733323 -141.964684 
L 254.733323 -143.465066 
L 254.733323 -144.965448 
L 254.733323 -146.46583 
L 254.733323 -147.966212 
L 254.733323 -149.466594 
L 254.733323 -150.966976 
L 254.733323 -152.467358 
L 254.733323 -153.96774 
L 254.733323 -155.468122 
L 254.733323 -156.968504 
L 254.733323 -158.468886 
L 254.733323 -159.969268 
L 254.733323 -161.46965 
L 254.733323 -162.970032 
L 254.733323 -164.470414 
L 254.733323 -165.970796 
L 254.733323 -167.471178 
L 254.733323 -168.97156 
L 254.733323 -170.471942 
L 254.733323 -171.972324 
L 254.733323 -173.472706 
L 254.733323 -174.973088 
L 254.733323 -176.473471 
L 254.733323 -177.973853 
L 254.733323 -179.474235 
L 254.741212 -179.474235 
L 254.741212 -179.474235 
L 254.749491 -177.973853 
L 254.763651 -176.473471 
L 254.785757 -174.973088 
L 254.817631 -173.472706 
L 254.860771 -171.972324 
L 254.916602 -170.471942 
L 254.986862 -168.97156 
L 255.073814 -167.471178 
L 255.180412 -165.970796 
L 255.311024 -164.470414 
L 255.473064 -162.970032 
L 255.678535 -161.46965 
L 255.943367 -159.969268 
L 256.28329 -158.468886 
L 256.707896 -156.968504 
L 257.216943 -155.468122 
L 257.802111 -153.96774 
L 258.45334 -152.467358 
L 259.164997 -150.966976 
L 259.93695 -149.466594 
L 260.769541 -147.966212 
L 261.656262 -146.46583 
L 262.57993 -144.965448 
L 263.515826 -143.465066 
L 264.440457 -141.964684 
L 265.340772 -140.464301 
L 266.218307 -138.963919 
L 267.085553 -137.463537 
L 267.955703 -135.963155 
L 268.829959 -134.462773 
L 269.688295 -132.962391 
L 270.489125 -131.462009 
L 271.179811 -129.961627 
L 271.713579 -128.461245 
L 272.063472 -126.960863 
L 272.225486 -125.460481 
L 272.211142 -123.960099 
L 272.037735 -122.459717 
L 271.72473 -120.959335 
L 271.297327 -119.458953 
L 270.790715 -117.958571 
L 270.247989 -116.458189 
L 269.710263 -114.957807 
L 269.203778 -113.457425 
L 268.731342 -111.957043 
L 268.27364 -110.456661 
L 267.800875 -108.956279 
L 267.289042 -107.455896 
L 266.731748 -105.955514 
L 266.14104 -104.455132 
L 265.538192 -102.95475 
L 264.941975 -101.454368 
L 264.362544 -99.953986 
L 263.803598 -98.453604 
L 263.269105 -96.953222 
L 262.768349 -95.45284 
L 262.315238 -93.952458 
L 261.922124 -92.452076 
L 261.591786 -90.951694 
L 261.312317 -89.451312 
L 261.058471 -87.95093 
L 260.799974 -86.450548 
L 260.513349 -84.950166 
L 260.191103 -83.449784 
L 259.842969 -81.949402 
L 259.48851 -80.44902 
L 259.145837 -78.948638 
L 258.823486 -77.448256 
L 258.520103 -75.947874 
L 258.231373 -74.447492 
L 257.958892 -72.947109 
L 257.714334 -71.446727 
L 257.51532 -69.946345 
L 257.375244 -68.445963 
L 257.293863 -66.945581 
L 257.255094 -65.445199 
L 257.233417 -63.944817 
L 257.204584 -62.444435 
L 257.154214 -60.944053 
L 257.080174 -59.443671 
L 256.989013 -57.943289 
L 256.889801 -56.442907 
L 256.78907 -54.942525 
L 256.688729 -53.442143 
L 256.586733 -51.941761 
L 256.479233 -50.441379 
L 256.362902 -48.940997 
L 256.236293 -47.440615 
L 256.099527 -45.940233 
L 255.952744 -44.439851 
L 255.795163 -42.939469 
L 255.626455 -41.439087 
L 255.449913 -39.938704 
L 255.274537 -38.438322 
L 255.113466 -36.93794 
L 254.979172 -35.437558 
L 254.878607 -33.937176 
L 254.811335 -32.436794 
L 254.771235 -30.936412 
z
" style="stroke: #ffffff; stroke-width: 0.75"/>
    </defs>
    <g clip-path="url(#pb3c51ceefa)">
     <use xlink:href="#m791211bc08" x="0" y="213.416409" style="fill: #d8bc88; stroke: #ffffff; stroke-width: 0.75"/>
    </g>
   </g>
   <g id="PolyCollection_11">
    <defs>
     <path id="m854a8350d0" d="M 298.46373 -36.819173 
L 298.385831 -36.819173 
L 298.303027 -37.347003 
L 298.164242 -37.874833 
L 297.958081 -38.402664 
L 297.687408 -38.930494 
L 297.374589 -39.458325 
L 297.058326 -39.986155 
L 296.781296 -40.513986 
L 296.574332 -41.041816 
L 296.446142 -41.569646 
L 296.384229 -42.097477 
L 296.36496 -42.625307 
L 296.365029 -43.153138 
L 296.36751 -43.680968 
L 296.361671 -44.208799 
L 296.340729 -44.736629 
L 296.301509 -45.264459 
L 296.245887 -45.79229 
L 296.180843 -46.32012 
L 296.114922 -46.847951 
L 296.052254 -47.375781 
L 295.987815 -47.903612 
L 295.907347 -48.431442 
L 295.792643 -48.959272 
L 295.629459 -49.487103 
L 295.413477 -50.014933 
L 295.151285 -50.542764 
L 294.856915 -51.070594 
L 294.546776 -51.598425 
L 294.235145 -52.126255 
L 293.930887 -52.654085 
L 293.635888 -53.181916 
L 293.345899 -53.709746 
L 293.052905 -54.237577 
L 292.746097 -54.765407 
L 292.409868 -55.293238 
L 292.022064 -55.821068 
L 291.558251 -56.348898 
L 291.003247 -56.876729 
L 290.362965 -57.404559 
L 289.666363 -57.93239 
L 288.953439 -58.46022 
L 288.255623 -58.988051 
L 287.58101 -59.515881 
L 286.913823 -60.043711 
L 286.228202 -60.571542 
L 285.507614 -61.099372 
L 284.758801 -61.627203 
L 284.013945 -62.155033 
L 283.322193 -62.682864 
L 282.735976 -63.210694 
L 282.296922 -63.738524 
L 282.023626 -64.266355 
L 281.902916 -64.794185 
L 281.887916 -65.322016 
L 281.907166 -65.849846 
L 281.886204 -66.377677 
L 281.77595 -66.905507 
L 281.574654 -67.433337 
L 281.329056 -67.961168 
L 281.110797 -68.488998 
L 280.981655 -69.016829 
L 280.971567 -69.544659 
L 281.084171 -70.07249 
L 281.321129 -70.60032 
L 281.700443 -71.12815 
L 282.251368 -71.655981 
L 282.991782 -72.183811 
L 283.909274 -72.711642 
L 284.961551 -73.239472 
L 286.093745 -73.767303 
L 287.258181 -74.295133 
L 288.424179 -74.822964 
L 289.575635 -75.350794 
L 290.702312 -75.878624 
L 291.792035 -76.406455 
L 292.827393 -76.934285 
L 293.7867 -77.462116 
L 294.647651 -77.989946 
L 295.392263 -78.517777 
L 296.011556 -79.045607 
L 296.508006 -79.573437 
L 296.894603 -80.101268 
L 297.191256 -80.629098 
L 297.420405 -81.156929 
L 297.60316 -81.684759 
L 297.756266 -82.21259 
L 297.890165 -82.74042 
L 298.008853 -83.26825 
L 298.111888 -83.796081 
L 298.197577 -84.323911 
L 298.265604 -84.851742 
L 298.317864 -85.379572 
L 298.357645 -85.907403 
L 298.388227 -86.435233 
L 298.411951 -86.963063 
L 298.430101 -87.490894 
L 298.443369 -88.018724 
L 298.452383 -88.546555 
L 298.457964 -89.074385 
L 298.46373 -89.074385 
L 298.46373 -89.074385 
L 298.46373 -88.546555 
L 298.46373 -88.018724 
L 298.46373 -87.490894 
L 298.46373 -86.963063 
L 298.46373 -86.435233 
L 298.46373 -85.907403 
L 298.46373 -85.379572 
L 298.46373 -84.851742 
L 298.46373 -84.323911 
L 298.46373 -83.796081 
L 298.46373 -83.26825 
L 298.46373 -82.74042 
L 298.46373 -82.21259 
L 298.46373 -81.684759 
L 298.46373 -81.156929 
L 298.46373 -80.629098 
L 298.46373 -80.101268 
L 298.46373 -79.573437 
L 298.46373 -79.045607 
L 298.46373 -78.517777 
L 298.46373 -77.989946 
L 298.46373 -77.462116 
L 298.46373 -76.934285 
L 298.46373 -76.406455 
L 298.46373 -75.878624 
L 298.46373 -75.350794 
L 298.46373 -74.822964 
L 298.46373 -74.295133 
L 298.46373 -73.767303 
L 298.46373 -73.239472 
L 298.46373 -72.711642 
L 298.46373 -72.183811 
L 298.46373 -71.655981 
L 298.46373 -71.12815 
L 298.46373 -70.60032 
L 298.46373 -70.07249 
L 298.46373 -69.544659 
L 298.46373 -69.016829 
L 298.46373 -68.488998 
L 298.46373 -67.961168 
L 298.46373 -67.433337 
L 298.46373 -66.905507 
L 298.46373 -66.377677 
L 298.46373 -65.849846 
L 298.46373 -65.322016 
L 298.46373 -64.794185 
L 298.46373 -64.266355 
L 298.46373 -63.738524 
L 298.46373 -63.210694 
L 298.46373 -62.682864 
L 298.46373 -62.155033 
L 298.46373 -61.627203 
L 298.46373 -61.099372 
L 298.46373 -60.571542 
L 298.46373 -60.043711 
L 298.46373 -59.515881 
L 298.46373 -58.988051 
L 298.46373 -58.46022 
L 298.46373 -57.93239 
L 298.46373 -57.404559 
L 298.46373 -56.876729 
L 298.46373 -56.348898 
L 298.46373 -55.821068 
L 298.46373 -55.293238 
L 298.46373 -54.765407 
L 298.46373 -54.237577 
L 298.46373 -53.709746 
L 298.46373 -53.181916 
L 298.46373 -52.654085 
L 298.46373 -52.126255 
L 298.46373 -51.598425 
L 298.46373 -51.070594 
L 298.46373 -50.542764 
L 298.46373 -50.014933 
L 298.46373 -49.487103 
L 298.46373 -48.959272 
L 298.46373 -48.431442 
L 298.46373 -47.903612 
L 298.46373 -47.375781 
L 298.46373 -46.847951 
L 298.46373 -46.32012 
L 298.46373 -45.79229 
L 298.46373 -45.264459 
L 298.46373 -44.736629 
L 298.46373 -44.208799 
L 298.46373 -43.680968 
L 298.46373 -43.153138 
L 298.46373 -42.625307 
L 298.46373 -42.097477 
L 298.46373 -41.569646 
L 298.46373 -41.041816 
L 298.46373 -40.513986 
L 298.46373 -39.986155 
L 298.46373 -39.458325 
L 298.46373 -38.930494 
L 298.46373 -38.402664 
L 298.46373 -37.874833 
L 298.46373 -37.347003 
L 298.46373 -36.819173 
z
" style="stroke: #ffffff; stroke-width: 0.75"/>
    </defs>
    <g clip-path="url(#pb3c51ceefa)">
     <use xlink:href="#m854a8350d0" x="0" y="213.416409" style="fill: #73addd; stroke: #ffffff; stroke-width: 0.75"/>
    </g>
   </g>
   <g id="PolyCollection_12">
    <defs>
     <path id="mfce8bf1e8b" d="M 298.518431 -29.994956 
L 298.46373 -29.994956 
L 298.46373 -31.630344 
L 298.46373 -33.265732 
L 298.46373 -34.90112 
L 298.46373 -36.536509 
L 298.46373 -38.171897 
L 298.46373 -39.807285 
L 298.46373 -41.442673 
L 298.46373 -43.078061 
L 298.46373 -44.713449 
L 298.46373 -46.348837 
L 298.46373 -47.984225 
L 298.46373 -49.619613 
L 298.46373 -51.255002 
L 298.46373 -52.89039 
L 298.46373 -54.525778 
L 298.46373 -56.161166 
L 298.46373 -57.796554 
L 298.46373 -59.431942 
L 298.46373 -61.06733 
L 298.46373 -62.702718 
L 298.46373 -64.338106 
L 298.46373 -65.973495 
L 298.46373 -67.608883 
L 298.46373 -69.244271 
L 298.46373 -70.879659 
L 298.46373 -72.515047 
L 298.46373 -74.150435 
L 298.46373 -75.785823 
L 298.46373 -77.421211 
L 298.46373 -79.056599 
L 298.46373 -80.691988 
L 298.46373 -82.327376 
L 298.46373 -83.962764 
L 298.46373 -85.598152 
L 298.46373 -87.23354 
L 298.46373 -88.868928 
L 298.46373 -90.504316 
L 298.46373 -92.139704 
L 298.46373 -93.775092 
L 298.46373 -95.41048 
L 298.46373 -97.045869 
L 298.46373 -98.681257 
L 298.46373 -100.316645 
L 298.46373 -101.952033 
L 298.46373 -103.587421 
L 298.46373 -105.222809 
L 298.46373 -106.858197 
L 298.46373 -108.493585 
L 298.46373 -110.128973 
L 298.46373 -111.764362 
L 298.46373 -113.39975 
L 298.46373 -115.035138 
L 298.46373 -116.670526 
L 298.46373 -118.305914 
L 298.46373 -119.941302 
L 298.46373 -121.57669 
L 298.46373 -123.212078 
L 298.46373 -124.847466 
L 298.46373 -126.482855 
L 298.46373 -128.118243 
L 298.46373 -129.753631 
L 298.46373 -131.389019 
L 298.46373 -133.024407 
L 298.46373 -134.659795 
L 298.46373 -136.295183 
L 298.46373 -137.930571 
L 298.46373 -139.565959 
L 298.46373 -141.201348 
L 298.46373 -142.836736 
L 298.46373 -144.472124 
L 298.46373 -146.107512 
L 298.46373 -147.7429 
L 298.46373 -149.378288 
L 298.46373 -151.013676 
L 298.46373 -152.649064 
L 298.46373 -154.284452 
L 298.46373 -155.919841 
L 298.46373 -157.555229 
L 298.46373 -159.190617 
L 298.46373 -160.826005 
L 298.46373 -162.461393 
L 298.46373 -164.096781 
L 298.46373 -165.732169 
L 298.46373 -167.367557 
L 298.46373 -169.002945 
L 298.46373 -170.638334 
L 298.46373 -172.273722 
L 298.46373 -173.90911 
L 298.46373 -175.544498 
L 298.46373 -177.179886 
L 298.46373 -178.815274 
L 298.46373 -180.450662 
L 298.46373 -182.08605 
L 298.46373 -183.721438 
L 298.46373 -185.356827 
L 298.46373 -186.992215 
L 298.46373 -188.627603 
L 298.46373 -190.262991 
L 298.46373 -191.898379 
L 298.48278 -191.898379 
L 298.48278 -191.898379 
L 298.501348 -190.262991 
L 298.531597 -188.627603 
L 298.57601 -186.992215 
L 298.634956 -185.356827 
L 298.70617 -183.721438 
L 298.785695 -182.08605 
L 298.870331 -180.450662 
L 298.960628 -178.815274 
L 299.062808 -177.179886 
L 299.188375 -175.544498 
L 299.351372 -173.90911 
L 299.564627 -172.273722 
L 299.837008 -170.638334 
L 300.173083 -169.002945 
L 300.575074 -167.367557 
L 301.045442 -165.732169 
L 301.588013 -164.096781 
L 302.206548 -162.461393 
L 302.901433 -160.826005 
L 303.666704 -159.190617 
L 304.489797 -157.555229 
L 305.354975 -155.919841 
L 306.248743 -154.284452 
L 307.163304 -152.649064 
L 308.094409 -151.013676 
L 309.033778 -149.378288 
L 309.961576 -147.7429 
L 310.846479 -146.107512 
L 311.656178 -144.472124 
L 312.372413 -142.836736 
L 312.999388 -141.201348 
L 313.558568 -139.565959 
L 314.073309 -137.930571 
L 314.554235 -136.295183 
L 314.994288 -134.659795 
L 315.373994 -133.024407 
L 315.670966 -131.389019 
L 315.867705 -129.753631 
L 315.955893 -128.118243 
L 315.938248 -126.482855 
L 315.828664 -124.847466 
L 315.649553 -123.212078 
L 315.424952 -121.57669 
L 315.170258 -119.941302 
L 314.883167 -118.305914 
L 314.542474 -116.670526 
L 314.118835 -115.035138 
L 313.594267 -113.39975 
L 312.979597 -111.764362 
L 312.317774 -110.128973 
L 311.668561 -108.493585 
L 311.082213 -106.858197 
L 310.577319 -105.222809 
L 310.135347 -103.587421 
L 309.713751 -101.952033 
L 309.26872 -100.316645 
L 308.774783 -98.681257 
L 308.232421 -97.045869 
L 307.662667 -95.41048 
L 307.094146 -93.775092 
L 306.550523 -92.139704 
L 306.044525 -90.504316 
L 305.580048 -88.868928 
L 305.158715 -87.23354 
L 304.784733 -85.598152 
L 304.463711 -83.962764 
L 304.196311 -82.327376 
L 303.972149 -80.691988 
L 303.76961 -79.056599 
L 303.562879 -77.421211 
L 303.332116 -75.785823 
L 303.070613 -74.150435 
L 302.785256 -72.515047 
L 302.491406 -70.879659 
L 302.206378 -69.244271 
L 301.94519 -67.608883 
L 301.719325 -65.973495 
L 301.5367 -64.338106 
L 301.400864 -62.702718 
L 301.309259 -61.06733 
L 301.252246 -59.431942 
L 301.214682 -57.796554 
L 301.180171 -56.161166 
L 301.135959 -54.525778 
L 301.075633 -52.89039 
L 300.997927 -51.255002 
L 300.902383 -49.619613 
L 300.784747 -47.984225 
L 300.6355 -46.348837 
L 300.443304 -44.713449 
L 300.202097 -43.078061 
L 299.917838 -41.442673 
L 299.610414 -39.807285 
L 299.308805 -38.171897 
L 299.041715 -36.536509 
L 298.828607 -34.90112 
L 298.675456 -33.265732 
L 298.576297 -31.630344 
L 298.518431 -29.994956 
z
" style="stroke: #ffffff; stroke-width: 0.75"/>
    </defs>
    <g clip-path="url(#pb3c51ceefa)">
     <use xlink:href="#mfce8bf1e8b" x="0" y="213.416409" style="fill: #d8bc88; stroke: #ffffff; stroke-width: 0.75"/>
    </g>
   </g>
   <g id="matplotlib.axis_1">
    <g id="xtick_1">
     <g id="line2d_1">
      <defs>
       <path id="m9d36ae9e7f" d="M 0 0 
L 0 3.5 
" style="stroke: #ffffff; stroke-width: 0.8"/>
      </defs>
      <g>
       <use xlink:href="#m9d36ae9e7f" x="79.811693" y="173.52" style="fill: #ffffff; stroke: #ffffff; stroke-width: 0.8"/>
      </g>
     </g>
     <g id="text_1">
      <!-- $15$ -->
      <g style="fill: #ffffff" transform="translate(74.332226 188.130347) scale(0.11 -0.11)">
       <defs>
        <path id="CMR17-31" d="M 1702 4083 
C 1702 4217 1696 4224 1606 4224 
C 1357 3927 979 3833 621 3820 
C 602 3820 570 3820 563 3808 
C 557 3795 557 3782 557 3648 
C 755 3648 1088 3686 1344 3839 
L 1344 467 
C 1344 243 1331 166 781 166 
L 589 166 
L 589 0 
C 896 6 1216 12 1523 12 
C 1830 12 2150 6 2458 0 
L 2458 166 
L 2266 166 
C 1715 166 1702 236 1702 467 
L 1702 4083 
z
" transform="scale(0.015625)"/>
        <path id="CMR17-35" d="M 730 3750 
C 794 3724 1056 3641 1325 3641 
C 1920 3641 2246 3961 2432 4140 
C 2432 4191 2432 4224 2394 4224 
C 2387 4224 2374 4224 2323 4198 
C 2099 4102 1837 4032 1517 4032 
C 1325 4032 1037 4055 723 4191 
C 653 4224 640 4224 634 4224 
C 602 4224 595 4217 595 4090 
L 595 2231 
C 595 2113 595 2080 659 2080 
C 691 2080 704 2093 736 2139 
C 941 2435 1222 2560 1542 2560 
C 1766 2560 2246 2415 2246 1293 
C 2246 1087 2246 716 2054 422 
C 1894 159 1645 25 1370 25 
C 947 25 518 319 403 812 
C 429 806 480 793 506 793 
C 589 793 749 838 749 1036 
C 749 1209 627 1280 506 1280 
C 358 1280 262 1190 262 1011 
C 262 454 704 -128 1382 -128 
C 2042 -128 2669 441 2669 1267 
C 2669 2054 2170 2662 1549 2662 
C 1222 2662 947 2540 730 2304 
L 730 3750 
z
" transform="scale(0.015625)"/>
       </defs>
       <use xlink:href="#CMR17-31" transform="scale(0.996264)"/>
       <use xlink:href="#CMR17-35" transform="translate(45.690477 0) scale(0.996264)"/>
      </g>
     </g>
    </g>
    <g id="xtick_2">
     <g id="line2d_2">
      <g>
       <use xlink:href="#m9d36ae9e7f" x="123.5421" y="173.52" style="fill: #ffffff; stroke: #ffffff; stroke-width: 0.8"/>
      </g>
     </g>
     <g id="text_2">
      <!-- $20$ -->
      <g style="fill: #ffffff" transform="translate(118.062633 188.130347) scale(0.11 -0.11)">
       <defs>
        <path id="CMR17-32" d="M 2669 990 
L 2554 990 
C 2490 537 2438 460 2413 422 
C 2381 371 1920 371 1830 371 
L 602 371 
C 832 620 1280 1073 1824 1596 
C 2214 1966 2669 2400 2669 3033 
C 2669 3788 2067 4224 1395 4224 
C 691 4224 262 3603 262 3027 
C 262 2777 448 2745 525 2745 
C 589 2745 781 2783 781 3007 
C 781 3206 614 3264 525 3264 
C 486 3264 448 3257 422 3244 
C 544 3788 915 4057 1306 4057 
C 1862 4057 2227 3616 2227 3033 
C 2227 2477 1901 1998 1536 1583 
L 262 147 
L 262 0 
L 2515 0 
L 2669 990 
z
" transform="scale(0.015625)"/>
        <path id="CMR17-30" d="M 2688 2038 
C 2688 2430 2682 3099 2413 3613 
C 2176 4063 1798 4224 1466 4224 
C 1158 4224 768 4082 525 3620 
C 269 3137 243 2539 243 2038 
C 243 1671 250 1112 448 623 
C 723 -39 1216 -128 1466 -128 
C 1760 -128 2208 -7 2470 604 
C 2662 1048 2688 1568 2688 2038 
z
M 1466 -26 
C 1056 -26 813 328 723 816 
C 653 1196 653 1749 653 2109 
C 653 2604 653 3015 736 3407 
C 858 3954 1216 4121 1466 4121 
C 1728 4121 2067 3947 2189 3420 
C 2272 3054 2278 2623 2278 2109 
C 2278 1691 2278 1176 2202 797 
C 2067 96 1690 -26 1466 -26 
z
" transform="scale(0.015625)"/>
       </defs>
       <use xlink:href="#CMR17-32" transform="scale(0.996264)"/>
       <use xlink:href="#CMR17-30" transform="translate(45.690477 0) scale(0.996264)"/>
      </g>
     </g>
    </g>
    <g id="xtick_3">
     <g id="line2d_3">
      <g>
       <use xlink:href="#m9d36ae9e7f" x="167.272508" y="173.52" style="fill: #ffffff; stroke: #ffffff; stroke-width: 0.8"/>
      </g>
     </g>
     <g id="text_3">
      <!-- $25$ -->
      <g style="fill: #ffffff" transform="translate(161.793041 188.130347) scale(0.11 -0.11)">
       <use xlink:href="#CMR17-32" transform="scale(0.996264)"/>
       <use xlink:href="#CMR17-35" transform="translate(45.690477 0) scale(0.996264)"/>
      </g>
     </g>
    </g>
    <g id="xtick_4">
     <g id="line2d_4">
      <g>
       <use xlink:href="#m9d36ae9e7f" x="211.002915" y="173.52" style="fill: #ffffff; stroke: #ffffff; stroke-width: 0.8"/>
      </g>
     </g>
     <g id="text_4">
      <!-- $30$ -->
      <g style="fill: #ffffff" transform="translate(205.523448 188.130347) scale(0.11 -0.11)">
       <defs>
        <path id="CMR17-33" d="M 1414 2176 
C 1984 2176 2234 1673 2234 1094 
C 2234 322 1824 25 1453 25 
C 1114 25 563 193 390 691 
C 422 678 454 678 486 678 
C 640 678 755 780 755 947 
C 755 1132 614 1216 486 1216 
C 378 1216 211 1164 211 927 
C 211 335 787 -128 1466 -128 
C 2176 -128 2720 432 2720 1087 
C 2720 1718 2208 2176 1600 2246 
C 2086 2347 2554 2776 2554 3353 
C 2554 3856 2048 4224 1472 4224 
C 890 4224 378 3862 378 3347 
C 378 3123 544 3084 627 3084 
C 762 3084 877 3167 877 3334 
C 877 3500 762 3584 627 3584 
C 602 3584 570 3584 544 3571 
C 730 3999 1235 4076 1459 4076 
C 1683 4076 2106 3966 2106 3347 
C 2106 3167 2080 2851 1862 2574 
C 1670 2329 1453 2316 1242 2297 
C 1210 2297 1062 2284 1037 2284 
C 992 2278 966 2272 966 2227 
C 966 2182 973 2176 1101 2176 
L 1414 2176 
z
" transform="scale(0.015625)"/>
       </defs>
       <use xlink:href="#CMR17-33" transform="scale(0.996264)"/>
       <use xlink:href="#CMR17-30" transform="translate(45.690477 0) scale(0.996264)"/>
      </g>
     </g>
    </g>
    <g id="xtick_5">
     <g id="line2d_5">
      <g>
       <use xlink:href="#m9d36ae9e7f" x="254.733323" y="173.52" style="fill: #ffffff; stroke: #ffffff; stroke-width: 0.8"/>
      </g>
     </g>
     <g id="text_5">
      <!-- $35$ -->
      <g style="fill: #ffffff" transform="translate(249.253856 188.130347) scale(0.11 -0.11)">
       <use xlink:href="#CMR17-33" transform="scale(0.996264)"/>
       <use xlink:href="#CMR17-35" transform="translate(45.690477 0) scale(0.996264)"/>
      </g>
     </g>
    </g>
    <g id="xtick_6">
     <g id="line2d_6">
      <g>
       <use xlink:href="#m9d36ae9e7f" x="298.46373" y="173.52" style="fill: #ffffff; stroke: #ffffff; stroke-width: 0.8"/>
      </g>
     </g>
     <g id="text_6">
      <!-- $40$ -->
      <g style="fill: #ffffff" transform="translate(292.984263 188.130347) scale(0.11 -0.11)">
       <defs>
        <path id="CMR17-34" d="M 2150 4147 
C 2150 4281 2144 4288 2029 4288 
L 128 1254 
L 128 1088 
L 1779 1088 
L 1779 460 
C 1779 230 1766 166 1318 166 
L 1197 166 
L 1197 0 
C 1402 12 1747 12 1965 12 
C 2182 12 2528 12 2733 0 
L 2733 166 
L 2611 166 
C 2163 166 2150 230 2150 460 
L 2150 1088 
L 2803 1088 
L 2803 1254 
L 2150 1254 
L 2150 4147 
z
M 1798 3723 
L 1798 1254 
L 256 1254 
L 1798 3723 
z
" transform="scale(0.015625)"/>
       </defs>
       <use xlink:href="#CMR17-34" transform="scale(0.996264)"/>
       <use xlink:href="#CMR17-30" transform="translate(45.690477 0) scale(0.996264)"/>
      </g>
     </g>
    </g>
    <g id="text_7">
     <!-- Frequency ($f$) [Hz] -->
     <g style="fill: #ffffff" transform="translate(142.495443 203.227617) scale(0.12 -0.12)">
      <defs>
       <path id="CMSS17-46" d="M 2918 1984 
L 2918 2374 
L 1101 2374 
L 1101 3993 
L 1882 3993 
C 1958 3993 2035 3987 2112 3987 
L 3168 3987 
L 3168 4403 
L 563 4403 
L 563 0 
L 1101 0 
L 1101 1984 
L 2918 1984 
z
" transform="scale(0.015625)"/>
       <path id="CMSS17-72" d="M 954 1369 
C 954 1974 1395 2379 1958 2392 
L 1958 2816 
C 1549 2809 1165 2604 934 2270 
L 934 2783 
L 480 2783 
L 480 0 
L 954 0 
L 954 1369 
z
" transform="scale(0.015625)"/>
       <path id="CMSS17-65" d="M 2502 1375 
C 2502 1587 2490 2001 2285 2347 
C 2061 2713 1696 2816 1421 2816 
C 755 2816 192 2184 192 1363 
C 192 579 774 -64 1510 -64 
C 1798 -64 2150 19 2470 249 
C 2470 275 2458 414 2451 421 
C 2451 433 2432 629 2432 655 
C 2125 408 1773 326 1517 326 
C 1107 326 666 667 646 1375 
L 2502 1375 
z
M 698 1728 
C 781 2086 1062 2425 1421 2425 
C 1517 2425 1965 2412 2080 1728 
L 698 1728 
z
" transform="scale(0.015625)"/>
       <path id="CMSS17-71" d="M 2611 2816 
L 2138 2816 
L 2138 2425 
C 2112 2457 1818 2816 1318 2816 
C 736 2816 211 2218 211 1369 
C 211 585 653 -64 1229 -64 
C 1498 -64 1837 32 2125 307 
L 2125 -1280 
L 2611 -1280 
L 2611 2816 
z
M 2138 870 
C 2138 786 2138 669 1939 501 
C 1888 456 1747 326 1504 326 
C 1050 326 698 805 698 1369 
C 698 1998 1126 2412 1562 2412 
C 1926 2412 2138 2049 2138 1777 
L 2138 870 
z
" transform="scale(0.015625)"/>
       <path id="CMSS17-75" d="M 2618 2752 
L 2131 2752 
L 2131 976 
C 2131 500 1786 307 1421 307 
C 998 307 960 448 960 712 
L 960 2752 
L 474 2752 
L 474 680 
C 474 179 646 -64 1088 -64 
C 1306 -64 1798 -13 2144 307 
L 2144 -13 
L 2618 -13 
L 2618 2752 
z
" transform="scale(0.015625)"/>
       <path id="CMSS17-6e" d="M 2618 1878 
C 2618 2283 2522 2816 1798 2816 
C 1389 2816 1120 2604 941 2386 
L 941 2783 
L 474 2783 
L 474 0 
L 960 0 
L 960 1556 
C 960 1962 1114 2425 1549 2425 
C 2112 2425 2131 2045 2131 1826 
L 2131 0 
L 2618 0 
L 2618 1878 
z
" transform="scale(0.015625)"/>
       <path id="CMSS17-63" d="M 2464 2540 
C 2464 2585 2170 2713 2093 2739 
C 1882 2816 1613 2816 1542 2816 
C 710 2816 211 2092 211 1363 
C 211 595 768 -64 1517 -64 
C 1946 -64 2253 76 2502 243 
L 2464 665 
C 2189 454 1869 339 1523 339 
C 1024 339 698 774 698 1369 
C 698 1830 909 2412 1549 2412 
C 1901 2412 2099 2342 2394 2143 
L 2464 2540 
z
" transform="scale(0.015625)"/>
       <path id="CMSS17-79" d="M 2675 2752 
L 2176 2752 
C 1632 1293 1446 701 1434 383 
L 1427 383 
C 1408 695 1126 1459 902 2006 
L 602 2752 
L 83 2752 
L 1216 14 
C 1146 -177 1043 -464 1011 -527 
C 870 -884 774 -884 672 -884 
C 646 -884 442 -877 211 -807 
L 250 -1229 
C 410 -1261 570 -1280 685 -1280 
C 845 -1280 1165 -1280 1459 -495 
L 2675 2752 
z
" transform="scale(0.015625)"/>
       <path id="CMSS17-28" d="M 1613 4800 
C 1267 4447 474 3627 474 1603 
C 474 -428 1267 -1242 1613 -1600 
L 2003 -1600 
C 1216 -781 960 366 960 1596 
C 960 2820 1203 3973 2003 4800 
L 1613 4800 
z
" transform="scale(0.015625)"/>
       <path id="CMMI12-66" d="M 2854 2566 
C 2982 2566 3034 2566 3034 2687 
C 3034 2752 2982 2752 2867 2752 
L 2349 2752 
C 2470 3398 2560 3846 2611 4051 
C 2650 4204 2784 4351 2950 4351 
C 3085 4351 3219 4294 3283 4236 
C 3034 4211 2957 4025 2957 3916 
C 2957 3788 3053 3712 3174 3712 
C 3302 3712 3494 3820 3494 4064 
C 3494 4332 3226 4480 2944 4480 
C 2669 4480 2400 4275 2272 4025 
C 2157 3801 2093 3573 1946 2752 
L 1517 2752 
C 1395 2752 1331 2752 1331 2636 
C 1331 2566 1370 2566 1498 2566 
L 1907 2566 
C 1792 1977 1530 545 1382 -132 
C 1274 -685 1178 -1152 858 -1152 
C 838 -1152 653 -1152 538 -1031 
C 864 -1005 864 -724 864 -717 
C 864 -589 768 -512 646 -512 
C 518 -512 326 -621 326 -865 
C 326 -1140 608 -1280 858 -1280 
C 1510 -1280 1779 -113 1850 203 
C 1965 691 2278 2376 2310 2566 
L 2854 2566 
z
" transform="scale(0.015625)"/>
       <path id="CMSS17-29" d="M 723 -1600 
C 1069 -1248 1862 -428 1862 1596 
C 1862 3627 1069 4440 723 4800 
L 333 4800 
C 1120 3979 1376 2833 1376 1603 
C 1376 379 1133 -774 333 -1600 
L 723 -1600 
z
" transform="scale(0.015625)"/>
       <path id="CMSS17-5b" d="M 1613 -1600 
L 1613 -1210 
L 1062 -1210 
L 1062 4409 
L 1613 4409 
L 1613 4800 
L 595 4800 
L 595 -1600 
L 1613 -1600 
z
" transform="scale(0.015625)"/>
       <path id="CMSS17-48" d="M 3674 4416 
L 3136 4416 
L 3136 2496 
L 1101 2496 
L 1101 4416 
L 563 4416 
L 563 0 
L 1101 0 
L 1101 2105 
L 3136 2105 
L 3136 0 
L 3674 0 
L 3674 4416 
z
" transform="scale(0.015625)"/>
       <path id="CMSS17-7a" d="M 2400 2502 
L 2400 2752 
L 250 2752 
L 250 2367 
L 1069 2367 
C 1146 2367 1222 2374 1299 2374 
L 1747 2374 
L 166 262 
L 166 0 
L 2419 0 
L 2419 396 
L 1549 396 
C 1472 396 1395 390 1318 390 
L 826 390 
L 2400 2502 
z
" transform="scale(0.015625)"/>
       <path id="CMSS17-5d" d="M 1146 4800 
L 128 4800 
L 128 4409 
L 678 4409 
L 678 -1210 
L 128 -1210 
L 128 -1600 
L 1146 -1600 
L 1146 4800 
z
" transform="scale(0.015625)"/>
      </defs>
      <use xlink:href="#CMSS17-46" transform="scale(0.996264)"/>
      <use xlink:href="#CMSS17-72" transform="translate(50.687105 0) scale(0.996264)"/>
      <use xlink:href="#CMSS17-65" transform="translate(82.596878 0) scale(0.996264)"/>
      <use xlink:href="#CMSS17-71" transform="translate(124.2357 0) scale(0.996264)"/>
      <use xlink:href="#CMSS17-75" transform="translate(172.440643 0) scale(0.996264)"/>
      <use xlink:href="#CMSS17-65" transform="translate(220.645586 0) scale(0.996264)"/>
      <use xlink:href="#CMSS17-6e" transform="translate(262.284408 0) scale(0.996264)"/>
      <use xlink:href="#CMSS17-63" transform="translate(310.489351 0) scale(0.996264)"/>
      <use xlink:href="#CMSS17-79" transform="translate(352.128174 0) scale(0.996264)"/>
      <use xlink:href="#CMSS17-28" transform="translate(426.357428 0) scale(0.996264)"/>
      <use xlink:href="#CMMI12-66" transform="translate(462.791342 0) scale(0.996264)"/>
      <use xlink:href="#CMSS17-29" transform="translate(521.511647 0) scale(0.996264)"/>
      <use xlink:href="#CMSS17-5b" transform="translate(589.174674 0) scale(0.996264)"/>
      <use xlink:href="#CMSS17-48" transform="translate(616.360113 0) scale(0.996264)"/>
      <use xlink:href="#CMSS17-7a" transform="translate(682.421632 0) scale(0.996264)"/>
      <use xlink:href="#CMSS17-5d" transform="translate(723.099504 0) scale(0.996264)"/>
     </g>
    </g>
   </g>
   <g id="matplotlib.axis_2">
    <g id="ytick_1">
     <g id="line2d_7">
      <defs>
       <path id="mcfa3639d5e" d="M 0 0 
L -3.5 0 
" style="stroke: #ffffff; stroke-width: 0.8"/>
      </defs>
      <g>
       <use xlink:href="#mcfa3639d5e" x="49.637712" y="173.52" style="fill: #ffffff; stroke: #ffffff; stroke-width: 0.8"/>
      </g>
     </g>
     <g id="text_8">
      <!-- $\mathdefault{0.00}$ -->
      <g style="fill: #ffffff" transform="translate(23.155168 177.325173) scale(0.11 -0.11)">
       <defs>
        <path id="CMMI12-3a" d="M 1178 307 
C 1178 492 1024 620 870 620 
C 685 620 557 467 557 313 
C 557 128 710 0 864 0 
C 1050 0 1178 153 1178 307 
z
" transform="scale(0.015625)"/>
       </defs>
       <use xlink:href="#CMR17-30" transform="scale(0.996264)"/>
       <use xlink:href="#CMMI12-3a" transform="translate(45.690477 0) scale(0.996264)"/>
       <use xlink:href="#CMR17-30" transform="translate(72.787654 0) scale(0.996264)"/>
       <use xlink:href="#CMR17-30" transform="translate(118.478131 0) scale(0.996264)"/>
      </g>
     </g>
    </g>
    <g id="ytick_2">
     <g id="line2d_8">
      <g>
       <use xlink:href="#mcfa3639d5e" x="49.637712" y="129.553303" style="fill: #ffffff; stroke: #ffffff; stroke-width: 0.8"/>
      </g>
     </g>
     <g id="text_9">
      <!-- $\mathdefault{0.05}$ -->
      <g style="fill: #ffffff" transform="translate(23.155168 133.358477) scale(0.11 -0.11)">
       <use xlink:href="#CMR17-30" transform="scale(0.996264)"/>
       <use xlink:href="#CMMI12-3a" transform="translate(45.690477 0) scale(0.996264)"/>
       <use xlink:href="#CMR17-30" transform="translate(72.787654 0) scale(0.996264)"/>
       <use xlink:href="#CMR17-35" transform="translate(118.478131 0) scale(0.996264)"/>
      </g>
     </g>
    </g>
    <g id="ytick_3">
     <g id="line2d_9">
      <g>
       <use xlink:href="#mcfa3639d5e" x="49.637712" y="85.586607" style="fill: #ffffff; stroke: #ffffff; stroke-width: 0.8"/>
      </g>
     </g>
     <g id="text_10">
      <!-- $\mathdefault{0.10}$ -->
      <g style="fill: #ffffff" transform="translate(23.155168 89.39178) scale(0.11 -0.11)">
       <use xlink:href="#CMR17-30" transform="scale(0.996264)"/>
       <use xlink:href="#CMMI12-3a" transform="translate(45.690477 0) scale(0.996264)"/>
       <use xlink:href="#CMR17-31" transform="translate(72.787654 0) scale(0.996264)"/>
       <use xlink:href="#CMR17-30" transform="translate(118.478131 0) scale(0.996264)"/>
      </g>
     </g>
    </g>
    <g id="ytick_4">
     <g id="line2d_10">
      <g>
       <use xlink:href="#mcfa3639d5e" x="49.637712" y="41.61991" style="fill: #ffffff; stroke: #ffffff; stroke-width: 0.8"/>
      </g>
     </g>
     <g id="text_11">
      <!-- $\mathdefault{0.15}$ -->
      <g style="fill: #ffffff" transform="translate(23.155168 45.425084) scale(0.11 -0.11)">
       <use xlink:href="#CMR17-30" transform="scale(0.996264)"/>
       <use xlink:href="#CMMI12-3a" transform="translate(45.690477 0) scale(0.996264)"/>
       <use xlink:href="#CMR17-31" transform="translate(72.787654 0) scale(0.996264)"/>
       <use xlink:href="#CMR17-35" transform="translate(118.478131 0) scale(0.996264)"/>
      </g>
     </g>
    </g>
    <g id="text_12">
     <!-- Eccentricity ($e$) -->
     <g style="fill: #ffffff" transform="translate(16.166376 127.955376) rotate(-90) scale(0.12 -0.12)">
      <defs>
       <path id="CMSS17-45" d="M 1958 435 
C 1446 435 1216 435 1101 428 
L 1101 2105 
L 3085 2105 
L 3085 2496 
L 1101 2496 
L 1101 3993 
L 1926 3993 
C 2003 3993 2080 3987 2157 3987 
L 3251 3987 
L 3251 4403 
L 563 4403 
L 563 0 
L 3334 0 
L 3334 441 
L 1958 435 
z
" transform="scale(0.015625)"/>
       <path id="CMSS17-74" d="M 1069 2380 
L 1901 2380 
L 1901 2752 
L 1069 2752 
L 1069 3520 
L 614 3520 
L 614 2752 
L 109 2752 
L 109 2380 
L 602 2380 
L 602 751 
C 602 384 685 -64 1107 -64 
C 1427 -64 1722 25 2003 172 
L 1901 551 
C 1747 416 1562 339 1363 339 
C 1082 339 1069 699 1069 860 
L 1069 2380 
z
" transform="scale(0.015625)"/>
       <path id="CMSS17-69" d="M 979 4224 
L 442 4224 
L 442 3686 
L 979 3686 
L 979 4224 
z
M 947 2752 
L 474 2752 
L 474 0 
L 947 0 
L 947 2752 
z
" transform="scale(0.015625)"/>
       <path id="CMMI12-65" d="M 1146 1472 
C 1318 1472 1754 1484 2061 1600 
C 2547 1786 2592 2160 2592 2275 
C 2592 2559 2349 2816 1926 2816 
C 1254 2816 288 2205 288 1066 
C 288 400 672 -64 1254 -64 
C 2125 -64 2675 609 2675 691 
C 2675 729 2637 761 2611 761 
C 2592 761 2586 755 2528 698 
C 2118 159 1510 64 1267 64 
C 902 64 710 349 710 818 
C 710 907 710 1066 806 1472 
L 1146 1472 
z
M 838 1600 
C 1114 2591 1722 2687 1926 2687 
C 2208 2687 2400 2520 2400 2275 
C 2400 1600 1376 1600 1107 1600 
L 838 1600 
z
" transform="scale(0.015625)"/>
      </defs>
      <use xlink:href="#CMSS17-45" transform="scale(0.996264)"/>
      <use xlink:href="#CMSS17-63" transform="translate(55.892013 0) scale(0.996264)"/>
      <use xlink:href="#CMSS17-63" transform="translate(97.530835 0) scale(0.996264)"/>
      <use xlink:href="#CMSS17-65" transform="translate(139.169657 0) scale(0.996264)"/>
      <use xlink:href="#CMSS17-6e" transform="translate(180.808479 0) scale(0.996264)"/>
      <use xlink:href="#CMSS17-74" transform="translate(229.013423 0) scale(0.996264)"/>
      <use xlink:href="#CMSS17-72" transform="translate(262.844989 0) scale(0.996264)"/>
      <use xlink:href="#CMSS17-69" transform="translate(294.754762 0) scale(0.996264)"/>
      <use xlink:href="#CMSS17-63" transform="translate(316.935485 0) scale(0.996264)"/>
      <use xlink:href="#CMSS17-69" transform="translate(358.574307 0) scale(0.996264)"/>
      <use xlink:href="#CMSS17-74" transform="translate(380.75503 0) scale(0.996264)"/>
      <use xlink:href="#CMSS17-79" transform="translate(411.984143 0) scale(0.996264)"/>
      <use xlink:href="#CMSS17-28" transform="translate(486.213397 0) scale(0.996264)"/>
      <use xlink:href="#CMMI12-65" transform="translate(522.647311 0) scale(0.996264)"/>
      <use xlink:href="#CMSS17-29" transform="translate(567.859312 0) scale(0.996264)"/>
     </g>
    </g>
   </g>
   <g id="LineCollection_1">
    <path d="M 62.31953 118.940784 
L 79.811693 118.940784 
" clip-path="url(#pb3c51ceefa)" style="fill: none; stroke-dasharray: 2.775,1.2; stroke-dashoffset: 0; stroke: #c678dd; stroke-width: 0.75"/>
   </g>
   <g id="LineCollection_2">
    <path d="M 62.31953 68.220919 
L 79.811693 68.220919 
" clip-path="url(#pb3c51ceefa)" style="fill: none; stroke-dasharray: 2.775,1.2; stroke-dashoffset: 0; stroke: #c678dd; stroke-width: 0.75"/>
   </g>
   <g id="LineCollection_3">
    <path d="M 79.811693 115.042987 
L 97.303856 115.042987 
" clip-path="url(#pb3c51ceefa)" style="fill: none; stroke-dasharray: 2.775,1.2; stroke-dashoffset: 0; stroke: #ffffff; stroke-width: 0.75"/>
   </g>
   <g id="LineCollection_4">
    <path d="M 79.811693 67.820685 
L 97.303856 67.820685 
" clip-path="url(#pb3c51ceefa)" style="fill: none; stroke-dasharray: 2.775,1.2; stroke-dashoffset: 0; stroke: #ffffff; stroke-width: 0.75"/>
   </g>
   <g id="LineCollection_5">
    <path d="M 106.049937 136.355588 
L 123.5421 136.355588 
" clip-path="url(#pb3c51ceefa)" style="fill: none; stroke-dasharray: 2.775,1.2; stroke-dashoffset: 0; stroke: #c678dd; stroke-width: 0.75"/>
   </g>
   <g id="LineCollection_6">
    <path d="M 106.049937 97.541103 
L 123.5421 97.541103 
" clip-path="url(#pb3c51ceefa)" style="fill: none; stroke-dasharray: 2.775,1.2; stroke-dashoffset: 0; stroke: #c678dd; stroke-width: 0.75"/>
   </g>
   <g id="LineCollection_7">
    <path d="M 123.5421 125.429931 
L 141.034263 125.429931 
" clip-path="url(#pb3c51ceefa)" style="fill: none; stroke-dasharray: 2.775,1.2; stroke-dashoffset: 0; stroke: #ffffff; stroke-width: 0.75"/>
   </g>
   <g id="LineCollection_8">
    <path d="M 123.5421 90.85769 
L 141.034263 90.85769 
" clip-path="url(#pb3c51ceefa)" style="fill: none; stroke-dasharray: 2.775,1.2; stroke-dashoffset: 0; stroke: #ffffff; stroke-width: 0.75"/>
   </g>
   <g id="LineCollection_9">
    <path d="M 149.780345 144.991391 
L 167.272508 144.991391 
" clip-path="url(#pb3c51ceefa)" style="fill: none; stroke-dasharray: 2.775,1.2; stroke-dashoffset: 0; stroke: #c678dd; stroke-width: 0.75"/>
   </g>
   <g id="LineCollection_10">
    <path d="M 149.780345 114.998006 
L 167.272508 114.998006 
" clip-path="url(#pb3c51ceefa)" style="fill: none; stroke-dasharray: 2.775,1.2; stroke-dashoffset: 0; stroke: #c678dd; stroke-width: 0.75"/>
   </g>
   <g id="LineCollection_11">
    <path d="M 167.272508 124.797549 
L 184.764671 124.797549 
" clip-path="url(#pb3c51ceefa)" style="fill: none; stroke-dasharray: 2.775,1.2; stroke-dashoffset: 0; stroke: #ffffff; stroke-width: 0.75"/>
   </g>
   <g id="LineCollection_12">
    <path d="M 167.272508 90.982617 
L 184.764671 90.982617 
" clip-path="url(#pb3c51ceefa)" style="fill: none; stroke-dasharray: 2.775,1.2; stroke-dashoffset: 0; stroke: #ffffff; stroke-width: 0.75"/>
   </g>
   <g id="LineCollection_13">
    <path d="M 193.510752 150.997607 
L 211.002915 150.997607 
" clip-path="url(#pb3c51ceefa)" style="fill: none; stroke-dasharray: 2.775,1.2; stroke-dashoffset: 0; stroke: #c678dd; stroke-width: 0.75"/>
   </g>
   <g id="LineCollection_14">
    <path d="M 193.510752 126.90141 
L 211.002915 126.90141 
" clip-path="url(#pb3c51ceefa)" style="fill: none; stroke-dasharray: 2.775,1.2; stroke-dashoffset: 0; stroke: #c678dd; stroke-width: 0.75"/>
   </g>
   <g id="LineCollection_15">
    <path d="M 211.002915 123.400233 
L 228.495078 123.400233 
" clip-path="url(#pb3c51ceefa)" style="fill: none; stroke-dasharray: 2.775,1.2; stroke-dashoffset: 0; stroke: #ffffff; stroke-width: 0.75"/>
   </g>
   <g id="LineCollection_16">
    <path d="M 211.002915 84.041029 
L 228.495078 84.041029 
" clip-path="url(#pb3c51ceefa)" style="fill: none; stroke-dasharray: 2.775,1.2; stroke-dashoffset: 0; stroke: #ffffff; stroke-width: 0.75"/>
   </g>
   <g id="LineCollection_17">
    <path d="M 237.24116 154.872557 
L 254.733323 154.872557 
" clip-path="url(#pb3c51ceefa)" style="fill: none; stroke-dasharray: 2.775,1.2; stroke-dashoffset: 0; stroke: #c678dd; stroke-width: 0.75"/>
   </g>
   <g id="LineCollection_18">
    <path d="M 237.24116 134.618162 
L 254.733323 134.618162 
" clip-path="url(#pb3c51ceefa)" style="fill: none; stroke-dasharray: 2.775,1.2; stroke-dashoffset: 0; stroke: #c678dd; stroke-width: 0.75"/>
   </g>
   <g id="LineCollection_19">
    <path d="M 254.733323 124.386337 
L 272.225486 124.386337 
" clip-path="url(#pb3c51ceefa)" style="fill: none; stroke-dasharray: 2.775,1.2; stroke-dashoffset: 0; stroke: #ffffff; stroke-width: 0.75"/>
   </g>
   <g id="LineCollection_20">
    <path d="M 254.733323 76.674505 
L 272.225486 76.674505 
" clip-path="url(#pb3c51ceefa)" style="fill: none; stroke-dasharray: 2.775,1.2; stroke-dashoffset: 0; stroke: #ffffff; stroke-width: 0.75"/>
   </g>
   <g id="LineCollection_21">
    <path d="M 280.971567 156.897872 
L 298.46373 156.897872 
" clip-path="url(#pb3c51ceefa)" style="fill: none; stroke-dasharray: 2.775,1.2; stroke-dashoffset: 0; stroke: #c678dd; stroke-width: 0.75"/>
   </g>
   <g id="LineCollection_22">
    <path d="M 280.971567 140.816429 
L 298.46373 140.816429 
" clip-path="url(#pb3c51ceefa)" style="fill: none; stroke-dasharray: 2.775,1.2; stroke-dashoffset: 0; stroke: #c678dd; stroke-width: 0.75"/>
   </g>
   <g id="LineCollection_23">
    <path d="M 298.46373 124.387207 
L 315.955893 124.387207 
" clip-path="url(#pb3c51ceefa)" style="fill: none; stroke-dasharray: 2.775,1.2; stroke-dashoffset: 0; stroke: #ffffff; stroke-width: 0.75"/>
   </g>
   <g id="LineCollection_24">
    <path d="M 298.46373 69.590894 
L 315.955893 69.590894 
" clip-path="url(#pb3c51ceefa)" style="fill: none; stroke-dasharray: 2.775,1.2; stroke-dashoffset: 0; stroke: #ffffff; stroke-width: 0.75"/>
   </g>
   <g id="patch_3">
    <path d="M 49.637712 173.52 
L 49.637712 7.2 
" style="fill: none; stroke: #ffffff; stroke-width: 0.8; stroke-linejoin: miter; stroke-linecap: square"/>
   </g>
   <g id="patch_4">
    <path d="M 49.637712 173.52 
L 328.637712 173.52 
" style="fill: none; stroke: #ffffff; stroke-width: 0.8; stroke-linejoin: miter; stroke-linecap: square"/>
   </g>
   <g id="legend_1">
    <g id="patch_5">
     <path d="M 152.672214 24.8 
L 174.672214 24.8 
L 174.672214 17.1 
L 152.672214 17.1 
z
" style="fill: #73addd; stroke: #000000; stroke-width: 0.75; stroke-linejoin: miter"/>
    </g>
    <g id="text_13">
     <!-- Theory -->
     <g style="fill: #ffffff" transform="translate(183.472214 24.8) scale(0.11 -0.11)">
      <defs>
       <path id="CMSS17-54" d="M 2317 3987 
L 2848 3987 
C 2925 3987 3002 3980 3078 3980 
L 3878 3980 
L 3878 4396 
L 218 4396 
L 218 3980 
L 1018 3980 
C 1094 3980 1171 3987 1248 3987 
L 1779 3987 
L 1779 0 
L 2317 0 
L 2317 3987 
z
" transform="scale(0.015625)"/>
       <path id="CMSS17-68" d="M 2618 1878 
C 2618 2283 2522 2816 1798 2816 
C 1395 2816 1133 2617 947 2399 
L 947 4416 
L 474 4416 
L 474 0 
L 960 0 
L 960 1556 
C 960 1962 1114 2425 1549 2425 
C 2112 2425 2131 2045 2131 1826 
L 2131 0 
L 2618 0 
L 2618 1878 
z
" transform="scale(0.015625)"/>
       <path id="CMSS17-6f" d="M 2829 1356 
C 2829 2175 2221 2816 1504 2816 
C 768 2816 173 2156 173 1356 
C 173 544 787 -64 1498 -64 
C 2227 -64 2829 563 2829 1356 
z
M 1504 339 
C 1050 339 659 710 659 1407 
C 659 2150 1114 2425 1498 2425 
C 1914 2425 2342 2124 2342 1407 
C 2342 684 1926 339 1504 339 
z
" transform="scale(0.015625)"/>
      </defs>
      <use xlink:href="#CMSS17-54" transform="scale(0.996264)"/>
      <use xlink:href="#CMSS17-68" transform="translate(63.819454 0) scale(0.996264)"/>
      <use xlink:href="#CMSS17-65" transform="translate(112.024397 0) scale(0.996264)"/>
      <use xlink:href="#CMSS17-6f" transform="translate(153.663219 0) scale(0.996264)"/>
      <use xlink:href="#CMSS17-72" transform="translate(197.904389 0) scale(0.996264)"/>
      <use xlink:href="#CMSS17-79" transform="translate(229.814161 0) scale(0.996264)"/>
     </g>
    </g>
    <g id="patch_6">
     <path d="M 152.672214 40.130895 
L 174.672214 40.130895 
L 174.672214 32.430895 
L 152.672214 32.430895 
z
" style="fill: #d8bc88; stroke: #000000; stroke-width: 0.75; stroke-linejoin: miter"/>
    </g>
    <g id="text_14">
     <!-- Observed -->
     <g style="fill: #ffffff" transform="translate(183.472214 40.130895) scale(0.11 -0.11)">
      <defs>
       <path id="CMSS17-4f" d="M 4096 2201 
C 4096 3541 3219 4544 2214 4544 
C 1210 4544 333 3535 333 2201 
C 333 855 1222 -128 2214 -128 
C 3206 -128 4096 855 4096 2201 
z
M 2214 275 
C 1510 275 870 1067 870 2285 
C 870 3470 1549 4140 2214 4140 
C 2880 4140 3558 3470 3558 2285 
C 3558 1061 2912 275 2214 275 
z
" transform="scale(0.015625)"/>
       <path id="CMSS17-62" d="M 954 4416 
L 480 4416 
L 480 -13 
L 966 -13 
L 966 275 
C 1210 38 1504 -64 1766 -64 
C 2381 -64 2880 559 2880 1382 
C 2880 2133 2496 2816 1926 2816 
C 1523 2816 1165 2649 954 2476 
L 954 4416 
z
M 966 2095 
C 1107 2276 1306 2425 1587 2425 
C 1965 2425 2394 2146 2394 1382 
C 2394 566 1882 326 1530 326 
C 1402 326 1267 358 1139 468 
C 966 624 966 721 966 812 
L 966 2095 
z
" transform="scale(0.015625)"/>
       <path id="CMSS17-73" d="M 2061 2623 
C 1683 2803 1389 2816 1197 2816 
C 742 2816 198 2655 198 2009 
C 198 1363 902 1222 1094 1183 
C 1389 1126 1715 1062 1715 742 
C 1715 339 1254 339 1171 339 
C 915 339 563 409 243 639 
L 166 211 
C 531 0 883 -64 1178 -64 
C 1965 -64 2163 416 2163 780 
C 2163 1094 1984 1305 1862 1401 
C 1651 1567 1574 1587 1050 1695 
C 960 1708 646 1779 646 2067 
C 646 2431 1050 2431 1139 2431 
C 1555 2431 1811 2303 1984 2207 
L 2061 2623 
z
" transform="scale(0.015625)"/>
       <path id="CMSS17-76" d="M 2675 2752 
L 2176 2752 
L 1747 1555 
C 1613 1164 1421 627 1389 352 
L 1382 352 
C 1370 467 1318 633 1286 748 
C 1248 889 1197 1056 1158 1171 
L 595 2752 
L 83 2752 
L 1094 0 
L 1664 0 
L 2675 2752 
z
" transform="scale(0.015625)"/>
       <path id="CMSS17-64" d="M 2611 4416 
L 2138 4416 
L 2138 2495 
C 1939 2662 1613 2816 1254 2816 
C 672 2816 211 2179 211 1375 
C 211 572 666 -64 1235 -64 
C 1677 -64 1971 172 2125 307 
L 2125 -13 
L 2611 -13 
L 2611 4416 
z
M 2125 851 
C 2125 760 2125 663 1926 488 
C 1798 378 1645 326 1498 326 
C 1152 326 698 585 698 1369 
C 698 2185 1210 2425 1562 2425 
C 1798 2425 1990 2308 2125 2114 
L 2125 851 
z
" transform="scale(0.015625)"/>
      </defs>
      <use xlink:href="#CMSS17-4f" transform="scale(0.996264)"/>
      <use xlink:href="#CMSS17-62" transform="translate(69.024255 0) scale(0.996264)"/>
      <use xlink:href="#CMSS17-73" transform="translate(117.229198 0) scale(0.996264)"/>
      <use xlink:href="#CMSS17-65" transform="translate(153.14274 0) scale(0.996264)"/>
      <use xlink:href="#CMSS17-72" transform="translate(194.781563 0) scale(0.996264)"/>
      <use xlink:href="#CMSS17-76" transform="translate(226.691335 0) scale(0.996264)"/>
      <use xlink:href="#CMSS17-65" transform="translate(269.691477 0) scale(0.996264)"/>
      <use xlink:href="#CMSS17-64" transform="translate(311.330299 0) scale(0.996264)"/>
     </g>
    </g>
   </g>
  </g>
 </g>
 <defs>
  <clipPath id="pb3c51ceefa">
   <rect x="49.637712" y="7.2" width="279" height="166.32"/>
  </clipPath>
 </defs>
</svg>
