<?xml version="1.0" encoding="utf-8" standalone="no"?>
<!DOCTYPE svg PUBLIC "-//W3C//DTD SVG 1.1//EN"
  "http://www.w3.org/Graphics/SVG/1.1/DTD/svg11.dtd">
<svg xmlns:xlink="http://www.w3.org/1999/xlink" width="327.314103pt" height="212.088017pt" viewBox="0 0 327.314103 212.088017" xmlns="http://www.w3.org/2000/svg" version="1.1">
 <metadata>
  <rdf:RDF xmlns:dc="http://purl.org/dc/elements/1.1/" xmlns:cc="http://creativecommons.org/ns#" xmlns:rdf="http://www.w3.org/1999/02/22-rdf-syntax-ns#">
   <cc:Work>
    <dc:type rdf:resource="http://purl.org/dc/dcmitype/StillImage"/>
    <dc:date>2025-07-21T11:25:15.329287</dc:date>
    <dc:format>image/svg+xml</dc:format>
    <dc:creator>
     <cc:Agent>
      <dc:title>Matplotlib v3.7.3, https://matplotlib.org/</dc:title>
     </cc:Agent>
    </dc:creator>
   </cc:Work>
  </rdf:RDF>
 </metadata>
 <defs>
  <style type="text/css">*{stroke-linejoin: round; stroke-linecap: butt}</style>
 </defs>
 <g id="figure_1">
  <g id="patch_1">
   <path d="M 0 212.088017 
L 327.314103 212.088017 
L 327.314103 0 
L 0 0 
z
" style="fill: #282c34"/>
  </g>
  <g id="axes_1">
   <g id="patch_2">
    <path d="M 41.114103 173.52 
L 320.114103 173.52 
L 320.114103 7.2 
L 41.114103 7.2 
z
" style="fill: #282c34"/>
   </g>
   <g id="matplotlib.axis_1">
    <g id="xtick_1">
     <g id="line2d_1">
      <defs>
       <path id="m106c95b92a" d="M 0 0 
L 0 3.5 
" style="stroke: #ffffff; stroke-width: 0.8"/>
      </defs>
      <g>
       <use xlink:href="#m106c95b92a" x="53.795921" y="173.52" style="fill: #ffffff; stroke: #ffffff; stroke-width: 0.8"/>
      </g>
     </g>
     <g id="text_1">
      <!-- $\mathdefault{0.05}$ -->
      <g style="fill: #ffffff" transform="translate(44.054649 188.130347) scale(0.11 -0.11)">
       <defs>
        <path id="CMR17-30" d="M 2688 2038 
C 2688 2430 2682 3099 2413 3613 
C 2176 4063 1798 4224 1466 4224 
C 1158 4224 768 4082 525 3620 
C 269 3137 243 2539 243 2038 
C 243 1671 250 1112 448 623 
C 723 -39 1216 -128 1466 -128 
C 1760 -128 2208 -7 2470 604 
C 2662 1048 2688 1568 2688 2038 
z
M 1466 -26 
C 1056 -26 813 328 723 816 
C 653 1196 653 1749 653 2109 
C 653 2604 653 3015 736 3407 
C 858 3954 1216 4121 1466 4121 
C 1728 4121 2067 3947 2189 3420 
C 2272 3054 2278 2623 2278 2109 
C 2278 1691 2278 1176 2202 797 
C 2067 96 1690 -26 1466 -26 
z
" transform="scale(0.015625)"/>
        <path id="CMMI12-3a" d="M 1178 307 
C 1178 492 1024 620 870 620 
C 685 620 557 467 557 313 
C 557 128 710 0 864 0 
C 1050 0 1178 153 1178 307 
z
" transform="scale(0.015625)"/>
        <path id="CMR17-35" d="M 730 3750 
C 794 3724 1056 3641 1325 3641 
C 1920 3641 2246 3961 2432 4140 
C 2432 4191 2432 4224 2394 4224 
C 2387 4224 2374 4224 2323 4198 
C 2099 4102 1837 4032 1517 4032 
C 1325 4032 1037 4055 723 4191 
C 653 4224 640 4224 634 4224 
C 602 4224 595 4217 595 4090 
L 595 2231 
C 595 2113 595 2080 659 2080 
C 691 2080 704 2093 736 2139 
C 941 2435 1222 2560 1542 2560 
C 1766 2560 2246 2415 2246 1293 
C 2246 1087 2246 716 2054 422 
C 1894 159 1645 25 1370 25 
C 947 25 518 319 403 812 
C 429 806 480 793 506 793 
C 589 793 749 838 749 1036 
C 749 1209 627 1280 506 1280 
C 358 1280 262 1190 262 1011 
C 262 454 704 -128 1382 -128 
C 2042 -128 2669 441 2669 1267 
C 2669 2054 2170 2662 1549 2662 
C 1222 2662 947 2540 730 2304 
L 730 3750 
z
" transform="scale(0.015625)"/>
       </defs>
       <use xlink:href="#CMR17-30" transform="scale(0.996264)"/>
       <use xlink:href="#CMMI12-3a" transform="translate(45.690477 0) scale(0.996264)"/>
       <use xlink:href="#CMR17-30" transform="translate(72.787654 0) scale(0.996264)"/>
       <use xlink:href="#CMR17-35" transform="translate(118.478131 0) scale(0.996264)"/>
      </g>
     </g>
    </g>
    <g id="xtick_2">
     <g id="line2d_2">
      <g>
       <use xlink:href="#m106c95b92a" x="104.523194" y="173.52" style="fill: #ffffff; stroke: #ffffff; stroke-width: 0.8"/>
      </g>
     </g>
     <g id="text_2">
      <!-- $\mathdefault{0.06}$ -->
      <g style="fill: #ffffff" transform="translate(94.781922 188.130347) scale(0.11 -0.11)">
       <defs>
        <path id="CMR17-36" d="M 678 2198 
C 678 3712 1395 4076 1811 4076 
C 1946 4076 2272 4049 2400 3782 
C 2298 3782 2106 3782 2106 3558 
C 2106 3385 2246 3328 2336 3328 
C 2394 3328 2566 3353 2566 3571 
C 2566 3987 2246 4224 1805 4224 
C 1043 4224 243 3411 243 2011 
C 243 257 966 -128 1478 -128 
C 2099 -128 2688 431 2688 1295 
C 2688 2101 2170 2688 1517 2688 
C 1126 2688 838 2430 678 1979 
L 678 2198 
z
M 1478 25 
C 691 25 691 1212 691 1450 
C 691 1914 909 2585 1504 2585 
C 1613 2585 1926 2585 2138 2140 
C 2253 1889 2253 1624 2253 1302 
C 2253 954 2253 696 2118 438 
C 1978 173 1773 25 1478 25 
z
" transform="scale(0.015625)"/>
       </defs>
       <use xlink:href="#CMR17-30" transform="scale(0.996264)"/>
       <use xlink:href="#CMMI12-3a" transform="translate(45.690477 0) scale(0.996264)"/>
       <use xlink:href="#CMR17-30" transform="translate(72.787654 0) scale(0.996264)"/>
       <use xlink:href="#CMR17-36" transform="translate(118.478131 0) scale(0.996264)"/>
      </g>
     </g>
    </g>
    <g id="xtick_3">
     <g id="line2d_3">
      <g>
       <use xlink:href="#m106c95b92a" x="155.250466" y="173.52" style="fill: #ffffff; stroke: #ffffff; stroke-width: 0.8"/>
      </g>
     </g>
     <g id="text_3">
      <!-- $\mathdefault{0.07}$ -->
      <g style="fill: #ffffff" transform="translate(145.509195 188.130347) scale(0.11 -0.11)">
       <defs>
        <path id="CMR17-37" d="M 2886 3955 
L 2886 4096 
L 1382 4096 
C 634 4096 621 4166 595 4288 
L 480 4288 
L 294 3104 
L 410 3104 
C 429 3226 474 3552 550 3673 
C 589 3724 1062 3724 1171 3724 
L 2579 3724 
L 1869 2670 
C 1395 1961 1069 1003 1069 166 
C 1069 89 1069 -128 1299 -128 
C 1530 -128 1530 89 1530 172 
L 1530 466 
C 1530 1514 1709 2204 2003 2644 
L 2886 3955 
z
" transform="scale(0.015625)"/>
       </defs>
       <use xlink:href="#CMR17-30" transform="scale(0.996264)"/>
       <use xlink:href="#CMMI12-3a" transform="translate(45.690477 0) scale(0.996264)"/>
       <use xlink:href="#CMR17-30" transform="translate(72.787654 0) scale(0.996264)"/>
       <use xlink:href="#CMR17-37" transform="translate(118.478131 0) scale(0.996264)"/>
      </g>
     </g>
    </g>
    <g id="xtick_4">
     <g id="line2d_4">
      <g>
       <use xlink:href="#m106c95b92a" x="205.977739" y="173.52" style="fill: #ffffff; stroke: #ffffff; stroke-width: 0.8"/>
      </g>
     </g>
     <g id="text_4">
      <!-- $\mathdefault{0.08}$ -->
      <g style="fill: #ffffff" transform="translate(196.236467 188.130347) scale(0.11 -0.11)">
       <defs>
        <path id="CMR17-38" d="M 1741 2289 
C 2144 2494 2554 2803 2554 3298 
C 2554 3884 1990 4224 1472 4224 
C 890 4224 378 3800 378 3215 
C 378 3054 416 2777 666 2533 
C 730 2469 998 2276 1171 2154 
C 883 2006 211 1652 211 945 
C 211 282 838 -128 1459 -128 
C 2144 -128 2720 366 2720 1022 
C 2720 1607 2330 1877 2074 2051 
L 1741 2289 
z
M 902 2855 
C 851 2887 595 3086 595 3388 
C 595 3781 998 4076 1459 4076 
C 1965 4076 2336 3716 2336 3298 
C 2336 2700 1670 2359 1638 2359 
C 1632 2359 1626 2359 1574 2398 
L 902 2855 
z
M 2080 1536 
C 2176 1466 2483 1253 2483 861 
C 2483 385 2010 25 1472 25 
C 890 25 448 443 448 951 
C 448 1459 838 1884 1280 2083 
L 2080 1536 
z
" transform="scale(0.015625)"/>
       </defs>
       <use xlink:href="#CMR17-30" transform="scale(0.996264)"/>
       <use xlink:href="#CMMI12-3a" transform="translate(45.690477 0) scale(0.996264)"/>
       <use xlink:href="#CMR17-30" transform="translate(72.787654 0) scale(0.996264)"/>
       <use xlink:href="#CMR17-38" transform="translate(118.478131 0) scale(0.996264)"/>
      </g>
     </g>
    </g>
    <g id="xtick_5">
     <g id="line2d_5">
      <g>
       <use xlink:href="#m106c95b92a" x="256.705012" y="173.52" style="fill: #ffffff; stroke: #ffffff; stroke-width: 0.8"/>
      </g>
     </g>
     <g id="text_5">
      <!-- $\mathdefault{0.09}$ -->
      <g style="fill: #ffffff" transform="translate(246.96374 188.130347) scale(0.11 -0.11)">
       <defs>
        <path id="CMR17-39" d="M 2253 1871 
C 2253 448 1670 25 1190 25 
C 1043 25 685 43 538 281 
C 704 256 826 345 826 505 
C 826 678 685 736 595 736 
C 538 736 365 710 365 492 
C 365 68 742 -128 1203 -128 
C 1939 -128 2688 665 2688 2090 
C 2688 3857 1971 4224 1485 4224 
C 851 4224 243 3664 243 2800 
C 243 2000 762 1408 1414 1408 
C 1952 1408 2189 1910 2253 2122 
L 2253 1871 
z
M 1427 1510 
C 1254 1510 1011 1542 813 1929 
C 678 2181 678 2477 678 2793 
C 678 3174 678 3438 858 3722 
C 947 3857 1114 4076 1485 4076 
C 2240 4076 2240 2909 2240 2651 
C 2240 2193 2035 1510 1427 1510 
z
" transform="scale(0.015625)"/>
       </defs>
       <use xlink:href="#CMR17-30" transform="scale(0.996264)"/>
       <use xlink:href="#CMMI12-3a" transform="translate(45.690477 0) scale(0.996264)"/>
       <use xlink:href="#CMR17-30" transform="translate(72.787654 0) scale(0.996264)"/>
       <use xlink:href="#CMR17-39" transform="translate(118.478131 0) scale(0.996264)"/>
      </g>
     </g>
    </g>
    <g id="xtick_6">
     <g id="line2d_6">
      <g>
       <use xlink:href="#m106c95b92a" x="307.432284" y="173.52" style="fill: #ffffff; stroke: #ffffff; stroke-width: 0.8"/>
      </g>
     </g>
     <g id="text_6">
      <!-- $\mathdefault{0.10}$ -->
      <g style="fill: #ffffff" transform="translate(297.691013 188.130347) scale(0.11 -0.11)">
       <defs>
        <path id="CMR17-31" d="M 1702 4083 
C 1702 4217 1696 4224 1606 4224 
C 1357 3927 979 3833 621 3820 
C 602 3820 570 3820 563 3808 
C 557 3795 557 3782 557 3648 
C 755 3648 1088 3686 1344 3839 
L 1344 467 
C 1344 243 1331 166 781 166 
L 589 166 
L 589 0 
C 896 6 1216 12 1523 12 
C 1830 12 2150 6 2458 0 
L 2458 166 
L 2266 166 
C 1715 166 1702 236 1702 467 
L 1702 4083 
z
" transform="scale(0.015625)"/>
       </defs>
       <use xlink:href="#CMR17-30" transform="scale(0.996264)"/>
       <use xlink:href="#CMMI12-3a" transform="translate(45.690477 0) scale(0.996264)"/>
       <use xlink:href="#CMR17-31" transform="translate(72.787654 0) scale(0.996264)"/>
       <use xlink:href="#CMR17-30" transform="translate(118.478131 0) scale(0.996264)"/>
      </g>
     </g>
    </g>
    <g id="text_7">
     <!-- $e_{\mathrm{eob}}$ at $f_{\mathrm{ref}}$ = 20 Hz -->
     <g style="fill: #ffffff" transform="translate(131.308946 202.563421) scale(0.12 -0.12)">
      <defs>
       <path id="CMMI12-65" d="M 1146 1472 
C 1318 1472 1754 1484 2061 1600 
C 2547 1786 2592 2160 2592 2275 
C 2592 2559 2349 2816 1926 2816 
C 1254 2816 288 2205 288 1066 
C 288 400 672 -64 1254 -64 
C 2125 -64 2675 609 2675 691 
C 2675 729 2637 761 2611 761 
C 2592 761 2586 755 2528 698 
C 2118 159 1510 64 1267 64 
C 902 64 710 349 710 818 
C 710 907 710 1066 806 1472 
L 1146 1472 
z
M 838 1600 
C 1114 2591 1722 2687 1926 2687 
C 2208 2687 2400 2520 2400 2275 
C 2400 1600 1376 1600 1107 1600 
L 838 1600 
z
" transform="scale(0.015625)"/>
       <path id="CMR17-65" d="M 2438 1503 
C 2464 1529 2464 1542 2464 1606 
C 2464 2251 2118 2816 1389 2816 
C 710 2816 173 2175 173 1394 
C 173 554 781 -64 1459 -64 
C 2176 -64 2458 619 2458 755 
C 2458 800 2419 800 2406 800 
C 2362 800 2355 787 2330 709 
C 2189 270 1837 51 1504 51 
C 1229 51 954 206 781 490 
C 582 819 582 1200 582 1503 
L 2438 1503 
z
M 589 1600 
C 634 2511 1126 2713 1382 2713 
C 1818 2713 2112 2308 2118 1600 
L 589 1600 
z
" transform="scale(0.015625)"/>
       <path id="CMR17-6f" d="M 2758 1356 
C 2758 2176 2163 2816 1466 2816 
C 768 2816 173 2176 173 1356 
C 173 550 768 -64 1466 -64 
C 2163 -64 2758 550 2758 1356 
z
M 1466 51 
C 1165 51 909 230 762 480 
C 602 768 582 1126 582 1408 
C 582 1676 595 2009 762 2297 
C 890 2508 1139 2713 1466 2713 
C 1754 2713 1997 2553 2150 2329 
C 2349 2028 2349 1606 2349 1408 
C 2349 1158 2336 774 2163 467 
C 1984 172 1709 51 1466 51 
z
" transform="scale(0.015625)"/>
       <path id="CMR17-62" d="M 960 4416 
L 198 4345 
L 198 4179 
C 576 4179 634 4141 634 3843 
L 634 -13 
L 749 -13 
L 934 445 
C 1120 141 1395 -64 1766 -64 
C 2406 -64 3053 503 3053 1382 
C 3053 2209 2477 2816 1830 2816 
C 1434 2816 1152 2603 960 2351 
L 960 4416 
z
M 973 2022 
C 973 2138 973 2157 1062 2293 
C 1312 2681 1670 2713 1792 2713 
C 1984 2713 2643 2610 2643 1388 
C 2643 109 1888 38 1734 38 
C 1536 38 1248 115 1043 490 
C 973 613 973 626 973 742 
L 973 2022 
z
" transform="scale(0.015625)"/>
       <path id="CMSS17-61" d="M 2406 1789 
C 2406 2399 1978 2816 1402 2816 
C 1120 2816 813 2764 461 2559 
L 499 2133 
C 659 2250 934 2438 1395 2438 
C 1722 2438 1920 2185 1920 1782 
L 1920 1536 
C 896 1504 256 1209 256 711 
C 256 452 416 -64 947 -64 
C 1043 -64 1562 -52 1933 224 
L 1933 -13 
L 2406 -13 
L 2406 1789 
z
M 1920 824 
C 1920 711 1920 559 1728 446 
C 1562 339 1350 326 1261 326 
C 941 326 723 503 723 723 
C 723 1165 1722 1209 1920 1216 
L 1920 824 
z
" transform="scale(0.015625)"/>
       <path id="CMSS17-74" d="M 1069 2380 
L 1901 2380 
L 1901 2752 
L 1069 2752 
L 1069 3520 
L 614 3520 
L 614 2752 
L 109 2752 
L 109 2380 
L 602 2380 
L 602 751 
C 602 384 685 -64 1107 -64 
C 1427 -64 1722 25 2003 172 
L 1901 551 
C 1747 416 1562 339 1363 339 
C 1082 339 1069 699 1069 860 
L 1069 2380 
z
" transform="scale(0.015625)"/>
       <path id="CMMI12-66" d="M 2854 2566 
C 2982 2566 3034 2566 3034 2687 
C 3034 2752 2982 2752 2867 2752 
L 2349 2752 
C 2470 3398 2560 3846 2611 4051 
C 2650 4204 2784 4351 2950 4351 
C 3085 4351 3219 4294 3283 4236 
C 3034 4211 2957 4025 2957 3916 
C 2957 3788 3053 3712 3174 3712 
C 3302 3712 3494 3820 3494 4064 
C 3494 4332 3226 4480 2944 4480 
C 2669 4480 2400 4275 2272 4025 
C 2157 3801 2093 3573 1946 2752 
L 1517 2752 
C 1395 2752 1331 2752 1331 2636 
C 1331 2566 1370 2566 1498 2566 
L 1907 2566 
C 1792 1977 1530 545 1382 -132 
C 1274 -685 1178 -1152 858 -1152 
C 838 -1152 653 -1152 538 -1031 
C 864 -1005 864 -724 864 -717 
C 864 -589 768 -512 646 -512 
C 518 -512 326 -621 326 -865 
C 326 -1140 608 -1280 858 -1280 
C 1510 -1280 1779 -113 1850 203 
C 1965 691 2278 2376 2310 2566 
L 2854 2566 
z
" transform="scale(0.015625)"/>
       <path id="CMR17-72" d="M 960 1517 
C 960 2134 1222 2713 1702 2713 
C 1747 2713 1792 2707 1837 2687 
C 1837 2687 1696 2642 1696 2475 
C 1696 2321 1818 2257 1914 2257 
C 1990 2257 2131 2302 2131 2482 
C 2131 2687 1926 2816 1709 2816 
C 1222 2816 1011 2340 947 2115 
L 941 2115 
L 941 2816 
L 198 2745 
L 198 2578 
C 576 2578 634 2540 634 2231 
L 634 443 
C 634 198 608 166 198 166 
L 198 0 
C 352 12 646 12 813 12 
C 998 12 1325 12 1498 0 
L 1498 166 
C 1037 166 960 166 960 455 
L 960 1517 
z
" transform="scale(0.015625)"/>
       <path id="CMR17-66" d="M 979 2585 
L 1709 2585 
L 1709 2752 
L 966 2752 
L 966 3539 
C 966 4076 1235 4377 1510 4377 
C 1594 4377 1690 4363 1754 4339 
C 1702 4326 1568 4281 1568 4121 
C 1568 3955 1696 3904 1786 3904 
C 1875 3904 2003 3955 2003 4121 
C 2003 4353 1773 4480 1517 4480 
C 1152 4480 653 4211 653 3526 
L 653 2752 
L 141 2752 
L 141 2585 
L 653 2585 
L 653 441 
C 653 198 627 166 218 166 
L 218 0 
C 371 12 666 12 832 12 
C 1018 12 1344 12 1517 0 
L 1517 166 
C 1056 166 979 166 979 454 
L 979 2585 
z
" transform="scale(0.015625)"/>
       <path id="CMSS17-3d" d="M 4147 2048 
C 4243 2048 4339 2048 4339 2156 
C 4339 2272 4230 2272 4122 2272 
L 550 2272 
C 442 2272 333 2272 333 2156 
C 333 2048 429 2048 525 2048 
L 4147 2048 
z
M 4122 927 
C 4230 927 4339 927 4339 1043 
C 4339 1152 4243 1152 4147 1152 
L 525 1152 
C 429 1152 333 1152 333 1043 
C 333 927 442 927 550 927 
L 4122 927 
z
" transform="scale(0.015625)"/>
       <path id="CMSS17-32" d="M 1651 1353 
C 1830 1538 2099 1761 2285 1984 
C 2464 2201 2701 2507 2701 2953 
C 2701 3655 2227 4288 1421 4288 
C 787 4288 422 3891 250 3272 
L 499 2928 
C 640 3508 838 3878 1338 3878 
C 1888 3878 2195 3431 2195 2940 
C 2195 2354 1747 1901 1408 1563 
C 1030 1187 659 805 301 409 
L 301 0 
L 2701 0 
L 2701 435 
L 1613 435 
C 1536 435 1459 428 1382 428 
L 742 428 
L 742 435 
L 1651 1353 
z
" transform="scale(0.015625)"/>
       <path id="CMSS17-30" d="M 2758 2073 
C 2758 2439 2752 3120 2490 3647 
C 2227 4153 1805 4288 1504 4288 
C 1069 4288 698 4031 506 3621 
C 301 3191 243 2748 243 2073 
C 243 1611 262 1046 493 551 
C 755 6 1197 -128 1498 -128 
C 1894 -128 2278 83 2496 525 
C 2720 988 2758 1495 2758 2073 
z
M 1498 262 
C 1011 262 864 821 819 1007 
C 742 1328 730 1636 730 2144 
C 730 2542 730 2992 851 3345 
C 998 3756 1254 3897 1498 3897 
C 1971 3897 2125 3422 2176 3255 
C 2272 2915 2272 2516 2272 2144 
C 2272 1546 2272 262 1498 262 
z
" transform="scale(0.015625)"/>
       <path id="CMSS17-48" d="M 3674 4416 
L 3136 4416 
L 3136 2496 
L 1101 2496 
L 1101 4416 
L 563 4416 
L 563 0 
L 1101 0 
L 1101 2105 
L 3136 2105 
L 3136 0 
L 3674 0 
L 3674 4416 
z
" transform="scale(0.015625)"/>
       <path id="CMSS17-7a" d="M 2400 2502 
L 2400 2752 
L 250 2752 
L 250 2367 
L 1069 2367 
C 1146 2367 1222 2374 1299 2374 
L 1747 2374 
L 166 262 
L 166 0 
L 2419 0 
L 2419 396 
L 1549 396 
C 1472 396 1395 390 1318 390 
L 826 390 
L 2400 2502 
z
" transform="scale(0.015625)"/>
      </defs>
      <use xlink:href="#CMMI12-65" transform="scale(0.996264)"/>
      <use xlink:href="#CMR17-65" transform="translate(45.212001 -14.943915) scale(0.697382)"/>
      <use xlink:href="#CMR17-6f" transform="translate(73.551833 -14.943915) scale(0.697382)"/>
      <use xlink:href="#CMR17-62" transform="translate(105.535015 -14.943915) scale(0.697382)"/>
      <use xlink:href="#CMSS17-61" transform="translate(172.888868 0) scale(0.996264)"/>
      <use xlink:href="#CMSS17-74" transform="translate(217.810788 0) scale(0.996264)"/>
      <use xlink:href="#CMMI12-66" transform="translate(282.871468 0) scale(0.996264)"/>
      <use xlink:href="#CMR17-72" transform="translate(330.954705 -14.943915) scale(0.697382)"/>
      <use xlink:href="#CMR17-65" transform="translate(355.651126 -14.943915) scale(0.697382)"/>
      <use xlink:href="#CMR17-66" transform="translate(383.990957 -14.943915) scale(0.697382)"/>
      <use xlink:href="#CMSS17-3d" transform="translate(439.083402 0) scale(0.996264)"/>
      <use xlink:href="#CMSS17-32" transform="translate(543.18045 0) scale(0.996264)"/>
      <use xlink:href="#CMSS17-30" transform="translate(590.024074 0) scale(0.996264)"/>
      <use xlink:href="#CMSS17-48" transform="translate(668.09681 0) scale(0.996264)"/>
      <use xlink:href="#CMSS17-7a" transform="translate(734.158329 0) scale(0.996264)"/>
     </g>
    </g>
   </g>
   <g id="matplotlib.axis_2">
    <g id="ytick_1">
     <g id="line2d_7">
      <defs>
       <path id="m8301f9684a" d="M 0 0 
L -3.5 0 
" style="stroke: #ffffff; stroke-width: 0.8"/>
      </defs>
      <g>
       <use xlink:href="#m8301f9684a" x="41.114103" y="166.323392" style="fill: #ffffff; stroke: #ffffff; stroke-width: 0.8"/>
      </g>
     </g>
     <g id="text_8">
      <!-- $\mathdefault{0}$ -->
      <g style="fill: #ffffff" transform="translate(28.634635 170.128565) scale(0.11 -0.11)">
       <use xlink:href="#CMR17-30" transform="scale(0.996264)"/>
      </g>
     </g>
    </g>
    <g id="ytick_2">
     <g id="line2d_8">
      <g>
       <use xlink:href="#m8301f9684a" x="41.114103" y="133.852537" style="fill: #ffffff; stroke: #ffffff; stroke-width: 0.8"/>
      </g>
     </g>
     <g id="text_9">
      <!-- $\mathdefault{20}$ -->
      <g style="fill: #ffffff" transform="translate(23.155168 137.65771) scale(0.11 -0.11)">
       <defs>
        <path id="CMR17-32" d="M 2669 990 
L 2554 990 
C 2490 537 2438 460 2413 422 
C 2381 371 1920 371 1830 371 
L 602 371 
C 832 620 1280 1073 1824 1596 
C 2214 1966 2669 2400 2669 3033 
C 2669 3788 2067 4224 1395 4224 
C 691 4224 262 3603 262 3027 
C 262 2777 448 2745 525 2745 
C 589 2745 781 2783 781 3007 
C 781 3206 614 3264 525 3264 
C 486 3264 448 3257 422 3244 
C 544 3788 915 4057 1306 4057 
C 1862 4057 2227 3616 2227 3033 
C 2227 2477 1901 1998 1536 1583 
L 262 147 
L 262 0 
L 2515 0 
L 2669 990 
z
" transform="scale(0.015625)"/>
       </defs>
       <use xlink:href="#CMR17-32" transform="scale(0.996264)"/>
       <use xlink:href="#CMR17-30" transform="translate(45.690477 0) scale(0.996264)"/>
      </g>
     </g>
    </g>
    <g id="ytick_3">
     <g id="line2d_9">
      <g>
       <use xlink:href="#m8301f9684a" x="41.114103" y="101.381682" style="fill: #ffffff; stroke: #ffffff; stroke-width: 0.8"/>
      </g>
     </g>
     <g id="text_10">
      <!-- $\mathdefault{40}$ -->
      <g style="fill: #ffffff" transform="translate(23.155168 105.186855) scale(0.11 -0.11)">
       <defs>
        <path id="CMR17-34" d="M 2150 4147 
C 2150 4281 2144 4288 2029 4288 
L 128 1254 
L 128 1088 
L 1779 1088 
L 1779 460 
C 1779 230 1766 166 1318 166 
L 1197 166 
L 1197 0 
C 1402 12 1747 12 1965 12 
C 2182 12 2528 12 2733 0 
L 2733 166 
L 2611 166 
C 2163 166 2150 230 2150 460 
L 2150 1088 
L 2803 1088 
L 2803 1254 
L 2150 1254 
L 2150 4147 
z
M 1798 3723 
L 1798 1254 
L 256 1254 
L 1798 3723 
z
" transform="scale(0.015625)"/>
       </defs>
       <use xlink:href="#CMR17-34" transform="scale(0.996264)"/>
       <use xlink:href="#CMR17-30" transform="translate(45.690477 0) scale(0.996264)"/>
      </g>
     </g>
    </g>
    <g id="ytick_4">
     <g id="line2d_10">
      <g>
       <use xlink:href="#m8301f9684a" x="41.114103" y="68.910827" style="fill: #ffffff; stroke: #ffffff; stroke-width: 0.8"/>
      </g>
     </g>
     <g id="text_11">
      <!-- $\mathdefault{60}$ -->
      <g style="fill: #ffffff" transform="translate(23.155168 72.716001) scale(0.11 -0.11)">
       <use xlink:href="#CMR17-36" transform="scale(0.996264)"/>
       <use xlink:href="#CMR17-30" transform="translate(45.690477 0) scale(0.996264)"/>
      </g>
     </g>
    </g>
    <g id="ytick_5">
     <g id="line2d_11">
      <g>
       <use xlink:href="#m8301f9684a" x="41.114103" y="36.439972" style="fill: #ffffff; stroke: #ffffff; stroke-width: 0.8"/>
      </g>
     </g>
     <g id="text_12">
      <!-- $\mathdefault{80}$ -->
      <g style="fill: #ffffff" transform="translate(23.155168 40.245146) scale(0.11 -0.11)">
       <use xlink:href="#CMR17-38" transform="scale(0.996264)"/>
       <use xlink:href="#CMR17-30" transform="translate(45.690477 0) scale(0.996264)"/>
      </g>
     </g>
    </g>
    <g id="text_13">
     <!-- GR Quantile ($\%$) -->
     <g style="fill: #ffffff" transform="translate(16.166376 131.953528) rotate(-90) scale(0.12 -0.12)">
      <defs>
       <path id="CMSS17-47" d="M 3610 1868 
L 2336 1868 
L 2336 1472 
L 3123 1472 
L 3123 473 
C 2874 403 2618 352 2362 352 
C 1466 352 934 1311 934 2220 
C 934 3123 1491 4070 2362 4070 
C 2854 4070 3130 3916 3469 3660 
L 3552 4172 
C 3130 4390 2867 4480 2387 4480 
C 1146 4480 397 3353 397 2201 
C 397 1100 1152 -64 2349 -64 
C 2797 -64 3213 51 3610 249 
L 3610 1868 
z
" transform="scale(0.015625)"/>
       <path id="CMSS17-52" d="M 2522 2099 
L 2534 2105 
C 3533 2450 3539 3125 3539 3244 
C 3539 3838 2925 4416 2003 4416 
L 570 4416 
L 570 0 
L 1094 0 
L 1094 2041 
L 2035 2041 
L 3168 0 
L 3706 0 
L 2522 2099 
z
M 1094 2432 
L 1094 4057 
L 1933 4057 
C 2746 4057 3034 3607 3034 3244 
C 3034 2907 2778 2432 1933 2432 
L 1094 2432 
z
" transform="scale(0.015625)"/>
       <path id="CMSS17-51" d="M 3200 211 
C 3981 848 4096 1711 4096 2201 
C 4096 3541 3219 4544 2214 4544 
C 1210 4544 333 3535 333 2201 
C 333 855 1222 -128 2214 -128 
C 2438 -128 2630 -77 2765 -26 
L 3302 -832 
L 3930 -832 
L 3200 211 
z
M 2528 326 
C 2438 294 2330 275 2214 275 
C 1523 275 858 1003 858 2201 
C 858 3393 1517 4140 2214 4140 
C 2918 4140 3571 3386 3571 2201 
C 3571 1789 3507 1099 2950 571 
L 2490 1222 
L 1939 1222 
L 2528 326 
z
" transform="scale(0.015625)"/>
       <path id="CMSS17-75" d="M 2618 2752 
L 2131 2752 
L 2131 976 
C 2131 500 1786 307 1421 307 
C 998 307 960 448 960 712 
L 960 2752 
L 474 2752 
L 474 680 
C 474 179 646 -64 1088 -64 
C 1306 -64 1798 -13 2144 307 
L 2144 -13 
L 2618 -13 
L 2618 2752 
z
" transform="scale(0.015625)"/>
       <path id="CMSS17-6e" d="M 2618 1878 
C 2618 2283 2522 2816 1798 2816 
C 1389 2816 1120 2604 941 2386 
L 941 2783 
L 474 2783 
L 474 0 
L 960 0 
L 960 1556 
C 960 1962 1114 2425 1549 2425 
C 2112 2425 2131 2045 2131 1826 
L 2131 0 
L 2618 0 
L 2618 1878 
z
" transform="scale(0.015625)"/>
       <path id="CMSS17-69" d="M 979 4224 
L 442 4224 
L 442 3686 
L 979 3686 
L 979 4224 
z
M 947 2752 
L 474 2752 
L 474 0 
L 947 0 
L 947 2752 
z
" transform="scale(0.015625)"/>
       <path id="CMSS17-6c" d="M 947 4416 
L 474 4416 
L 474 0 
L 947 0 
L 947 4416 
z
" transform="scale(0.015625)"/>
       <path id="CMSS17-65" d="M 2502 1375 
C 2502 1587 2490 2001 2285 2347 
C 2061 2713 1696 2816 1421 2816 
C 755 2816 192 2184 192 1363 
C 192 579 774 -64 1510 -64 
C 1798 -64 2150 19 2470 249 
C 2470 275 2458 414 2451 421 
C 2451 433 2432 629 2432 655 
C 2125 408 1773 326 1517 326 
C 1107 326 666 667 646 1375 
L 2502 1375 
z
M 698 1728 
C 781 2086 1062 2425 1421 2425 
C 1517 2425 1965 2412 2080 1728 
L 698 1728 
z
" transform="scale(0.015625)"/>
       <path id="CMSS17-28" d="M 1613 4800 
C 1267 4447 474 3627 474 1603 
C 474 -428 1267 -1242 1613 -1600 
L 2003 -1600 
C 1216 -781 960 366 960 1596 
C 960 2820 1203 3973 2003 4800 
L 1613 4800 
z
" transform="scale(0.015625)"/>
       <path id="CMR17-25" d="M 4640 928 
C 4640 1670 4275 2214 3846 2214 
C 3411 2214 2970 1708 2970 928 
C 2970 147 3405 -359 3846 -359 
C 4275 -359 4640 179 4640 928 
z
M 3853 -256 
C 3686 -256 3270 -103 3270 928 
C 3270 1964 3686 2112 3853 2112 
C 4205 2112 4525 1606 4525 928 
C 4525 249 4205 -256 3853 -256 
z
M 4083 4572 
C 4128 4644 4134 4651 4134 4684 
C 4134 4761 4077 4800 4026 4800 
C 3962 4800 3936 4755 3891 4703 
C 3520 4155 3008 4096 2746 4096 
C 2106 4096 1715 4479 1594 4598 
C 1510 4677 1389 4800 1171 4800 
C 736 4800 294 4281 294 3496 
C 294 2718 730 2214 1171 2214 
C 1600 2214 1965 2750 1965 3496 
C 1965 3936 1830 4241 1811 4281 
C 2202 4025 2586 3993 2752 3993 
C 3162 3993 3456 4148 3616 4261 
L 3622 4254 
L 858 -122 
C 800 -212 800 -224 800 -244 
C 800 -314 858 -359 915 -359 
C 973 -359 992 -327 1037 -256 
L 4083 4572 
z
M 1178 2316 
C 1011 2316 595 2469 595 3496 
C 595 4545 1011 4697 1178 4697 
C 1530 4697 1850 4175 1850 3496 
C 1850 2820 1530 2316 1178 2316 
z
" transform="scale(0.015625)"/>
       <path id="CMSS17-29" d="M 723 -1600 
C 1069 -1248 1862 -428 1862 1596 
C 1862 3627 1069 4440 723 4800 
L 333 4800 
C 1120 3979 1376 2833 1376 1603 
C 1376 379 1133 -774 333 -1600 
L 723 -1600 
z
" transform="scale(0.015625)"/>
      </defs>
      <use xlink:href="#CMSS17-47" transform="scale(0.996264)"/>
      <use xlink:href="#CMSS17-52" transform="translate(62.458226 0) scale(0.996264)"/>
      <use xlink:href="#CMSS17-51" transform="translate(154.103493 0) scale(0.996264)"/>
      <use xlink:href="#CMSS17-75" transform="translate(223.127748 0) scale(0.996264)"/>
      <use xlink:href="#CMSS17-61" transform="translate(271.332692 0) scale(0.996264)"/>
      <use xlink:href="#CMSS17-6e" transform="translate(316.254612 0) scale(0.996264)"/>
      <use xlink:href="#CMSS17-74" transform="translate(364.459555 0) scale(0.996264)"/>
      <use xlink:href="#CMSS17-69" transform="translate(398.291122 0) scale(0.996264)"/>
      <use xlink:href="#CMSS17-6c" transform="translate(420.471845 0) scale(0.996264)"/>
      <use xlink:href="#CMSS17-65" transform="translate(442.652568 0) scale(0.996264)"/>
      <use xlink:href="#CMSS17-28" transform="translate(515.520503 0) scale(0.996264)"/>
      <use xlink:href="#CMR17-25" transform="translate(551.954417 0) scale(0.996264)"/>
      <use xlink:href="#CMSS17-29" transform="translate(628.874007 0) scale(0.996264)"/>
     </g>
    </g>
   </g>
   <g id="line2d_12">
    <path d="M 53.795921 99.261292 
L 104.523194 89.2127 
L 155.250466 47.745975 
L 205.977739 47.233879 
L 256.705012 37.638351 
L 307.432284 28.950796 
" clip-path="url(#p2a1315889b)" style="fill: none; stroke: #61afef; stroke-width: 1.5; stroke-linecap: square"/>
    <defs>
     <path id="m52531e5701" d="M 0 3 
C 0.795609 3 1.55874 2.683901 2.12132 2.12132 
C 2.683901 1.55874 3 0.795609 3 0 
C 3 -0.795609 2.683901 -1.55874 2.12132 -2.12132 
C 1.55874 -2.683901 0.795609 -3 0 -3 
C -0.795609 -3 -1.55874 -2.683901 -2.12132 -2.12132 
C -2.683901 -1.55874 -3 -0.795609 -3 0 
C -3 0.795609 -2.683901 1.55874 -2.12132 2.12132 
C -1.55874 2.683901 -0.795609 3 0 3 
z
" style="stroke: #61afef"/>
    </defs>
    <g clip-path="url(#p2a1315889b)">
     <use xlink:href="#m52531e5701" x="53.795921" y="99.261292" style="fill-opacity: 0; stroke: #61afef"/>
     <use xlink:href="#m52531e5701" x="104.523194" y="89.2127" style="fill-opacity: 0; stroke: #61afef"/>
     <use xlink:href="#m52531e5701" x="155.250466" y="47.745975" style="fill-opacity: 0; stroke: #61afef"/>
     <use xlink:href="#m52531e5701" x="205.977739" y="47.233879" style="fill-opacity: 0; stroke: #61afef"/>
     <use xlink:href="#m52531e5701" x="256.705012" y="37.638351" style="fill-opacity: 0; stroke: #61afef"/>
     <use xlink:href="#m52531e5701" x="307.432284" y="28.950796" style="fill-opacity: 0; stroke: #61afef"/>
    </g>
   </g>
   <g id="line2d_13">
    <path d="M 53.795921 150.075004 
L 104.523194 153.192696 
L 155.250466 155.679631 
L 205.977739 150.746553 
L 256.705012 151.227659 
L 307.432284 154.447397 
" clip-path="url(#p2a1315889b)" style="fill: none; stroke: #61afef; stroke-width: 1.5; stroke-linecap: square"/>
    <defs>
     <path id="me1aa6bb13f" d="M 5 0 
L 4.998802 -0.045486 
L 4.995186 -0.091165 
L 4.989084 -0.137231 
L 4.980381 -0.183884 
L 4.968911 -0.231335 
L 4.954445 -0.279806 
L 4.93669 -0.329533 
L 4.915269 -0.380775 
L 4.889708 -0.433813 
L 4.859411 -0.488958 
L 4.823634 -0.546555 
L 4.78144 -0.60699 
L 4.73165 -0.670695 
L 4.672769 -0.738154 
L 4.602889 -0.809911 
L 4.519556 -0.886567 
L 4.419584 -0.968777 
L 4.298798 -1.057236 
L 4.151676 -1.152629 
L 3.970845 -1.255544 
L 3.746384 -1.366287 
L 3.464872 -1.484529 
L 3.108167 -1.608631 
L 2.652045 -1.73439 
L 2.065278 -1.852747 
L 1.311014 -1.945828 
L 0.35521 -1.980845 
L -0.808085 -1.903343 
L -2.102479 -1.638087 
L -3.298037 -1.118063 
L -4.016794 -0.356332 
L -3.945866 0.49652 
L -3.11912 1.224383 
L -1.883184 1.699198 
L -0.599677 1.927293 
L 0.530923 1.981038 
L 1.451161 1.933107 
L 2.174613 1.833979 
L 2.736939 1.713432 
L 3.174354 1.587489 
L 3.516903 1.46417 
L 3.7877 1.347121 
L 4.003995 1.237694 
L 4.178543 1.136076 
L 4.320779 1.041895 
L 4.437721 0.954536 
L 4.534635 0.873307 
L 4.615505 0.79752 
L 4.683381 0.726526 
L 4.740612 0.659734 
L 4.78903 0.596612 
L 4.83007 0.536683 
L 4.864866 0.479524 
L 4.894319 0.424757 
L 4.919146 0.372041 
L 4.939921 0.321073 
L 4.957099 0.271574 
L 4.971042 0.223291 
L 4.982033 0.17599 
L 4.990288 0.129449 
L 4.995965 0.083463 
z
" style="stroke: #61afef"/>
    </defs>
    <g clip-path="url(#p2a1315889b)">
     <use xlink:href="#me1aa6bb13f" x="53.795921" y="150.075004" style="fill-opacity: 0; stroke: #61afef"/>
     <use xlink:href="#me1aa6bb13f" x="104.523194" y="153.192696" style="fill-opacity: 0; stroke: #61afef"/>
     <use xlink:href="#me1aa6bb13f" x="155.250466" y="155.679631" style="fill-opacity: 0; stroke: #61afef"/>
     <use xlink:href="#me1aa6bb13f" x="205.977739" y="150.746553" style="fill-opacity: 0; stroke: #61afef"/>
     <use xlink:href="#me1aa6bb13f" x="256.705012" y="151.227659" style="fill-opacity: 0; stroke: #61afef"/>
     <use xlink:href="#me1aa6bb13f" x="307.432284" y="154.447397" style="fill-opacity: 0; stroke: #61afef"/>
    </g>
   </g>
   <g id="line2d_14">
    <path d="M 53.795921 116.630862 
L 104.523194 105.675546 
L 155.250466 91.848802 
L 205.977739 65.960339 
L 256.705012 24.420425 
L 307.432284 14.76 
" clip-path="url(#p2a1315889b)" style="fill: none; stroke: #e5c07b; stroke-width: 1.5; stroke-linecap: square"/>
    <defs>
     <path id="m3cdae3f8c5" d="M 0 3 
C 0.795609 3 1.55874 2.683901 2.12132 2.12132 
C 2.683901 1.55874 3 0.795609 3 0 
C 3 -0.795609 2.683901 -1.55874 2.12132 -2.12132 
C 1.55874 -2.683901 0.795609 -3 0 -3 
C -0.795609 -3 -1.55874 -2.683901 -2.12132 -2.12132 
C -2.683901 -1.55874 -3 -0.795609 -3 0 
C -3 0.795609 -2.683901 1.55874 -2.12132 2.12132 
C -1.55874 2.683901 -0.795609 3 0 3 
z
" style="stroke: #e5c07b"/>
    </defs>
    <g clip-path="url(#p2a1315889b)">
     <use xlink:href="#m3cdae3f8c5" x="53.795921" y="116.630862" style="fill-opacity: 0; stroke: #e5c07b"/>
     <use xlink:href="#m3cdae3f8c5" x="104.523194" y="105.675546" style="fill-opacity: 0; stroke: #e5c07b"/>
     <use xlink:href="#m3cdae3f8c5" x="155.250466" y="91.848802" style="fill-opacity: 0; stroke: #e5c07b"/>
     <use xlink:href="#m3cdae3f8c5" x="205.977739" y="65.960339" style="fill-opacity: 0; stroke: #e5c07b"/>
     <use xlink:href="#m3cdae3f8c5" x="256.705012" y="24.420425" style="fill-opacity: 0; stroke: #e5c07b"/>
     <use xlink:href="#m3cdae3f8c5" x="307.432284" y="14.76" style="fill-opacity: 0; stroke: #e5c07b"/>
    </g>
   </g>
   <g id="line2d_15">
    <path d="M 53.795921 164.104515 
L 104.523194 164.766924 
L 155.250466 164.712486 
L 205.977739 164.712346 
L 256.705012 160.46114 
L 307.432284 165.449427 
" clip-path="url(#p2a1315889b)" style="fill: none; stroke: #e5c07b; stroke-width: 1.5; stroke-linecap: square"/>
    <defs>
     <path id="mcf52e32e87" d="M 5 0 
L 4.998802 -0.045486 
L 4.995186 -0.091165 
L 4.989084 -0.137231 
L 4.980381 -0.183884 
L 4.968911 -0.231335 
L 4.954445 -0.279806 
L 4.93669 -0.329533 
L 4.915269 -0.380775 
L 4.889708 -0.433813 
L 4.859411 -0.488958 
L 4.823634 -0.546555 
L 4.78144 -0.60699 
L 4.73165 -0.670695 
L 4.672769 -0.738154 
L 4.602889 -0.809911 
L 4.519556 -0.886567 
L 4.419584 -0.968777 
L 4.298798 -1.057236 
L 4.151676 -1.152629 
L 3.970845 -1.255544 
L 3.746384 -1.366287 
L 3.464872 -1.484529 
L 3.108167 -1.608631 
L 2.652045 -1.73439 
L 2.065278 -1.852747 
L 1.311014 -1.945828 
L 0.35521 -1.980845 
L -0.808085 -1.903343 
L -2.102479 -1.638087 
L -3.298037 -1.118063 
L -4.016794 -0.356332 
L -3.945866 0.49652 
L -3.11912 1.224383 
L -1.883184 1.699198 
L -0.599677 1.927293 
L 0.530923 1.981038 
L 1.451161 1.933107 
L 2.174613 1.833979 
L 2.736939 1.713432 
L 3.174354 1.587489 
L 3.516903 1.46417 
L 3.7877 1.347121 
L 4.003995 1.237694 
L 4.178543 1.136076 
L 4.320779 1.041895 
L 4.437721 0.954536 
L 4.534635 0.873307 
L 4.615505 0.79752 
L 4.683381 0.726526 
L 4.740612 0.659734 
L 4.78903 0.596612 
L 4.83007 0.536683 
L 4.864866 0.479524 
L 4.894319 0.424757 
L 4.919146 0.372041 
L 4.939921 0.321073 
L 4.957099 0.271574 
L 4.971042 0.223291 
L 4.982033 0.17599 
L 4.990288 0.129449 
L 4.995965 0.083463 
z
" style="stroke: #e5c07b"/>
    </defs>
    <g clip-path="url(#p2a1315889b)">
     <use xlink:href="#mcf52e32e87" x="53.795921" y="164.104515" style="fill-opacity: 0; stroke: #e5c07b"/>
     <use xlink:href="#mcf52e32e87" x="104.523194" y="164.766924" style="fill-opacity: 0; stroke: #e5c07b"/>
     <use xlink:href="#mcf52e32e87" x="155.250466" y="164.712486" style="fill-opacity: 0; stroke: #e5c07b"/>
     <use xlink:href="#mcf52e32e87" x="205.977739" y="164.712346" style="fill-opacity: 0; stroke: #e5c07b"/>
     <use xlink:href="#mcf52e32e87" x="256.705012" y="160.46114" style="fill-opacity: 0; stroke: #e5c07b"/>
     <use xlink:href="#mcf52e32e87" x="307.432284" y="165.449427" style="fill-opacity: 0; stroke: #e5c07b"/>
    </g>
   </g>
   <g id="line2d_16">
    <path d="M 53.795921 118.078595 
L 104.523194 86.124783 
L 155.250466 69.357635 
L 205.977739 50.204782 
L 256.705012 32.716294 
L 307.432284 25.690471 
" clip-path="url(#p2a1315889b)" style="fill: none; stroke: #98c379; stroke-width: 1.5; stroke-linecap: square"/>
    <defs>
     <path id="m420d8f28b5" d="M 0 3 
C 0.795609 3 1.55874 2.683901 2.12132 2.12132 
C 2.683901 1.55874 3 0.795609 3 0 
C 3 -0.795609 2.683901 -1.55874 2.12132 -2.12132 
C 1.55874 -2.683901 0.795609 -3 0 -3 
C -0.795609 -3 -1.55874 -2.683901 -2.12132 -2.12132 
C -2.683901 -1.55874 -3 -0.795609 -3 0 
C -3 0.795609 -2.683901 1.55874 -2.12132 2.12132 
C -1.55874 2.683901 -0.795609 3 0 3 
z
" style="stroke: #98c379"/>
    </defs>
    <g clip-path="url(#p2a1315889b)">
     <use xlink:href="#m420d8f28b5" x="53.795921" y="118.078595" style="fill-opacity: 0; stroke: #98c379"/>
     <use xlink:href="#m420d8f28b5" x="104.523194" y="86.124783" style="fill-opacity: 0; stroke: #98c379"/>
     <use xlink:href="#m420d8f28b5" x="155.250466" y="69.357635" style="fill-opacity: 0; stroke: #98c379"/>
     <use xlink:href="#m420d8f28b5" x="205.977739" y="50.204782" style="fill-opacity: 0; stroke: #98c379"/>
     <use xlink:href="#m420d8f28b5" x="256.705012" y="32.716294" style="fill-opacity: 0; stroke: #98c379"/>
     <use xlink:href="#m420d8f28b5" x="307.432284" y="25.690471" style="fill-opacity: 0; stroke: #98c379"/>
    </g>
   </g>
   <g id="line2d_17">
    <path d="M 53.795921 165.96 
L 104.523194 164.948216 
L 155.250466 165.643594 
L 205.977739 164.933459 
L 256.705012 165.937154 
L 307.432284 165.930668 
" clip-path="url(#p2a1315889b)" style="fill: none; stroke: #98c379; stroke-width: 1.5; stroke-linecap: square"/>
    <defs>
     <path id="m8d65fe8be3" d="M 5 0 
L 4.998802 -0.045486 
L 4.995186 -0.091165 
L 4.989084 -0.137231 
L 4.980381 -0.183884 
L 4.968911 -0.231335 
L 4.954445 -0.279806 
L 4.93669 -0.329533 
L 4.915269 -0.380775 
L 4.889708 -0.433813 
L 4.859411 -0.488958 
L 4.823634 -0.546555 
L 4.78144 -0.60699 
L 4.73165 -0.670695 
L 4.672769 -0.738154 
L 4.602889 -0.809911 
L 4.519556 -0.886567 
L 4.419584 -0.968777 
L 4.298798 -1.057236 
L 4.151676 -1.152629 
L 3.970845 -1.255544 
L 3.746384 -1.366287 
L 3.464872 -1.484529 
L 3.108167 -1.608631 
L 2.652045 -1.73439 
L 2.065278 -1.852747 
L 1.311014 -1.945828 
L 0.35521 -1.980845 
L -0.808085 -1.903343 
L -2.102479 -1.638087 
L -3.298037 -1.118063 
L -4.016794 -0.356332 
L -3.945866 0.49652 
L -3.11912 1.224383 
L -1.883184 1.699198 
L -0.599677 1.927293 
L 0.530923 1.981038 
L 1.451161 1.933107 
L 2.174613 1.833979 
L 2.736939 1.713432 
L 3.174354 1.587489 
L 3.516903 1.46417 
L 3.7877 1.347121 
L 4.003995 1.237694 
L 4.178543 1.136076 
L 4.320779 1.041895 
L 4.437721 0.954536 
L 4.534635 0.873307 
L 4.615505 0.79752 
L 4.683381 0.726526 
L 4.740612 0.659734 
L 4.78903 0.596612 
L 4.83007 0.536683 
L 4.864866 0.479524 
L 4.894319 0.424757 
L 4.919146 0.372041 
L 4.939921 0.321073 
L 4.957099 0.271574 
L 4.971042 0.223291 
L 4.982033 0.17599 
L 4.990288 0.129449 
L 4.995965 0.083463 
z
" style="stroke: #98c379"/>
    </defs>
    <g clip-path="url(#p2a1315889b)">
     <use xlink:href="#m8d65fe8be3" x="53.795921" y="165.96" style="fill-opacity: 0; stroke: #98c379"/>
     <use xlink:href="#m8d65fe8be3" x="104.523194" y="164.948216" style="fill-opacity: 0; stroke: #98c379"/>
     <use xlink:href="#m8d65fe8be3" x="155.250466" y="165.643594" style="fill-opacity: 0; stroke: #98c379"/>
     <use xlink:href="#m8d65fe8be3" x="205.977739" y="164.933459" style="fill-opacity: 0; stroke: #98c379"/>
     <use xlink:href="#m8d65fe8be3" x="256.705012" y="165.937154" style="fill-opacity: 0; stroke: #98c379"/>
     <use xlink:href="#m8d65fe8be3" x="307.432284" y="165.930668" style="fill-opacity: 0; stroke: #98c379"/>
    </g>
   </g>
   <g id="line2d_18">
    <path d="M 41.114103 55.922485 
L 320.114103 55.922485 
" clip-path="url(#p2a1315889b)" style="fill: none; stroke-dasharray: 5.55,2.4; stroke-dashoffset: 0; stroke: #808080; stroke-width: 1.5"/>
   </g>
   <g id="line2d_19">
    <path d="M 41.114103 20.204545 
L 320.114103 20.204545 
" clip-path="url(#p2a1315889b)" style="fill: none; stroke-dasharray: 1.5,2.475; stroke-dashoffset: 0; stroke: #808080; stroke-width: 1.5"/>
   </g>
   <g id="patch_3">
    <path d="M 41.114103 173.52 
L 41.114103 7.2 
" style="fill: none; stroke: #ffffff; stroke-width: 0.8; stroke-linejoin: miter; stroke-linecap: square"/>
   </g>
   <g id="patch_4">
    <path d="M 41.114103 173.52 
L 320.114103 173.52 
" style="fill: none; stroke: #ffffff; stroke-width: 0.8; stroke-linejoin: miter; stroke-linecap: square"/>
   </g>
   <g id="legend_1">
    <g id="line2d_20">
     <defs>
      <path id="mff229958ea" d="M 0 3 
C 0.795609 3 1.55874 2.683901 2.12132 2.12132 
C 2.683901 1.55874 3 0.795609 3 0 
C 3 -0.795609 2.683901 -1.55874 2.12132 -2.12132 
C 1.55874 -2.683901 0.795609 -3 0 -3 
C -0.795609 -3 -1.55874 -2.683901 -2.12132 -2.12132 
C -2.683901 -1.55874 -3 -0.795609 -3 0 
C -3 0.795609 -2.683901 1.55874 -2.12132 2.12132 
C -1.55874 2.683901 -0.795609 3 0 3 
z
" style="stroke: #808080"/>
     </defs>
     <g>
      <use xlink:href="#mff229958ea" x="60.114103" y="11.384" style="fill-opacity: 0; stroke: #808080"/>
     </g>
    </g>
    <g id="text_14">
     <!-- quasicircular -->
     <g style="fill: #ffffff" transform="translate(78.114103 14.884) scale(0.1 -0.1)">
      <defs>
       <path id="CMSS17-71" d="M 2611 2816 
L 2138 2816 
L 2138 2425 
C 2112 2457 1818 2816 1318 2816 
C 736 2816 211 2218 211 1369 
C 211 585 653 -64 1229 -64 
C 1498 -64 1837 32 2125 307 
L 2125 -1280 
L 2611 -1280 
L 2611 2816 
z
M 2138 870 
C 2138 786 2138 669 1939 501 
C 1888 456 1747 326 1504 326 
C 1050 326 698 805 698 1369 
C 698 1998 1126 2412 1562 2412 
C 1926 2412 2138 2049 2138 1777 
L 2138 870 
z
" transform="scale(0.015625)"/>
       <path id="CMSS17-73" d="M 2061 2623 
C 1683 2803 1389 2816 1197 2816 
C 742 2816 198 2655 198 2009 
C 198 1363 902 1222 1094 1183 
C 1389 1126 1715 1062 1715 742 
C 1715 339 1254 339 1171 339 
C 915 339 563 409 243 639 
L 166 211 
C 531 0 883 -64 1178 -64 
C 1965 -64 2163 416 2163 780 
C 2163 1094 1984 1305 1862 1401 
C 1651 1567 1574 1587 1050 1695 
C 960 1708 646 1779 646 2067 
C 646 2431 1050 2431 1139 2431 
C 1555 2431 1811 2303 1984 2207 
L 2061 2623 
z
" transform="scale(0.015625)"/>
       <path id="CMSS17-63" d="M 2464 2540 
C 2464 2585 2170 2713 2093 2739 
C 1882 2816 1613 2816 1542 2816 
C 710 2816 211 2092 211 1363 
C 211 595 768 -64 1517 -64 
C 1946 -64 2253 76 2502 243 
L 2464 665 
C 2189 454 1869 339 1523 339 
C 1024 339 698 774 698 1369 
C 698 1830 909 2412 1549 2412 
C 1901 2412 2099 2342 2394 2143 
L 2464 2540 
z
" transform="scale(0.015625)"/>
       <path id="CMSS17-72" d="M 954 1369 
C 954 1974 1395 2379 1958 2392 
L 1958 2816 
C 1549 2809 1165 2604 934 2270 
L 934 2783 
L 480 2783 
L 480 0 
L 954 0 
L 954 1369 
z
" transform="scale(0.015625)"/>
      </defs>
      <use xlink:href="#CMSS17-71" transform="scale(0.996264)"/>
      <use xlink:href="#CMSS17-75" transform="translate(48.204943 0) scale(0.996264)"/>
      <use xlink:href="#CMSS17-61" transform="translate(96.409886 0) scale(0.996264)"/>
      <use xlink:href="#CMSS17-73" transform="translate(141.331807 0) scale(0.996264)"/>
      <use xlink:href="#CMSS17-69" transform="translate(177.245349 0) scale(0.996264)"/>
      <use xlink:href="#CMSS17-63" transform="translate(199.426072 0) scale(0.996264)"/>
      <use xlink:href="#CMSS17-69" transform="translate(241.064894 0) scale(0.996264)"/>
      <use xlink:href="#CMSS17-72" transform="translate(263.245617 0) scale(0.996264)"/>
      <use xlink:href="#CMSS17-63" transform="translate(295.15539 0) scale(0.996264)"/>
      <use xlink:href="#CMSS17-75" transform="translate(336.794212 0) scale(0.996264)"/>
      <use xlink:href="#CMSS17-6c" transform="translate(384.999155 0) scale(0.996264)"/>
      <use xlink:href="#CMSS17-61" transform="translate(407.179878 0) scale(0.996264)"/>
      <use xlink:href="#CMSS17-72" transform="translate(449.499344 0) scale(0.996264)"/>
     </g>
    </g>
    <g id="line2d_21">
     <defs>
      <path id="m07b8fbf9ca" d="M 5 0 
L 4.998802 -0.045486 
L 4.995186 -0.091165 
L 4.989084 -0.137231 
L 4.980381 -0.183884 
L 4.968911 -0.231335 
L 4.954445 -0.279806 
L 4.93669 -0.329533 
L 4.915269 -0.380775 
L 4.889708 -0.433813 
L 4.859411 -0.488958 
L 4.823634 -0.546555 
L 4.78144 -0.60699 
L 4.73165 -0.670695 
L 4.672769 -0.738154 
L 4.602889 -0.809911 
L 4.519556 -0.886567 
L 4.419584 -0.968777 
L 4.298798 -1.057236 
L 4.151676 -1.152629 
L 3.970845 -1.255544 
L 3.746384 -1.366287 
L 3.464872 -1.484529 
L 3.108167 -1.608631 
L 2.652045 -1.73439 
L 2.065278 -1.852747 
L 1.311014 -1.945828 
L 0.35521 -1.980845 
L -0.808085 -1.903343 
L -2.102479 -1.638087 
L -3.298037 -1.118063 
L -4.016794 -0.356332 
L -3.945866 0.49652 
L -3.11912 1.224383 
L -1.883184 1.699198 
L -0.599677 1.927293 
L 0.530923 1.981038 
L 1.451161 1.933107 
L 2.174613 1.833979 
L 2.736939 1.713432 
L 3.174354 1.587489 
L 3.516903 1.46417 
L 3.7877 1.347121 
L 4.003995 1.237694 
L 4.178543 1.136076 
L 4.320779 1.041895 
L 4.437721 0.954536 
L 4.534635 0.873307 
L 4.615505 0.79752 
L 4.683381 0.726526 
L 4.740612 0.659734 
L 4.78903 0.596612 
L 4.83007 0.536683 
L 4.864866 0.479524 
L 4.894319 0.424757 
L 4.919146 0.372041 
L 4.939921 0.321073 
L 4.957099 0.271574 
L 4.971042 0.223291 
L 4.982033 0.17599 
L 4.990288 0.129449 
L 4.995965 0.083463 
z
" style="stroke: #808080"/>
     </defs>
     <g>
      <use xlink:href="#m07b8fbf9ca" x="144.47711" y="11.384" style="fill-opacity: 0; stroke: #808080"/>
     </g>
    </g>
    <g id="text_15">
     <!-- eccentric -->
     <g style="fill: #ffffff" transform="translate(162.47711 14.884) scale(0.1 -0.1)">
      <use xlink:href="#CMSS17-65" transform="scale(0.996264)"/>
      <use xlink:href="#CMSS17-63" transform="translate(41.638822 0) scale(0.996264)"/>
      <use xlink:href="#CMSS17-63" transform="translate(83.277644 0) scale(0.996264)"/>
      <use xlink:href="#CMSS17-65" transform="translate(124.916466 0) scale(0.996264)"/>
      <use xlink:href="#CMSS17-6e" transform="translate(166.555288 0) scale(0.996264)"/>
      <use xlink:href="#CMSS17-74" transform="translate(214.760231 0) scale(0.996264)"/>
      <use xlink:href="#CMSS17-72" transform="translate(248.591798 0) scale(0.996264)"/>
      <use xlink:href="#CMSS17-69" transform="translate(280.501571 0) scale(0.996264)"/>
      <use xlink:href="#CMSS17-63" transform="translate(302.682294 0) scale(0.996264)"/>
     </g>
    </g>
    <g id="line2d_22">
     <path d="M 204.145177 11.384 
L 214.145177 11.384 
L 224.145177 11.384 
" style="fill: none; stroke-dasharray: 5.55,2.4; stroke-dashoffset: 0; stroke: #808080; stroke-width: 1.5"/>
    </g>
    <g id="text_16">
     <!-- $68\%$ -->
     <g style="fill: #ffffff" transform="translate(232.145177 14.884) scale(0.1 -0.1)">
      <use xlink:href="#CMR17-36" transform="scale(0.996264)"/>
      <use xlink:href="#CMR17-38" transform="translate(45.690477 0) scale(0.996264)"/>
      <use xlink:href="#CMR17-25" transform="translate(91.380954 0) scale(0.996264)"/>
     </g>
    </g>
    <g id="line2d_23">
     <path d="M 255.410073 11.384 
L 265.410073 11.384 
L 275.410073 11.384 
" style="fill: none; stroke-dasharray: 1.5,2.475; stroke-dashoffset: 0; stroke: #808080; stroke-width: 1.5"/>
    </g>
    <g id="text_17">
     <!-- $90\%$ -->
     <g style="fill: #ffffff" transform="translate(283.410073 14.884) scale(0.1 -0.1)">
      <use xlink:href="#CMR17-39" transform="scale(0.996264)"/>
      <use xlink:href="#CMR17-30" transform="translate(45.690477 0) scale(0.996264)"/>
      <use xlink:href="#CMR17-25" transform="translate(91.380954 0) scale(0.996264)"/>
     </g>
    </g>
   </g>
   <g id="legend_2">
    <g id="line2d_24">
     <path d="M 50.114103 28.48798 
L 55.114103 28.48798 
L 60.114103 28.48798 
" style="fill: none; stroke: #61afef; stroke-width: 1.5; stroke-linecap: square"/>
    </g>
    <g id="text_18">
     <!-- $(\pi, 0)$ -->
     <g style="fill: #ffffff" transform="translate(68.114103 31.98798) scale(0.1 -0.1)">
      <defs>
       <path id="CMR17-28" d="M 1958 -1562 
C 1958 -1556 1958 -1543 1939 -1524 
C 1645 -1223 858 -403 858 1596 
C 858 3595 1632 4408 1946 4729 
C 1946 4735 1958 4748 1958 4767 
C 1958 4787 1939 4800 1914 4800 
C 1843 4800 1299 4325 986 3620 
C 666 2909 576 2218 576 1603 
C 576 1141 621 360 1005 -467 
C 1312 -1133 1837 -1600 1914 -1600 
C 1946 -1600 1958 -1588 1958 -1562 
z
" transform="scale(0.015625)"/>
       <path id="CMMI12-19" d="M 1658 2406 
L 2381 2406 
C 2208 1691 2099 1225 2099 715 
C 2099 625 2099 -64 2362 -64 
C 2496 -64 2611 57 2611 166 
C 2611 198 2611 210 2566 306 
C 2394 746 2394 1295 2394 1340 
C 2394 1378 2394 1832 2528 2406 
L 3245 2406 
C 3328 2406 3539 2406 3539 2611 
C 3539 2752 3418 2752 3302 2752 
L 1197 2752 
C 1050 2752 832 2752 538 2438 
C 371 2253 166 1915 166 1876 
C 166 1838 198 1825 237 1825 
C 282 1825 288 1844 320 1883 
C 653 2406 986 2406 1146 2406 
L 1510 2406 
C 1370 1927 1210 1372 685 255 
C 634 153 634 140 634 102 
C 634 -32 749 -64 806 -64 
C 992 -64 1043 102 1120 370 
C 1222 695 1222 708 1286 964 
L 1658 2406 
z
" transform="scale(0.015625)"/>
       <path id="CMMI12-3b" d="M 1248 -26 
C 1248 345 1126 620 864 620 
C 659 620 557 454 557 313 
C 557 172 653 0 870 0 
C 954 0 1024 25 1082 83 
C 1094 96 1101 96 1107 96 
C 1120 96 1120 6 1120 -26 
C 1120 -233 1082 -642 710 -1051 
C 640 -1127 640 -1140 640 -1152 
C 640 -1184 672 -1216 704 -1216 
C 755 -1216 1248 -749 1248 -26 
z
" transform="scale(0.015625)"/>
       <path id="CMR17-29" d="M 1683 1596 
C 1683 2057 1638 2839 1254 3665 
C 947 4332 422 4800 346 4800 
C 326 4800 301 4793 301 4761 
C 301 4748 307 4742 314 4729 
C 621 4408 1402 3595 1402 1603 
C 1402 -396 627 -1210 314 -1530 
C 307 -1543 301 -1549 301 -1562 
C 301 -1594 326 -1600 346 -1600 
C 416 -1600 960 -1127 1274 -422 
C 1594 289 1683 981 1683 1596 
z
" transform="scale(0.015625)"/>
      </defs>
      <use xlink:href="#CMR17-28" transform="scale(0.996264)"/>
      <use xlink:href="#CMMI12-19" transform="translate(35.280768 0) scale(0.996264)"/>
      <use xlink:href="#CMMI12-3b" transform="translate(94.191369 0) scale(0.996264)"/>
      <use xlink:href="#CMR17-30" transform="translate(137.892951 0) scale(0.996264)"/>
      <use xlink:href="#CMR17-29" transform="translate(183.583428 0) scale(0.996264)"/>
     </g>
    </g>
    <g id="line2d_25">
     <path d="M 96.308405 28.48798 
L 101.308405 28.48798 
L 106.308405 28.48798 
" style="fill: none; stroke: #e5c07b; stroke-width: 1.5; stroke-linecap: square"/>
    </g>
    <g id="text_19">
     <!-- $(0, \pi)$ -->
     <g style="fill: #ffffff" transform="translate(114.308405 31.98798) scale(0.1 -0.1)">
      <use xlink:href="#CMR17-28" transform="scale(0.996264)"/>
      <use xlink:href="#CMR17-30" transform="translate(35.280768 0) scale(0.996264)"/>
      <use xlink:href="#CMMI12-3b" transform="translate(80.971245 0) scale(0.996264)"/>
      <use xlink:href="#CMMI12-19" transform="translate(124.672827 0) scale(0.996264)"/>
      <use xlink:href="#CMR17-29" transform="translate(183.583428 0) scale(0.996264)"/>
     </g>
    </g>
    <g id="line2d_26">
     <path d="M 142.502706 28.48798 
L 147.502706 28.48798 
L 152.502706 28.48798 
" style="fill: none; stroke: #98c379; stroke-width: 1.5; stroke-linecap: square"/>
    </g>
    <g id="text_20">
     <!-- $(\pi, \pi)$ -->
     <g style="fill: #ffffff" transform="translate(160.502706 31.98798) scale(0.1 -0.1)">
      <use xlink:href="#CMR17-28" transform="scale(0.996264)"/>
      <use xlink:href="#CMMI12-19" transform="translate(35.280768 0) scale(0.996264)"/>
      <use xlink:href="#CMMI12-3b" transform="translate(94.191369 0) scale(0.996264)"/>
      <use xlink:href="#CMMI12-19" transform="translate(137.892951 0) scale(0.996264)"/>
      <use xlink:href="#CMR17-29" transform="translate(196.803552 0) scale(0.996264)"/>
     </g>
    </g>
   </g>
  </g>
 </g>
 <defs>
  <clipPath id="p2a1315889b">
   <rect x="41.114103" y="7.2" width="279" height="166.32"/>
  </clipPath>
 </defs>
</svg>
