<?xml version="1.0" encoding="utf-8" standalone="no"?>
<!DOCTYPE svg PUBLIC "-//W3C//DTD SVG 1.1//EN"
  "http://www.w3.org/Graphics/SVG/1.1/DTD/svg11.dtd">
<svg xmlns:xlink="http://www.w3.org/1999/xlink" width="334.509319pt" height="217.221583pt" viewBox="0 0 334.509319 217.221583" xmlns="http://www.w3.org/2000/svg" version="1.1">
 <metadata>
  <rdf:RDF xmlns:dc="http://purl.org/dc/elements/1.1/" xmlns:cc="http://creativecommons.org/ns#" xmlns:rdf="http://www.w3.org/1999/02/22-rdf-syntax-ns#">
   <cc:Work>
    <dc:type rdf:resource="http://purl.org/dc/dcmitype/StillImage"/>
    <dc:date>2025-07-20T14:56:06.669606</dc:date>
    <dc:format>image/svg+xml</dc:format>
    <dc:creator>
     <cc:Agent>
      <dc:title>Matplotlib v3.7.3, https://matplotlib.org/</dc:title>
     </cc:Agent>
    </dc:creator>
   </cc:Work>
  </rdf:RDF>
 </metadata>
 <defs>
  <style type="text/css">*{stroke-linejoin: round; stroke-linecap: butt}</style>
 </defs>
 <g id="figure_1">
  <g id="patch_1">
   <path d="M 0 217.221583 
L 334.509319 217.221583 
L 334.509319 0 
L 0 0 
z
" style="fill: #282c34"/>
  </g>
  <g id="axes_1">
   <g id="patch_2">
    <path d="M 48.309319 93.138507 
L 327.309319 93.138507 
L 327.309319 11.005173 
L 48.309319 11.005173 
z
" style="fill: #282c34"/>
   </g>
   <g id="matplotlib.axis_1">
    <g id="xtick_1">
     <g id="line2d_1">
      <defs>
       <path id="m5a517ebc57" d="M 0 0 
L 0 3.5 
" style="stroke: #ffffff; stroke-width: 0.8"/>
      </defs>
      <g>
       <use xlink:href="#m5a517ebc57" x="108.102566" y="93.138507" style="fill: #ffffff; stroke: #ffffff; stroke-width: 0.8"/>
      </g>
     </g>
    </g>
    <g id="xtick_2">
     <g id="line2d_2">
      <g>
       <use xlink:href="#m5a517ebc57" x="177.716714" y="93.138507" style="fill: #ffffff; stroke: #ffffff; stroke-width: 0.8"/>
      </g>
     </g>
    </g>
    <g id="xtick_3">
     <g id="line2d_3">
      <g>
       <use xlink:href="#m5a517ebc57" x="247.330862" y="93.138507" style="fill: #ffffff; stroke: #ffffff; stroke-width: 0.8"/>
      </g>
     </g>
    </g>
    <g id="xtick_4">
     <g id="line2d_4">
      <g>
       <use xlink:href="#m5a517ebc57" x="316.94501" y="93.138507" style="fill: #ffffff; stroke: #ffffff; stroke-width: 0.8"/>
      </g>
     </g>
    </g>
   </g>
   <g id="matplotlib.axis_2">
    <g id="ytick_1">
     <g id="line2d_5">
      <defs>
       <path id="me614ddc533" d="M 0 0 
L -3.5 0 
" style="stroke: #ffffff; stroke-width: 0.8"/>
      </defs>
      <g>
       <use xlink:href="#me614ddc533" x="48.309319" y="84.909077" style="fill: #ffffff; stroke: #ffffff; stroke-width: 0.8"/>
      </g>
     </g>
     <g id="text_1">
      <!-- 0.2 -->
      <g style="fill: #ffffff" transform="translate(27.306243 88.71425) scale(0.11 -0.11)">
       <defs>
        <path id="CMSS17-30" d="M 2758 2073 
C 2758 2439 2752 3120 2490 3647 
C 2227 4153 1805 4288 1504 4288 
C 1069 4288 698 4031 506 3621 
C 301 3191 243 2748 243 2073 
C 243 1611 262 1046 493 551 
C 755 6 1197 -128 1498 -128 
C 1894 -128 2278 83 2496 525 
C 2720 988 2758 1495 2758 2073 
z
M 1498 262 
C 1011 262 864 821 819 1007 
C 742 1328 730 1636 730 2144 
C 730 2542 730 2992 851 3345 
C 998 3756 1254 3897 1498 3897 
C 1971 3897 2125 3422 2176 3255 
C 2272 2915 2272 2516 2272 2144 
C 2272 1546 2272 262 1498 262 
z
" transform="scale(0.015625)"/>
        <path id="CMSS17-2e" d="M 1088 512 
L 576 512 
L 576 0 
L 1088 0 
L 1088 512 
z
" transform="scale(0.015625)"/>
        <path id="CMSS17-32" d="M 1651 1353 
C 1830 1538 2099 1761 2285 1984 
C 2464 2201 2701 2507 2701 2953 
C 2701 3655 2227 4288 1421 4288 
C 787 4288 422 3891 250 3272 
L 499 2928 
C 640 3508 838 3878 1338 3878 
C 1888 3878 2195 3431 2195 2940 
C 2195 2354 1747 1901 1408 1563 
C 1030 1187 659 805 301 409 
L 301 0 
L 2701 0 
L 2701 435 
L 1613 435 
C 1536 435 1459 428 1382 428 
L 742 428 
L 742 435 
L 1651 1353 
z
" transform="scale(0.015625)"/>
       </defs>
       <use xlink:href="#CMSS17-30" transform="scale(0.996264)"/>
       <use xlink:href="#CMSS17-2e" transform="translate(46.843624 0) scale(0.996264)"/>
       <use xlink:href="#CMSS17-32" transform="translate(72.867828 0) scale(0.996264)"/>
      </g>
     </g>
    </g>
    <g id="ytick_2">
     <g id="line2d_6">
      <g>
       <use xlink:href="#me614ddc533" x="48.309319" y="47.957125" style="fill: #ffffff; stroke: #ffffff; stroke-width: 0.8"/>
      </g>
     </g>
     <g id="text_2">
      <!-- 0.4 -->
      <g style="fill: #ffffff" transform="translate(27.306243 51.762299) scale(0.11 -0.11)">
       <defs>
        <path id="CMSS17-34" d="M 2253 1088 
L 2835 1088 
L 2835 1478 
L 2253 1478 
L 2253 4224 
L 1690 4224 
L 166 1478 
L 166 1088 
L 1747 1088 
L 1747 0 
L 2253 0 
L 2253 1088 
z
M 659 1478 
C 1030 2139 1766 3474 1766 3927 
L 1766 1478 
L 659 1478 
z
" transform="scale(0.015625)"/>
       </defs>
       <use xlink:href="#CMSS17-30" transform="scale(0.996264)"/>
       <use xlink:href="#CMSS17-2e" transform="translate(46.843624 0) scale(0.996264)"/>
       <use xlink:href="#CMSS17-34" transform="translate(72.867828 0) scale(0.996264)"/>
      </g>
     </g>
    </g>
    <g id="ytick_3">
     <g id="line2d_7">
      <g>
       <use xlink:href="#me614ddc533" x="48.309319" y="11.005173" style="fill: #ffffff; stroke: #ffffff; stroke-width: 0.8"/>
      </g>
     </g>
     <g id="text_3">
      <!-- 0.6 -->
      <g style="fill: #ffffff" transform="translate(27.306243 14.810347) scale(0.11 -0.11)">
       <defs>
        <path id="CMSS17-36" d="M 2496 4159 
C 2227 4268 2035 4288 1856 4288 
C 1024 4288 250 3408 250 2023 
C 250 268 986 -128 1510 -128 
C 1798 -128 2086 -39 2362 281 
C 2643 619 2752 900 2752 1392 
C 2752 2183 2362 2886 1779 2886 
C 1357 2886 992 2662 768 2381 
C 832 3290 1254 3897 1862 3897 
C 2029 3897 2246 3871 2496 3760 
L 2496 4159 
z
M 774 1372 
C 774 1423 774 1455 781 1551 
C 781 2049 1069 2496 1536 2496 
C 1837 2496 1990 2336 2106 2138 
C 2240 1889 2246 1653 2246 1392 
C 2246 1143 2246 894 2099 638 
C 1978 441 1818 268 1510 268 
C 902 268 800 1117 774 1372 
z
" transform="scale(0.015625)"/>
       </defs>
       <use xlink:href="#CMSS17-30" transform="scale(0.996264)"/>
       <use xlink:href="#CMSS17-2e" transform="translate(46.843624 0) scale(0.996264)"/>
       <use xlink:href="#CMSS17-36" transform="translate(72.867828 0) scale(0.996264)"/>
      </g>
     </g>
    </g>
    <g id="text_4">
     <!-- $e_{\mathrm{gw}}$ -->
     <g style="fill: #ffffff" transform="translate(19.963234 59.959672) rotate(-90) scale(0.12 -0.12)">
      <defs>
       <path id="CMMI12-65" d="M 1146 1472 
C 1318 1472 1754 1484 2061 1600 
C 2547 1786 2592 2160 2592 2275 
C 2592 2559 2349 2816 1926 2816 
C 1254 2816 288 2205 288 1066 
C 288 400 672 -64 1254 -64 
C 2125 -64 2675 609 2675 691 
C 2675 729 2637 761 2611 761 
C 2592 761 2586 755 2528 698 
C 2118 159 1510 64 1267 64 
C 902 64 710 349 710 818 
C 710 907 710 1066 806 1472 
L 1146 1472 
z
M 838 1600 
C 1114 2591 1722 2687 1926 2687 
C 2208 2687 2400 2520 2400 2275 
C 2400 1600 1376 1600 1107 1600 
L 838 1600 
z
" transform="scale(0.015625)"/>
       <path id="CMR17-67" d="M 710 1165 
C 832 1068 1043 960 1299 960 
C 1805 960 2240 1359 2240 1895 
C 2240 2063 2189 2321 1997 2521 
C 2176 2713 2438 2777 2586 2777 
C 2611 2777 2650 2777 2682 2758 
C 2656 2751 2598 2726 2598 2623 
C 2598 2540 2656 2483 2739 2483 
C 2835 2483 2886 2547 2886 2630 
C 2886 2751 2790 2880 2586 2880 
C 2330 2880 2106 2758 1926 2591 
C 1734 2764 1504 2828 1299 2828 
C 794 2828 358 2431 358 1895 
C 358 1527 570 1294 634 1230 
C 442 1004 442 742 442 710 
C 442 544 506 300 723 166 
C 390 82 128 -184 128 -517 
C 128 -996 736 -1344 1466 -1344 
C 2170 -1344 2803 -1009 2803 -510 
C 2803 384 1856 384 1363 384 
C 1216 384 954 384 922 390 
C 723 422 589 601 589 825 
C 589 883 589 1024 710 1165 
z
M 1299 1068 
C 736 1068 736 1766 736 1895 
C 736 2024 736 2719 1299 2719 
C 1862 2719 1862 2024 1862 1895 
C 1862 1766 1862 1068 1299 1068 
z
M 1466 -1236 
C 826 -1236 384 -883 384 -517 
C 384 -311 493 -118 634 -11 
C 794 102 858 102 1293 102 
C 1818 102 2547 102 2547 -517 
C 2547 -883 2106 -1236 1466 -1236 
z
" transform="scale(0.015625)"/>
       <path id="CMR17-77" d="M 3725 2186 
C 3853 2566 4109 2579 4205 2585 
L 4205 2752 
C 4077 2745 3949 2739 3821 2739 
C 3699 2739 3424 2739 3315 2752 
L 3315 2585 
C 3514 2572 3622 2456 3622 2296 
C 3622 2251 3610 2193 3597 2148 
L 2995 398 
L 2342 2296 
C 2330 2341 2310 2392 2310 2418 
C 2310 2585 2528 2585 2630 2585 
L 2630 2752 
C 2483 2739 2214 2739 2061 2739 
C 1901 2739 1734 2739 1587 2752 
L 1587 2585 
C 1939 2585 1939 2572 2074 2167 
L 1485 443 
L 851 2302 
C 819 2386 819 2399 819 2418 
C 819 2585 1037 2585 1139 2585 
L 1139 2752 
C 986 2739 717 2739 557 2739 
C 416 2739 198 2739 64 2752 
L 64 2585 
C 346 2585 416 2566 486 2353 
L 1274 38 
C 1299 -45 1318 -64 1370 -64 
C 1414 -64 1440 -52 1472 44 
L 2131 1987 
L 2797 44 
C 2829 -52 2854 -64 2899 -64 
C 2950 -64 2970 -45 2995 38 
L 3725 2186 
z
" transform="scale(0.015625)"/>
      </defs>
      <use xlink:href="#CMMI12-65" transform="scale(0.996264)"/>
      <use xlink:href="#CMR17-67" transform="translate(45.212001 -14.943915) scale(0.697382)"/>
      <use xlink:href="#CMR17-77" transform="translate(77.195183 -14.943915) scale(0.697382)"/>
     </g>
    </g>
   </g>
   <g id="line2d_8">
    <path d="M 74.585388 16.008992 
L 96.015407 18.707827 
L 115.890247 21.432057 
L 134.325465 24.180541 
L 151.4227 26.951515 
L 167.269665 29.742234 
L 181.945719 32.549617 
L 195.517694 35.369212 
L 208.045456 38.195935 
L 219.579128 41.023168 
L 230.163263 43.843325 
L 239.838237 46.647933 
L 248.644427 49.428658 
L 256.620816 52.176807 
L 263.81335 54.886236 
L 270.270758 57.552432 
L 276.048732 60.174718 
L 281.207141 62.756094 
L 285.808636 65.303553 
L 289.918655 67.829381 
L 293.601244 70.350158 
L 296.919054 72.887932 
L 299.931954 75.470398 
L 302.702597 78.137019 
L 305.308951 80.954885 
L 307.897205 84.086696 
L 312.011401 89.465673 
L 312.011401 89.465673 
" clip-path="url(#p8739211453)" style="fill: none; stroke: #61afef; stroke-width: 1.5; stroke-linecap: square"/>
   </g>
   <g id="patch_3">
    <path d="M 48.309319 93.138507 
L 48.309319 11.005173 
" style="fill: none; stroke: #ffffff; stroke-width: 0.8; stroke-linejoin: miter; stroke-linecap: square"/>
   </g>
   <g id="patch_4">
    <path d="M 48.309319 93.138507 
L 327.309319 93.138507 
" style="fill: none; stroke: #ffffff; stroke-width: 0.8; stroke-linejoin: miter; stroke-linecap: square"/>
   </g>
  </g>
  <g id="axes_2">
   <g id="patch_5">
    <path d="M 48.309319 177.325173 
L 327.309319 177.325173 
L 327.309319 95.19184 
L 48.309319 95.19184 
z
" style="fill: #282c34"/>
   </g>
   <g id="matplotlib.axis_3">
    <g id="xtick_5">
     <g id="line2d_9">
      <g>
       <use xlink:href="#m5a517ebc57" x="108.102566" y="177.325173" style="fill: #ffffff; stroke: #ffffff; stroke-width: 0.8"/>
      </g>
     </g>
     <g id="text_5">
      <!-- -15000 -->
      <g style="fill: #ffffff" transform="translate(92.577411 191.93552) scale(0.11 -0.11)">
       <defs>
        <path id="CMSS17-2d" d="M 1664 1216 
L 1664 1587 
L 64 1587 
L 64 1216 
L 1664 1216 
z
" transform="scale(0.015625)"/>
        <path id="CMSS17-31" d="M 1818 4288 
L 1696 4288 
C 1350 3949 947 3902 538 3891 
L 538 3520 
C 723 3526 1024 3539 1325 3673 
L 1325 371 
L 570 371 
L 570 0 
L 2573 0 
L 2573 371 
L 1818 371 
L 1818 4288 
z
" transform="scale(0.015625)"/>
        <path id="CMSS17-35" d="M 934 3814 
L 2502 3814 
L 2502 4224 
L 467 4224 
L 467 1830 
L 896 1830 
C 1011 2103 1248 2304 1555 2304 
C 1843 2304 2163 2044 2163 1299 
C 2163 502 1709 268 1376 268 
C 966 268 589 521 422 871 
L 218 508 
C 512 51 992 -128 1376 -128 
C 2118 -128 2701 508 2701 1286 
C 2701 2083 2182 2694 1562 2694 
C 1338 2694 1120 2617 934 2464 
L 934 3814 
z
" transform="scale(0.015625)"/>
       </defs>
       <use xlink:href="#CMSS17-2d" transform="scale(0.996264)"/>
       <use xlink:href="#CMSS17-31" transform="translate(31.229113 0) scale(0.996264)"/>
       <use xlink:href="#CMSS17-35" transform="translate(78.072736 0) scale(0.996264)"/>
       <use xlink:href="#CMSS17-30" transform="translate(124.91636 0) scale(0.996264)"/>
       <use xlink:href="#CMSS17-30" transform="translate(171.759983 0) scale(0.996264)"/>
       <use xlink:href="#CMSS17-30" transform="translate(218.603607 0) scale(0.996264)"/>
      </g>
     </g>
    </g>
    <g id="xtick_6">
     <g id="line2d_10">
      <g>
       <use xlink:href="#m5a517ebc57" x="177.716714" y="177.325173" style="fill: #ffffff; stroke: #ffffff; stroke-width: 0.8"/>
      </g>
     </g>
     <g id="text_6">
      <!-- -10000 -->
      <g style="fill: #ffffff" transform="translate(162.191559 191.93552) scale(0.11 -0.11)">
       <use xlink:href="#CMSS17-2d" transform="scale(0.996264)"/>
       <use xlink:href="#CMSS17-31" transform="translate(31.229113 0) scale(0.996264)"/>
       <use xlink:href="#CMSS17-30" transform="translate(78.072736 0) scale(0.996264)"/>
       <use xlink:href="#CMSS17-30" transform="translate(124.91636 0) scale(0.996264)"/>
       <use xlink:href="#CMSS17-30" transform="translate(171.759983 0) scale(0.996264)"/>
       <use xlink:href="#CMSS17-30" transform="translate(218.603607 0) scale(0.996264)"/>
      </g>
     </g>
    </g>
    <g id="xtick_7">
     <g id="line2d_11">
      <g>
       <use xlink:href="#m5a517ebc57" x="247.330862" y="177.325173" style="fill: #ffffff; stroke: #ffffff; stroke-width: 0.8"/>
      </g>
     </g>
     <g id="text_7">
      <!-- -5000 -->
      <g style="fill: #ffffff" transform="translate(234.545441 191.93552) scale(0.11 -0.11)">
       <use xlink:href="#CMSS17-2d" transform="scale(0.996264)"/>
       <use xlink:href="#CMSS17-35" transform="translate(31.229113 0) scale(0.996264)"/>
       <use xlink:href="#CMSS17-30" transform="translate(78.072736 0) scale(0.996264)"/>
       <use xlink:href="#CMSS17-30" transform="translate(124.91636 0) scale(0.996264)"/>
       <use xlink:href="#CMSS17-30" transform="translate(171.759983 0) scale(0.996264)"/>
      </g>
     </g>
    </g>
    <g id="xtick_8">
     <g id="line2d_12">
      <g>
       <use xlink:href="#m5a517ebc57" x="316.94501" y="177.325173" style="fill: #ffffff; stroke: #ffffff; stroke-width: 0.8"/>
      </g>
     </g>
     <g id="text_8">
      <!-- 0 -->
      <g style="fill: #ffffff" transform="translate(314.205276 191.93552) scale(0.11 -0.11)">
       <use xlink:href="#CMSS17-30" transform="scale(0.996264)"/>
      </g>
     </g>
    </g>
    <g id="text_9">
     <!-- $t$ [$M$] -->
     <g style="fill: #ffffff" transform="translate(174.074813 207.032791) scale(0.12 -0.12)">
      <defs>
       <path id="CMMI12-74" d="M 1286 2566 
L 1875 2566 
C 1997 2566 2061 2566 2061 2681 
C 2061 2752 2022 2752 1894 2752 
L 1331 2752 
L 1568 3664 
C 1594 3752 1594 3764 1594 3808 
C 1594 3910 1510 3968 1427 3968 
C 1376 3968 1229 3948 1178 3746 
L 928 2752 
L 326 2752 
C 198 2752 141 2752 141 2630 
C 141 2566 186 2566 307 2566 
L 877 2566 
L 454 881 
C 403 657 384 593 384 510 
C 384 210 595 -64 954 -64 
C 1600 -64 1946 868 1946 913 
C 1946 951 1920 970 1882 970 
C 1869 970 1843 970 1830 944 
C 1824 938 1818 932 1773 830 
C 1638 510 1344 64 973 64 
C 781 64 768 223 768 364 
C 768 370 768 491 787 568 
L 1286 2566 
z
" transform="scale(0.015625)"/>
       <path id="CMSS17-5b" d="M 1613 -1600 
L 1613 -1210 
L 1062 -1210 
L 1062 4409 
L 1613 4409 
L 1613 4800 
L 595 4800 
L 595 -1600 
L 1613 -1600 
z
" transform="scale(0.015625)"/>
       <path id="CMMI12-4d" d="M 5811 3886 
C 5869 4102 5882 4166 6336 4166 
C 6458 4166 6515 4166 6515 4287 
C 6515 4352 6470 4352 6349 4352 
L 5581 4352 
C 5421 4352 5414 4345 5344 4243 
L 3008 567 
L 2528 4211 
C 2509 4352 2502 4352 2336 4352 
L 1542 4352 
C 1421 4352 1363 4352 1363 4230 
C 1363 4166 1421 4166 1517 4166 
C 1907 4166 1907 4115 1907 4045 
C 1907 4032 1907 3994 1882 3898 
L 1062 650 
C 986 344 838 204 410 185 
C 390 185 314 179 314 70 
C 314 0 371 0 397 0 
C 525 0 851 12 979 12 
L 1286 12 
C 1376 12 1485 0 1574 0 
C 1619 0 1690 0 1690 121 
C 1690 179 1626 185 1600 185 
C 1389 191 1184 230 1184 459 
C 1184 523 1184 529 1210 618 
L 2093 4128 
L 2099 4128 
L 2630 172 
C 2650 19 2656 0 2714 0 
C 2784 0 2816 51 2848 108 
L 5421 4159 
L 5427 4159 
L 4499 472 
C 4442 249 4429 185 3981 185 
C 3859 185 3795 185 3795 70 
C 3795 0 3853 0 3891 0 
C 4000 0 4128 12 4237 12 
L 4992 12 
C 5101 12 5235 0 5344 0 
C 5395 0 5466 0 5466 121 
C 5466 185 5408 185 5312 185 
C 4922 185 4922 236 4922 300 
C 4922 306 4922 351 4934 402 
L 5811 3886 
z
" transform="scale(0.015625)"/>
       <path id="CMSS17-5d" d="M 1146 4800 
L 128 4800 
L 128 4409 
L 678 4409 
L 678 -1210 
L 128 -1210 
L 128 -1600 
L 1146 -1600 
L 1146 4800 
z
" transform="scale(0.015625)"/>
      </defs>
      <use xlink:href="#CMMI12-74" transform="scale(0.996264)"/>
      <use xlink:href="#CMSS17-5b" transform="translate(66.455443 0) scale(0.996264)"/>
      <use xlink:href="#CMMI12-4d" transform="translate(93.640882 0) scale(0.996264)"/>
      <use xlink:href="#CMSS17-5d" transform="translate(198.42096 0) scale(0.996264)"/>
     </g>
    </g>
   </g>
   <g id="matplotlib.axis_4">
    <g id="ytick_4">
     <g id="line2d_13">
      <g>
       <use xlink:href="#me614ddc533" x="48.309319" y="177.139214" style="fill: #ffffff; stroke: #ffffff; stroke-width: 0.8"/>
      </g>
     </g>
     <g id="text_10">
      <!-- $\mathdefault{0.00}$ -->
      <g style="fill: #ffffff" transform="translate(21.826776 180.944387) scale(0.11 -0.11)">
       <defs>
        <path id="CMR17-30" d="M 2688 2038 
C 2688 2430 2682 3099 2413 3613 
C 2176 4063 1798 4224 1466 4224 
C 1158 4224 768 4082 525 3620 
C 269 3137 243 2539 243 2038 
C 243 1671 250 1112 448 623 
C 723 -39 1216 -128 1466 -128 
C 1760 -128 2208 -7 2470 604 
C 2662 1048 2688 1568 2688 2038 
z
M 1466 -26 
C 1056 -26 813 328 723 816 
C 653 1196 653 1749 653 2109 
C 653 2604 653 3015 736 3407 
C 858 3954 1216 4121 1466 4121 
C 1728 4121 2067 3947 2189 3420 
C 2272 3054 2278 2623 2278 2109 
C 2278 1691 2278 1176 2202 797 
C 2067 96 1690 -26 1466 -26 
z
" transform="scale(0.015625)"/>
        <path id="CMMI12-3a" d="M 1178 307 
C 1178 492 1024 620 870 620 
C 685 620 557 467 557 313 
C 557 128 710 0 864 0 
C 1050 0 1178 153 1178 307 
z
" transform="scale(0.015625)"/>
       </defs>
       <use xlink:href="#CMR17-30" transform="scale(0.996264)"/>
       <use xlink:href="#CMMI12-3a" transform="translate(45.690477 0) scale(0.996264)"/>
       <use xlink:href="#CMR17-30" transform="translate(72.787654 0) scale(0.996264)"/>
       <use xlink:href="#CMR17-30" transform="translate(118.478131 0) scale(0.996264)"/>
      </g>
     </g>
    </g>
    <g id="ytick_5">
     <g id="line2d_14">
      <g>
       <use xlink:href="#me614ddc533" x="48.309319" y="146.069209" style="fill: #ffffff; stroke: #ffffff; stroke-width: 0.8"/>
      </g>
     </g>
     <g id="text_11">
      <!-- $\mathdefault{0.05}$ -->
      <g style="fill: #ffffff" transform="translate(21.826776 149.874383) scale(0.11 -0.11)">
       <defs>
        <path id="CMR17-35" d="M 730 3750 
C 794 3724 1056 3641 1325 3641 
C 1920 3641 2246 3961 2432 4140 
C 2432 4191 2432 4224 2394 4224 
C 2387 4224 2374 4224 2323 4198 
C 2099 4102 1837 4032 1517 4032 
C 1325 4032 1037 4055 723 4191 
C 653 4224 640 4224 634 4224 
C 602 4224 595 4217 595 4090 
L 595 2231 
C 595 2113 595 2080 659 2080 
C 691 2080 704 2093 736 2139 
C 941 2435 1222 2560 1542 2560 
C 1766 2560 2246 2415 2246 1293 
C 2246 1087 2246 716 2054 422 
C 1894 159 1645 25 1370 25 
C 947 25 518 319 403 812 
C 429 806 480 793 506 793 
C 589 793 749 838 749 1036 
C 749 1209 627 1280 506 1280 
C 358 1280 262 1190 262 1011 
C 262 454 704 -128 1382 -128 
C 2042 -128 2669 441 2669 1267 
C 2669 2054 2170 2662 1549 2662 
C 1222 2662 947 2540 730 2304 
L 730 3750 
z
" transform="scale(0.015625)"/>
       </defs>
       <use xlink:href="#CMR17-30" transform="scale(0.996264)"/>
       <use xlink:href="#CMMI12-3a" transform="translate(45.690477 0) scale(0.996264)"/>
       <use xlink:href="#CMR17-30" transform="translate(72.787654 0) scale(0.996264)"/>
       <use xlink:href="#CMR17-35" transform="translate(118.478131 0) scale(0.996264)"/>
      </g>
     </g>
    </g>
    <g id="ytick_6">
     <g id="line2d_15">
      <g>
       <use xlink:href="#me614ddc533" x="48.309319" y="114.999205" style="fill: #ffffff; stroke: #ffffff; stroke-width: 0.8"/>
      </g>
     </g>
     <g id="text_12">
      <!-- $\mathdefault{0.10}$ -->
      <g style="fill: #ffffff" transform="translate(21.826776 118.804378) scale(0.11 -0.11)">
       <defs>
        <path id="CMR17-31" d="M 1702 4083 
C 1702 4217 1696 4224 1606 4224 
C 1357 3927 979 3833 621 3820 
C 602 3820 570 3820 563 3808 
C 557 3795 557 3782 557 3648 
C 755 3648 1088 3686 1344 3839 
L 1344 467 
C 1344 243 1331 166 781 166 
L 589 166 
L 589 0 
C 896 6 1216 12 1523 12 
C 1830 12 2150 6 2458 0 
L 2458 166 
L 2266 166 
C 1715 166 1702 236 1702 467 
L 1702 4083 
z
" transform="scale(0.015625)"/>
       </defs>
       <use xlink:href="#CMR17-30" transform="scale(0.996264)"/>
       <use xlink:href="#CMMI12-3a" transform="translate(45.690477 0) scale(0.996264)"/>
       <use xlink:href="#CMR17-31" transform="translate(72.787654 0) scale(0.996264)"/>
       <use xlink:href="#CMR17-30" transform="translate(118.478131 0) scale(0.996264)"/>
      </g>
     </g>
    </g>
    <g id="text_13">
     <!-- $\omega_{\mathrm{gw}}$ -->
     <g style="fill: #ffffff" transform="translate(14.483767 145.078239) rotate(-90) scale(0.12 -0.12)">
      <defs>
       <path id="CMMI12-21" d="M 3802 2406 
C 3802 2592 3750 2828 3526 2828 
C 3398 2828 3251 2668 3251 2540 
C 3251 2483 3277 2444 3328 2387 
C 3424 2278 3546 2105 3546 1804 
C 3546 1574 3405 1209 3302 1011 
C 3123 659 2829 358 2496 358 
C 2093 358 1939 614 1869 972 
C 1939 1139 2086 1555 2086 1721 
C 2086 1792 2061 1849 1978 1849 
C 1933 1849 1882 1824 1850 1772 
C 1760 1632 1677 1126 1683 992 
C 1562 755 1216 358 806 358 
C 378 358 262 736 262 1100 
C 262 1766 678 2348 794 2508 
C 858 2604 902 2668 902 2681 
C 902 2726 877 2796 819 2796 
C 717 2796 685 2713 634 2636 
C 307 2131 77 1420 77 806 
C 77 409 224 -64 704 -64 
C 1235 -64 1568 390 1702 633 
C 1754 275 1946 -64 2413 -64 
C 2899 -64 3206 364 3437 883 
C 3603 1254 3802 2054 3802 2406 
z
" transform="scale(0.015625)"/>
      </defs>
      <use xlink:href="#CMMI12-21" transform="scale(0.996264)"/>
      <use xlink:href="#CMR17-67" transform="translate(60.743753 -14.943915) scale(0.697382)"/>
      <use xlink:href="#CMR17-77" transform="translate(92.726935 -14.943915) scale(0.697382)"/>
     </g>
    </g>
   </g>
   <g id="line2d_16">
    <path d="M 60.991137 152.87334 
L 61.637157 162.549267 
L 62.274822 167.024595 
L 62.517079 168.189563 
L 62.728706 169.031701 
L 62.744021 168.986666 
L 62.746806 168.985509 
L 62.763513 169.093504 
L 62.802497 169.082509 
L 62.837304 169.173621 
L 62.909703 169.055996 
L 62.968179 169.203569 
L 63.142214 170.138591 
L 63.150568 169.560032 
L 63.153353 169.383886 
L 63.253597 170.267338 
L 63.356626 170.661467 
L 63.387256 170.519785 
L 63.391433 170.510813 
L 63.429025 170.829784 
L 63.473578 170.931631 
L 63.508385 170.603798 
L 63.593314 170.357782 
L 63.637867 170.435499 
L 63.717227 171.00493 
L 63.789626 170.837365 
L 63.901009 172.222058 
L 63.923285 173.107896 
L 63.912147 170.696932 
L 64.009607 172.113317 
L 64.076436 170.342582 
L 64.13352 171.427095 
L 64.161366 171.703739 
L 64.226803 170.913404 
L 64.232372 170.896183 
L 64.272748 171.254779 
L 64.329832 172.122122 
L 64.391092 171.409891 
L 64.425899 171.02865 
L 64.48716 171.737118 
L 64.530321 172.081245 
L 64.580443 171.475107 
L 64.591581 171.365572 
L 64.647272 171.959484 
L 64.751694 172.207372 
L 64.708533 171.566405 
L 64.75587 172.060952 
L 64.767009 171.19113 
L 64.861684 172.54892 
L 64.909021 172.746577 
L 64.966105 172.480856 
L 65.016227 172.142803 
L 65.057996 172.66678 
L 65.085841 172.898731 
L 65.130394 172.078223 
L 65.147102 171.875004 
L 65.193047 172.85675 
L 65.215324 173.059139 
L 65.262661 171.997432 
L 65.287722 171.615595 
L 65.348983 172.646109 
L 65.360121 172.679875 
L 65.393536 172.388034 
L 65.419989 172.191195 
L 65.461758 172.818601 
L 65.492388 173.332812 
L 65.52998 171.994136 
L 65.546687 171.379346 
L 65.56061 173.222161 
L 65.633009 172.38857 
L 65.681739 172.893341 
L 65.769452 172.653419 
L 65.773629 172.65333 
L 65.793121 172.537249 
L 65.822359 172.30742 
L 65.882227 172.796057 
L 65.893366 172.87528 
L 65.922603 171.999256 
L 65.929565 171.550755 
L 65.937919 173.59184 
L 66.020063 172.673597 
L 66.075755 172.914665 
L 66.109169 172.932105 
L 66.163468 172.814173 
L 66.17043 172.805436 
L 66.227513 172.939624 
L 66.338896 172.949611 
L 66.301304 172.864369 
L 66.343073 172.929668 
L 66.471163 172.736741 
L 66.365349 172.959163 
L 66.472555 172.73794 
L 66.632668 172.988828 
L 66.639629 172.967351 
L 66.699497 172.865216 
L 66.753796 172.95778 
L 66.809488 173.005335 
L 66.844295 172.933372 
L 66.85961 172.930413 
L 66.866571 172.905341 
L 66.945931 172.972721 
L 66.968208 172.953785 
L 67.029468 173.011249 
L 67.08516 172.988643 
L 67.24388 172.874222 
L 67.253626 172.893656 
L 67.352478 173.073544 
L 67.413739 173.007499 
L 67.474999 172.921439 
L 67.537652 172.982681 
L 67.852308 173.018788 
L 67.864838 173.022386 
L 67.90243 172.913919 
L 67.973436 172.819757 
L 68.020774 172.909552 
L 68.108488 173.038029 
L 68.137726 172.900164 
L 68.210124 172.768237 
L 68.257462 172.851453 
L 68.345176 172.891103 
L 68.389729 172.841254 
L 68.430105 172.814445 
L 68.409221 172.857342 
L 68.503896 172.83576 
L 68.579079 172.737936 
L 68.64034 172.829754 
L 68.704385 172.950525 
L 68.754507 172.82676 
L 68.831083 172.642992 
L 68.883989 172.776184 
L 68.928542 172.834197 
L 68.982841 172.721901 
L 69.045494 172.654328 
L 69.094224 172.744547 
L 69.127639 172.778555 
L 69.181938 172.672742 
L 69.303067 172.471677 
L 69.344835 172.547737 
L 69.392173 172.632745 
L 69.452041 172.520503 
L 69.516086 172.304589 
L 69.606584 172.430853 
L 69.638607 172.550156 
L 69.697083 172.321005 
L 70.084137 172.067219 
L 70.107806 172.128303 
L 70.130083 172.168136 
L 70.178812 171.991921 
L 70.325002 171.754578 
L 70.24425 172.069791 
L 70.350063 171.82136 
L 70.396009 172.004265 
L 70.441954 171.719621 
L 70.501822 171.436855 
L 70.551944 171.737303 
L 70.586751 171.883817 
L 70.643835 171.579732 
L 70.693957 171.399147 
L 70.760787 171.539998 
L 70.788632 171.56953 
L 70.830401 171.435075 
L 70.966845 171.06932 
L 70.997475 171.147218 
L 71.01279 171.176985 
L 71.082404 171.047321 
L 71.193787 170.795171 
L 71.249478 170.870457 
L 71.309346 170.970857 
L 71.362253 170.875585 
L 71.381745 171.047926 
L 71.480597 170.618536 
L 71.523758 170.164082 
L 71.576665 170.825778 
L 71.594764 170.937812 
L 71.639317 170.25879 
L 71.695009 169.490785 
L 71.766015 169.882748 
L 71.894105 170.019246 
L 71.913597 169.977503 
L 72.166993 168.45345 
L 72.203192 169.114331 
L 72.221292 168.95158 
L 72.39115 168.061605 
L 72.864526 165.961141 
L 72.893764 166.247929 
L 72.897941 166.28476 
L 72.949456 165.540168 
L 73.131845 164.274408 
L 73.33651 162.424902 
L 73.705465 157.577234 
L 74.503243 145.420423 
L 74.596526 145.198102 
L 74.645256 145.273377 
L 74.75107 145.8951 
L 74.979404 149.106277 
L 75.881603 163.237047 
L 76.395356 166.737121 
L 76.975938 169.077506 
L 77.01353 169.044204 
L 77.730555 170.848347 
L 77.790423 170.920243 
L 77.833584 170.799129 
L 77.972812 170.551805 
L 77.981166 170.660586 
L 78.045211 171.296348 
L 78.00205 170.471349 
L 78.09951 170.960524 
L 78.105079 170.953876 
L 78.144063 171.126902 
L 78.344552 171.611505 
L 78.354298 171.602948 
L 78.416951 171.450928 
L 78.446189 171.3845 
L 78.482388 171.592249 
L 78.521372 171.767602 
L 78.585417 171.526232 
L 78.62997 171.370585 
L 78.671739 171.618328 
L 78.713507 171.920071 
L 78.773375 171.547177 
L 78.77616 171.550109 
L 78.799829 171.891046 
L 78.829067 172.702902 
L 78.845774 171.641365 
L 78.909819 171.888123 
L 79.103346 172.225845 
L 79.115877 172.135361 
L 79.242575 172.036581 
L 79.186883 172.158819 
L 79.246751 172.044018 
L 79.469517 172.266121 
L 79.473694 172.262649 
L 79.57533 172.283172 
L 79.51407 172.305022 
L 79.585076 172.299417 
L 79.823157 172.467447 
L 80.239449 172.627397 
L 80.767124 172.747835 
L 81.016343 172.759407 
L 81.154179 172.797322 
L 81.591356 172.768164 
L 82.841626 172.460373 
L 83.188304 172.33417 
L 83.21615 172.32002 
L 83.252349 172.243132 
L 83.880269 171.718289 
L 83.917861 171.922618 
L 83.926214 171.92541 
L 83.969375 171.797784 
L 84.146195 171.563752 
L 84.165687 171.57546 
L 84.232517 171.597063 
L 84.267324 171.515919 
L 84.371745 171.350168 
L 84.431613 171.370736 
L 84.501227 171.196973 
L 84.655771 171.060762 
L 84.657163 171.061286 
L 84.697539 171.145473 
L 84.725385 170.992454 
L 84.849298 170.736608 
L 84.987134 170.579578 
L 85.480002 169.637731 
L 85.481395 169.638783 
L 85.499494 169.658778 
L 85.513417 169.53186 
L 85.54544 169.545234 
L 85.750105 168.984291 
L 86.082861 167.903747 
L 86.572944 165.407872 
L 86.986452 161.936444 
L 87.408314 156.19501 
L 88.217231 144.054806 
L 88.250645 144.094158 
L 88.339751 144.592506 
L 88.524925 147.164271 
L 89.532938 163.341057 
L 89.952015 166.307319 
L 90.591073 168.93876 
L 91.214816 170.244581 
L 91.278861 170.350498 
L 91.626931 170.934952 
L 91.636677 170.926341 
L 91.685407 170.800047 
L 91.707684 170.999434 
L 91.73553 171.201446 
L 91.770337 170.751505 
L 91.831597 171.132579 
L 92.037655 171.383031 
L 92.228398 171.55545 
L 92.843787 172.020807 
L 94.557687 172.55895 
L 96.210327 172.177182 
L 96.763063 171.830298 
L 96.775594 171.859999 
L 96.790909 171.901687 
L 96.807616 171.795883 
L 96.878623 171.819855 
L 97.168218 171.549606 
L 97.55388 171.178137 
L 97.619317 171.072696 
L 97.638809 171.083769 
L 97.79196 170.872707 
L 97.875497 170.750187 
L 98.165092 170.306708 
L 98.649607 169.326595 
L 99.25525 167.466173 
L 99.685465 165.248942 
L 100.080874 161.958402 
L 100.476282 156.647746 
L 101.300513 143.97683 
L 101.342282 144.042425 
L 101.449488 144.731012 
L 101.673645 147.968466 
L 102.614829 162.759198 
L 103.07289 166.10932 
L 103.433491 167.800098 
L 103.906867 169.193091 
L 104.338475 170.102435 
L 105.164099 171.206796 
L 106.32387 172.017809 
L 107.093803 172.240455 
L 108.17143 172.223455 
L 108.566838 172.092905 
L 108.895417 171.977616 
L 109.499668 171.591158 
L 110.898912 169.941855 
L 111.407095 168.834171 
L 111.955655 166.968114 
L 112.377517 164.626409 
L 112.77571 161.063775 
L 113.193395 155.103656 
L 113.917382 144.603255 
L 113.974465 144.538579 
L 114.024587 144.631772 
L 114.142932 145.40105 
L 114.375443 148.692006 
L 115.272073 162.55525 
L 115.73988 165.952111 
L 116.266163 168.143285 
L 117.082041 170.013915 
L 117.6668 170.813533 
L 118.303073 171.402602 
L 118.30725 171.393055 
L 118.339272 171.405837 
L 118.396356 171.457511 
L 118.88087 171.719657 
L 119.822054 171.948333 
L 120.385928 171.93957 
L 121.224083 171.668599 
L 122.417269 170.716357 
L 123.233147 169.479937 
L 123.74133 168.241187 
L 124.193822 166.574679 
L 124.646314 163.915338 
L 125.048684 160.058523 
L 125.481684 153.582639 
L 126.11378 144.371745 
L 126.18061 144.257638 
L 126.232124 144.35282 
L 126.350469 145.150649 
L 126.591333 148.653344 
L 127.444803 161.887763 
L 127.909825 165.451834 
L 128.415224 167.704065 
L 128.997198 169.25693 
L 129.620941 170.302815 
L 130.276706 171.012545 
L 131.166375 171.540296 
L 131.804041 171.683209 
L 132.541951 171.626437 
L 133.257584 171.339076 
L 133.982964 170.782011 
L 134.830864 169.648625 
L 135.446253 168.267801 
L 135.91406 166.598409 
L 136.315038 164.388355 
L 136.732723 160.679995 
L 137.1518 154.72378 
L 137.911986 143.572806 
L 137.956539 143.53495 
L 138.005269 143.631051 
L 138.125005 144.456769 
L 138.357517 147.992255 
L 139.191494 161.629853 
L 139.656517 165.272917 
L 140.175838 167.59591 
L 140.72579 169.085166 
L 141.352317 170.152247 
L 141.996944 170.84241 
L 142.716755 171.280216 
L 143.458842 171.438256 
L 144.136883 171.351846 
L 144.842771 171.005591 
L 145.790915 170.056933 
L 146.797536 167.98332 
L 147.254205 166.280508 
L 147.687205 163.738755 
L 148.088182 159.93941 
L 148.50726 153.637075 
L 149.242385 142.23594 
L 149.296684 142.334193 
L 149.408067 143.206375 
L 149.644755 147.243308 
L 150.385449 160.22102 
L 150.850472 164.385158 
L 151.341948 166.914912 
L 151.843169 168.483053 
L 152.429321 169.646951 
L 153.068379 170.438695 
L 153.717182 170.906243 
L 154.360417 171.111399 
L 155.006436 171.085446 
L 155.637141 170.83657 
L 156.245568 170.358365 
L 156.898549 169.503658 
L 157.506977 168.243756 
L 157.98453 166.71047 
L 158.445375 164.355528 
L 158.85053 161.002334 
L 159.245938 155.69704 
L 160.098015 142.49053 
L 160.145353 142.563331 
L 160.255343 143.254741 
L 160.480893 146.412215 
L 161.486121 162.067368 
L 161.958105 165.387412 
L 162.459327 167.451376 
L 163.009279 168.834938 
L 163.612137 169.782586 
L 164.242842 170.378768 
L 164.870761 170.676005 
L 165.476404 170.721985 
L 166.084832 170.538556 
L 166.664022 170.128675 
L 167.349025 169.276111 
L 167.950491 168.071399 
L 168.460067 166.452348 
L 168.915343 164.156999 
L 169.333028 160.765003 
L 169.746536 155.37768 
L 170.637597 142.835017 
L 170.644559 142.836627 
L 170.709996 142.989057 
L 170.842263 144.031698 
L 171.109581 148.329053 
L 171.839137 160.128321 
L 172.309729 164.102271 
L 172.797028 166.483242 
L 173.351157 168.130353 
L 173.9387 169.204216 
L 174.549912 169.880317 
L 175.149986 170.225741 
L 175.727784 170.30596 
L 176.29862 170.157502 
L 176.879202 169.740676 
L 177.430546 169.084097 
L 178.080742 167.818694 
L 178.594494 166.195556 
L 179.028887 164.042195 
L 179.478594 160.402327 
L 179.892102 154.953946 
L 180.766456 142.325683 
L 180.783163 142.335109 
L 180.858346 142.576762 
L 181.01289 144.011992 
L 181.344253 149.718175 
L 181.97635 159.766021 
L 182.446941 163.825858 
L 182.963478 166.36673 
L 183.488369 167.924704 
L 184.063382 168.982497 
L 184.648141 169.621605 
L 185.209231 169.925248 
L 185.768928 169.970356 
L 186.295211 169.784781 
L 186.783903 169.399434 
L 187.226649 168.830521 
L 187.805838 167.703003 
L 188.333514 166.035472 
L 188.762337 163.881551 
L 189.171668 160.621066 
L 189.585176 155.34216 
L 190.529144 140.86679 
L 190.601543 141.058643 
L 190.735202 142.35257 
L 191.026189 147.919441 
L 191.634616 158.712499 
L 192.098247 163.114761 
L 192.585546 165.764025 
L 193.099298 167.451502 
L 193.643681 168.553282 
L 194.201986 169.225547 
L 194.750546 169.553025 
L 195.264298 169.604996 
L 195.769697 169.42881 
L 196.212443 169.050981 
L 196.731764 168.356533 
L 197.285893 167.127002 
L 197.764838 165.457575 
L 198.208977 163.007971 
L 198.612739 159.429801 
L 199.013716 153.706901 
L 199.833771 140.218324 
L 199.881108 140.303099 
L 199.991099 141.101236 
L 200.226395 144.828385 
L 201.102141 159.618011 
L 201.572732 163.550486 
L 202.078131 165.978863 
L 202.594668 167.463634 
L 203.14462 168.414843 
L 203.680649 168.92622 
L 204.167948 169.109991 
L 204.631578 169.05825 
L 205.205198 168.687739 
L 205.699459 168.027193 
L 206.195112 166.989955 
L 206.707472 165.30209 
L 207.126549 163.127332 
L 207.538665 159.74191 
L 207.947996 154.348311 
L 208.868295 140.955006 
L 208.88361 140.961925 
L 208.957401 141.178022 
L 209.104983 142.481952 
L 209.401539 147.562102 
L 210.071227 158.615834 
L 210.541819 162.765018 
L 211.03051 165.254835 
L 211.549832 166.83927 
L 212.092822 167.831579 
L 212.568983 168.314483 
L 213.06742 168.511152 
L 213.447514 168.460277 
L 214.131125 167.948871 
L 214.603108 167.205918 
L 215.121038 165.89676 
L 215.584668 164.04265 
L 216.012099 161.34259 
L 216.422822 157.198459 
L 216.866961 150.191949 
L 217.493488 140.569493 
L 217.567279 140.423053 
L 217.618793 140.51402 
L 217.735745 141.281752 
L 217.969649 144.62664 
L 218.937285 159.868443 
L 219.414838 163.403007 
L 219.910491 165.548735 
L 220.478543 166.995171 
L 220.98951 167.716028 
L 221.450356 168.015696 
L 221.880572 168.043581 
L 222.461154 167.66094 
L 222.784163 167.240162 
L 223.247793 166.305967 
L 223.70307 164.841473 
L 224.122147 162.745766 
L 224.528694 159.539192 
L 224.938025 154.383348 
L 225.497723 143.936874 
L 225.870854 138.906302 
L 225.939076 138.75969 
L 225.991983 138.869844 
L 226.107543 139.794756 
L 226.341446 143.908068 
L 227.098848 157.805282 
L 227.562478 162.055809 
L 228.05117 164.629052 
L 228.548215 166.17388 
L 229.050829 167.076409 
L 229.50889 167.483418 
L 229.937713 167.561686 
L 230.280215 167.425865 
L 230.654739 167.061885 
L 231.066854 166.36692 
L 231.519346 165.142252 
L 231.925893 163.441686 
L 232.342186 160.745745 
L 232.743163 156.584335 
L 233.153887 149.761168 
L 233.85142 137.858485 
L 233.877874 137.859794 
L 233.914073 137.947311 
L 234.026848 138.811939 
L 234.270498 142.817996 
L 235.140674 157.905947 
L 235.612658 161.990287 
L 236.098565 164.39119 
L 236.59561 165.812931 
L 237.068986 166.556686 
L 237.490848 166.841207 
L 237.862588 166.830443 
L 238.228758 166.583359 
L 238.689604 165.897984 
L 239.142096 164.734682 
L 239.576488 162.949621 
L 239.996957 160.22132 
L 240.402112 156.011481 
L 240.849035 148.753949 
L 241.478346 138.883702 
L 241.58416 138.594664 
L 241.630105 138.664606 
L 241.738703 139.308281 
L 241.946154 142.17075 
L 243.004289 158.988515 
L 243.483234 162.322889 
L 243.980279 164.317103 
L 244.457832 165.406995 
L 244.888047 165.899959 
L 245.254218 166.014403 
L 245.630134 165.852127 
L 246.000482 165.403134 
L 246.420951 164.492982 
L 246.869266 162.897053 
L 247.296697 160.462605 
L 247.706028 156.724523 
L 248.125105 150.648736 
L 248.967436 137.713535 
L 249.005028 137.726409 
L 249.035658 137.797035 
L 249.15261 138.542589 
L 249.376768 141.720964 
L 250.432118 158.710213 
L 250.904102 162.019733 
L 251.387224 163.952097 
L 251.846678 164.96378 
L 252.243478 165.365333 
L 252.570665 165.412539 
L 252.883928 165.224064 
L 253.230607 164.733355 
L 253.621838 163.761551 
L 254.038131 162.076138 
L 254.444678 159.44728 
L 254.84844 155.271864 
L 255.277263 148.284826 
L 256.04998 135.172137 
L 256.054157 135.173344 
L 256.109848 135.332772 
L 256.232369 136.56697 
L 256.505256 142.174442 
L 257.138745 154.495053 
L 257.60516 159.387245 
L 258.075752 162.177597 
L 258.540774 163.720746 
L 258.957067 164.425787 
L 259.298176 164.624131 
L 259.584986 164.549483 
L 259.869012 164.246969 
L 260.231006 163.514223 
L 260.625022 162.162409 
L 261.030176 159.924148 
L 261.428369 156.383809 
L 261.82517 150.675695 
L 262.728761 135.511673 
L 262.777491 135.585529 
L 262.890266 136.272818 
L 263.110247 139.278423 
L 264.297864 158.132818 
L 264.75871 161.017202 
L 265.213986 162.584674 
L 265.610787 163.255578 
L 265.919874 163.415024 
L 266.194154 163.307544 
L 266.492102 162.918995 
L 266.833211 162.090928 
L 267.22862 160.500429 
L 267.63099 157.899458 
L 268.040321 153.690761 
L 268.488636 146.522693 
L 269.195916 135.186962 
L 269.252999 135.101889 
L 269.304514 135.203043 
L 269.42425 136.054037 
L 269.6679 139.752161 
L 270.634144 155.662871 
L 271.103343 159.344557 
L 271.555835 161.305834 
L 271.956813 162.179645 
L 272.268684 162.412893 
L 272.51651 162.341064 
L 272.786613 162.000268 
L 273.1138 161.184702 
L 273.486932 159.587432 
L 273.875379 156.86216 
L 274.270787 152.3745 
L 274.71771 144.452029 
L 275.408282 132.35087 
L 275.461189 132.254675 
L 275.512703 132.379057 
L 275.626871 133.426792 
L 275.862166 138.151741 
L 276.566662 152.570807 
L 277.020546 157.278607 
L 277.467469 159.817133 
L 277.872623 160.991621 
L 278.191456 161.346517 
L 278.425359 161.321222 
L 278.670401 161.037098 
L 278.971134 160.301114 
L 279.32199 158.802531 
L 279.702083 156.122971 
L 280.086353 151.697218 
L 280.490115 144.205207 
L 281.157019 131.64772 
L 281.204356 131.584197 
L 281.257263 131.696566 
L 281.381176 132.627346 
L 281.634572 136.584901 
L 282.659292 154.242721 
L 283.099253 157.475477 
L 283.5058 159.008601 
L 283.830202 159.511432 
L 284.058536 159.533112 
L 284.278517 159.301509 
L 284.555581 158.642004 
L 284.891121 157.217421 
L 285.269822 154.561489 
L 285.673584 150.011657 
L 286.138607 141.947172 
L 286.776273 131.257109 
L 286.850064 131.093673 
L 286.90297 131.193767 
L 287.022707 132.040149 
L 287.267748 135.721955 
L 288.323099 153.20027 
L 288.760276 156.33635 
L 289.140369 157.675261 
L 289.420218 158.014737 
L 289.609568 157.959784 
L 289.82398 157.620409 
L 290.103829 156.697983 
L 290.439369 154.738886 
L 290.808324 151.143135 
L 291.213478 144.787306 
L 291.834437 130.698573 
L 292.130993 126.6541 
L 292.154662 126.639622 
L 292.197822 126.759779 
L 292.30642 127.878881 
L 292.547285 133.287423 
L 293.197482 147.593457 
L 293.647189 152.783132 
L 294.052343 155.201071 
L 294.372568 156.016245 
L 294.584195 156.100146 
L 294.759623 155.904174 
L 294.994919 155.248255 
L 295.295652 153.67117 
L 295.639546 150.580065 
L 296.01407 145.015493 
L 296.568199 132.649488 
L 296.920446 127.402561 
L 297.058282 126.951541 
L 297.094482 126.990304 
L 297.191941 127.433992 
L 297.365977 129.48715 
L 297.753031 137.554562 
L 298.284883 146.645156 
L 298.723453 150.699833 
L 299.0938 152.368599 
L 299.356941 152.756719 
L 299.517054 152.689942 
L 299.709189 152.302061 
L 299.970938 151.197398 
L 300.292556 148.766844 
L 300.651765 144.206949 
L 301.079195 135.580373 
L 301.714076 123.229297 
L 301.860266 122.514552 
L 301.896465 122.568251 
L 301.988356 123.185866 
L 302.162392 126.214242 
L 303.156482 146.829104 
L 303.526829 149.408403 
L 303.801109 150.089613 
L 303.952867 150.066767 
L 304.115765 149.728184 
L 304.349668 148.642127 
L 304.647617 146.071371 
L 304.985941 141.015301 
L 305.377173 131.393836 
L 305.889533 119.633495 
L 305.995347 119.271087 
L 306.041292 119.336573 
L 306.161028 119.978883 
L 306.378224 122.539862 
L 306.737433 130.081205 
L 307.249793 139.212405 
L 307.642417 142.669217 
L 307.94315 143.738604 
L 308.104655 143.805383 
L 308.115793 143.796992 
L 308.260591 143.533235 
L 308.47361 142.598361 
L 308.753459 140.242855 
L 309.08343 135.374412 
L 309.510861 125.233413 
L 310.165234 110.658398 
L 310.257125 110.158939 
L 310.307247 110.329856 
L 310.414453 111.835202 
L 310.672025 119.55935 
L 311.132871 131.127086 
L 311.514356 135.679057 
L 311.77889 136.805669 
L 311.85825 136.809588 
L 311.890273 136.76513 
L 312.021147 136.296396 
L 312.22442 134.583763 
L 312.502877 130.063324 
L 312.951192 118.338778 
L 313.538736 105.228894 
L 313.854784 100.93256 
L 314.257154 98.925493 
L 314.315629 99.113195 
L 314.427012 100.566204 
L 314.627501 105.963261 
L 314.627501 105.963261 
" clip-path="url(#p64e63f7a03)" style="fill: none; stroke: #61afef; stroke-width: 1.5; stroke-linecap: square"/>
   </g>
   <g id="line2d_17">
    <defs>
     <path id="m390c127124" d="M 0 1.5 
C 0.397805 1.5 0.77937 1.341951 1.06066 1.06066 
C 1.341951 0.77937 1.5 0.397805 1.5 0 
C 1.5 -0.397805 1.341951 -0.77937 1.06066 -1.06066 
C 0.77937 -1.341951 0.397805 -1.5 0 -1.5 
C -0.397805 -1.5 -0.77937 -1.341951 -1.06066 -1.06066 
C -1.341951 -0.77937 -1.5 -0.397805 -1.5 0 
C -1.5 0.397805 -1.341951 0.77937 -1.06066 1.06066 
C -0.77937 1.341951 -0.397805 1.5 0 1.5 
z
" style="stroke: #e5c07b"/>
    </defs>
    <g clip-path="url(#p64e63f7a03)">
     <use xlink:href="#m390c127124" x="74.585388" y="145.20018" style="fill: #e5c07b; stroke: #e5c07b"/>
     <use xlink:href="#m390c127124" x="88.225584" y="144.057705" style="fill: #e5c07b; stroke: #e5c07b"/>
     <use xlink:href="#m390c127124" x="101.338105" y="144.030229" style="fill: #e5c07b; stroke: #e5c07b"/>
     <use xlink:href="#m390c127124" x="114.009272" y="144.588221" style="fill: #e5c07b; stroke: #e5c07b"/>
     <use xlink:href="#m390c127124" x="126.184787" y="144.259346" style="fill: #e5c07b; stroke: #e5c07b"/>
     <use xlink:href="#m390c127124" x="137.935655" y="143.538224" style="fill: #e5c07b; stroke: #e5c07b"/>
     <use xlink:href="#m390c127124" x="149.2577" y="142.241272" style="fill: #e5c07b; stroke: #e5c07b"/>
     <use xlink:href="#m390c127124" x="160.146745" y="142.56762" style="fill: #e5c07b; stroke: #e5c07b"/>
     <use xlink:href="#m390c127124" x="170.66962" y="142.865658" style="fill: #e5c07b; stroke: #e5c07b"/>
     <use xlink:href="#m390c127124" x="180.758102" y="142.327108" style="fill: #e5c07b; stroke: #e5c07b"/>
     <use xlink:href="#m390c127124" x="190.522182" y="140.867876" style="fill: #e5c07b; stroke: #e5c07b"/>
     <use xlink:href="#m390c127124" x="199.868578" y="140.264716" style="fill: #e5c07b; stroke: #e5c07b"/>
     <use xlink:href="#m390c127124" x="208.91424" y="141.014846" style="fill: #e5c07b; stroke: #e5c07b"/>
     <use xlink:href="#m390c127124" x="217.558925" y="140.423246" style="fill: #e5c07b; stroke: #e5c07b"/>
     <use xlink:href="#m390c127124" x="225.925154" y="138.763651" style="fill: #e5c07b; stroke: #e5c07b"/>
     <use xlink:href="#m390c127124" x="233.901543" y="137.90597" style="fill: #e5c07b; stroke: #e5c07b"/>
     <use xlink:href="#m390c127124" x="241.621752" y="138.642907" style="fill: #e5c07b; stroke: #e5c07b"/>
     <use xlink:href="#m390c127124" x="248.957691" y="137.723562" style="fill: #e5c07b; stroke: #e5c07b"/>
     <use xlink:href="#m390c127124" x="256.04998" y="135.172137" style="fill: #e5c07b; stroke: #e5c07b"/>
     <use xlink:href="#m390c127124" x="262.794199" y="135.643179" style="fill: #e5c07b; stroke: #e5c07b"/>
     <use xlink:href="#m390c127124" x="269.244646" y="135.101355" style="fill: #e5c07b; stroke: #e5c07b"/>
     <use xlink:href="#m390c127124" x="275.440305" y="132.266134" style="fill: #e5c07b; stroke: #e5c07b"/>
     <use xlink:href="#m390c127124" x="281.267009" y="131.73729" style="fill: #e5c07b; stroke: #e5c07b"/>
     <use xlink:href="#m390c127124" x="286.833356" y="131.09953" style="fill: #e5c07b; stroke: #e5c07b"/>
     <use xlink:href="#m390c127124" x="292.143523" y="126.639406" style="fill: #e5c07b; stroke: #e5c07b"/>
     <use xlink:href="#m390c127124" x="297.130681" y="127.096452" style="fill: #e5c07b; stroke: #e5c07b"/>
     <use xlink:href="#m390c127124" x="301.782298" y="122.726761" style="fill: #e5c07b; stroke: #e5c07b"/>
     <use xlink:href="#m390c127124" x="306.130398" y="119.758515" style="fill: #e5c07b; stroke: #e5c07b"/>
     <use xlink:href="#m390c127124" x="310.198649" y="110.366337" style="fill: #e5c07b; stroke: #e5c07b"/>
     <use xlink:href="#m390c127124" x="313.740617" y="101.819408" style="fill: #e5c07b; stroke: #e5c07b"/>
    </g>
   </g>
   <g id="line2d_18">
    <defs>
     <path id="ma78a162146" d="M -1.5 1.5 
L 1.5 1.5 
L 1.5 -1.5 
L -1.5 -1.5 
z
" style="stroke: #98c379; stroke-linejoin: miter"/>
    </defs>
    <g clip-path="url(#p64e63f7a03)">
     <use xlink:href="#ma78a162146" x="67.447153" y="172.945491" style="fill: #98c379; stroke: #98c379; stroke-linejoin: miter"/>
     <use xlink:href="#ma78a162146" x="81.399221" y="172.778345" style="fill: #98c379; stroke: #98c379; stroke-linejoin: miter"/>
     <use xlink:href="#ma78a162146" x="94.813867" y="172.55295" style="fill: #98c379; stroke: #98c379; stroke-linejoin: miter"/>
     <use xlink:href="#ma78a162146" x="107.698054" y="172.27327" style="fill: #98c379; stroke: #98c379; stroke-linejoin: miter"/>
     <use xlink:href="#ma78a162146" x="120.106079" y="171.957131" style="fill: #98c379; stroke: #98c379; stroke-linejoin: miter"/>
     <use xlink:href="#ma78a162146" x="132.088067" y="171.688987" style="fill: #98c379; stroke: #98c379; stroke-linejoin: miter"/>
     <use xlink:href="#ma78a162146" x="143.605031" y="171.439462" style="fill: #98c379; stroke: #98c379; stroke-linejoin: miter"/>
     <use xlink:href="#ma78a162146" x="154.718234" y="171.124937" style="fill: #98c379; stroke: #98c379; stroke-linejoin: miter"/>
     <use xlink:href="#ma78a162146" x="165.412359" y="170.728234" style="fill: #98c379; stroke: #98c379; stroke-linejoin: miter"/>
     <use xlink:href="#ma78a162146" x="175.720822" y="170.3064" style="fill: #98c379; stroke: #98c379; stroke-linejoin: miter"/>
     <use xlink:href="#ma78a162146" x="185.645015" y="169.981701" style="fill: #98c379; stroke: #98c379; stroke-linejoin: miter"/>
     <use xlink:href="#ma78a162146" x="195.197469" y="169.611983" style="fill: #98c379; stroke: #98c379; stroke-linejoin: miter"/>
     <use xlink:href="#ma78a162146" x="204.396282" y="169.111446" style="fill: #98c379; stroke: #98c379; stroke-linejoin: miter"/>
     <use xlink:href="#ma78a162146" x="213.235887" y="168.504168" style="fill: #98c379; stroke: #98c379; stroke-linejoin: miter"/>
     <use xlink:href="#ma78a162146" x="221.74552" y="168.048982" style="fill: #98c379; stroke: #98c379; stroke-linejoin: miter"/>
     <use xlink:href="#ma78a162146" x="229.91126" y="167.56319" style="fill: #98c379; stroke: #98c379; stroke-linejoin: miter"/>
     <use xlink:href="#ma78a162146" x="237.762343" y="166.856592" style="fill: #98c379; stroke: #98c379; stroke-linejoin: miter"/>
     <use xlink:href="#ma78a162146" x="245.291809" y="166.009441" style="fill: #98c379; stroke: #98c379; stroke-linejoin: miter"/>
     <use xlink:href="#ma78a162146" x="252.502443" y="165.423113" style="fill: #98c379; stroke: #98c379; stroke-linejoin: miter"/>
     <use xlink:href="#ma78a162146" x="259.427658" y="164.616368" style="fill: #98c379; stroke: #98c379; stroke-linejoin: miter"/>
     <use xlink:href="#ma78a162146" x="266.017334" y="163.404909" style="fill: #98c379; stroke: #98c379; stroke-linejoin: miter"/>
     <use xlink:href="#ma78a162146" x="272.343867" y="162.415056" style="fill: #98c379; stroke: #98c379; stroke-linejoin: miter"/>
     <use xlink:href="#ma78a162146" x="278.357137" y="161.353154" style="fill: #98c379; stroke: #98c379; stroke-linejoin: miter"/>
     <use xlink:href="#ma78a162146" x="284.057144" y="159.533784" style="fill: #98c379; stroke: #98c379; stroke-linejoin: miter"/>
     <use xlink:href="#ma78a162146" x="289.495401" y="158.020405" style="fill: #98c379; stroke: #98c379; stroke-linejoin: miter"/>
     <use xlink:href="#ma78a162146" x="294.637102" y="156.066725" style="fill: #98c379; stroke: #98c379; stroke-linejoin: miter"/>
     <use xlink:href="#ma78a162146" x="299.455793" y="152.742597" style="fill: #98c379; stroke: #98c379; stroke-linejoin: miter"/>
     <use xlink:href="#ma78a162146" x="303.958437" y="150.060611" style="fill: #98c379; stroke: #98c379; stroke-linejoin: miter"/>
     <use xlink:href="#ma78a162146" x="308.157562" y="143.750519" style="fill: #98c379; stroke: #98c379; stroke-linejoin: miter"/>
     <use xlink:href="#ma78a162146" x="312.011401" y="136.347717" style="fill: #98c379; stroke: #98c379; stroke-linejoin: miter"/>
    </g>
   </g>
   <g id="line2d_19">
    <path d="M 74.585388 144.941971 
L 114.191661 144.109585 
L 146.222523 143.221402 
L 172.464272 142.278297 
L 194.196417 141.281431 
L 212.354571 140.232322 
L 227.636269 139.132856 
L 240.566401 137.985652 
L 251.547337 136.794075 
L 260.893732 135.562077 
L 268.856199 134.294033 
L 275.635224 132.995138 
L 281.40206 131.6696 
L 286.301504 130.321058 
L 290.461646 128.951073 
L 293.996652 127.558332 
L 297.006768 126.138596 
L 299.581099 124.683245 
L 301.794829 123.180452 
L 303.713395 121.612549 
L 305.391096 119.956258 
L 306.871093 118.183054 
L 308.188192 116.256679 
L 309.37024 114.13056 
L 310.439514 111.743508 
L 311.41272 109.01655 
L 312.011401 106.970912 
L 312.011401 106.970912 
" clip-path="url(#p64e63f7a03)" style="fill: none; stroke-dasharray: 5.55,2.4; stroke-dashoffset: 0; stroke: #e5c07b; stroke-width: 1.5"/>
   </g>
   <g id="line2d_20">
    <path d="M 74.585388 172.859568 
L 116.316285 172.079747 
L 149.505526 171.245099 
L 176.28052 170.356843 
L 198.132401 169.416585 
L 216.13462 168.426279 
L 231.0766 167.388276 
L 243.552848 166.305134 
L 254.017247 165.17979 
L 262.827613 164.014867 
L 270.267973 162.812837 
L 276.569446 161.57545 
L 281.922774 160.303356 
L 286.486678 158.995797 
L 290.394816 157.649965 
L 293.757179 156.261728 
L 296.667051 154.824199 
L 299.20379 153.326752 
L 301.430051 151.757507 
L 303.400131 150.09913 
L 305.158584 148.329407 
L 306.740218 146.422102 
L 308.174269 144.342856 
L 309.483015 142.050512 
L 310.685948 139.489261 
L 311.795597 136.594977 
L 312.011401 135.956775 
L 312.011401 135.956775 
" clip-path="url(#p64e63f7a03)" style="fill: none; stroke-dasharray: 5.55,2.4; stroke-dashoffset: 0; stroke: #98c379; stroke-width: 1.5"/>
   </g>
   <g id="patch_6">
    <path d="M 48.309319 177.325173 
L 48.309319 95.19184 
" style="fill: none; stroke: #ffffff; stroke-width: 0.8; stroke-linejoin: miter; stroke-linecap: square"/>
   </g>
   <g id="patch_7">
    <path d="M 48.309319 177.325173 
L 327.309319 177.325173 
" style="fill: none; stroke: #ffffff; stroke-width: 0.8; stroke-linejoin: miter; stroke-linecap: square"/>
   </g>
   <g id="legend_1">
    <g id="line2d_21">
     <g>
      <use xlink:href="#m390c127124" x="69.209319" y="105.354351" style="fill: #e5c07b; stroke: #e5c07b"/>
     </g>
    </g>
    <g id="text_14">
     <!-- Pericenters -->
     <g style="fill: #ffffff" transform="translate(89.009319 109.204351) scale(0.11 -0.11)">
      <defs>
       <path id="CMSS17-50" d="M 2106 1856 
C 2874 1856 3501 2447 3501 3139 
C 3501 3818 2899 4416 2067 4416 
L 570 4416 
L 570 0 
L 1107 0 
L 1107 1856 
L 2106 1856 
z
M 1926 4057 
C 2669 4057 2995 3598 2995 3139 
C 2995 2711 2694 2227 1926 2227 
L 1094 2227 
L 1094 4057 
L 1926 4057 
z
" transform="scale(0.015625)"/>
       <path id="CMSS17-65" d="M 2502 1375 
C 2502 1587 2490 2001 2285 2347 
C 2061 2713 1696 2816 1421 2816 
C 755 2816 192 2184 192 1363 
C 192 579 774 -64 1510 -64 
C 1798 -64 2150 19 2470 249 
C 2470 275 2458 414 2451 421 
C 2451 433 2432 629 2432 655 
C 2125 408 1773 326 1517 326 
C 1107 326 666 667 646 1375 
L 2502 1375 
z
M 698 1728 
C 781 2086 1062 2425 1421 2425 
C 1517 2425 1965 2412 2080 1728 
L 698 1728 
z
" transform="scale(0.015625)"/>
       <path id="CMSS17-72" d="M 954 1369 
C 954 1974 1395 2379 1958 2392 
L 1958 2816 
C 1549 2809 1165 2604 934 2270 
L 934 2783 
L 480 2783 
L 480 0 
L 954 0 
L 954 1369 
z
" transform="scale(0.015625)"/>
       <path id="CMSS17-69" d="M 979 4224 
L 442 4224 
L 442 3686 
L 979 3686 
L 979 4224 
z
M 947 2752 
L 474 2752 
L 474 0 
L 947 0 
L 947 2752 
z
" transform="scale(0.015625)"/>
       <path id="CMSS17-63" d="M 2464 2540 
C 2464 2585 2170 2713 2093 2739 
C 1882 2816 1613 2816 1542 2816 
C 710 2816 211 2092 211 1363 
C 211 595 768 -64 1517 -64 
C 1946 -64 2253 76 2502 243 
L 2464 665 
C 2189 454 1869 339 1523 339 
C 1024 339 698 774 698 1369 
C 698 1830 909 2412 1549 2412 
C 1901 2412 2099 2342 2394 2143 
L 2464 2540 
z
" transform="scale(0.015625)"/>
       <path id="CMSS17-6e" d="M 2618 1878 
C 2618 2283 2522 2816 1798 2816 
C 1389 2816 1120 2604 941 2386 
L 941 2783 
L 474 2783 
L 474 0 
L 960 0 
L 960 1556 
C 960 1962 1114 2425 1549 2425 
C 2112 2425 2131 2045 2131 1826 
L 2131 0 
L 2618 0 
L 2618 1878 
z
" transform="scale(0.015625)"/>
       <path id="CMSS17-74" d="M 1069 2380 
L 1901 2380 
L 1901 2752 
L 1069 2752 
L 1069 3520 
L 614 3520 
L 614 2752 
L 109 2752 
L 109 2380 
L 602 2380 
L 602 751 
C 602 384 685 -64 1107 -64 
C 1427 -64 1722 25 2003 172 
L 1901 551 
C 1747 416 1562 339 1363 339 
C 1082 339 1069 699 1069 860 
L 1069 2380 
z
" transform="scale(0.015625)"/>
       <path id="CMSS17-73" d="M 2061 2623 
C 1683 2803 1389 2816 1197 2816 
C 742 2816 198 2655 198 2009 
C 198 1363 902 1222 1094 1183 
C 1389 1126 1715 1062 1715 742 
C 1715 339 1254 339 1171 339 
C 915 339 563 409 243 639 
L 166 211 
C 531 0 883 -64 1178 -64 
C 1965 -64 2163 416 2163 780 
C 2163 1094 1984 1305 1862 1401 
C 1651 1567 1574 1587 1050 1695 
C 960 1708 646 1779 646 2067 
C 646 2431 1050 2431 1139 2431 
C 1555 2431 1811 2303 1984 2207 
L 2061 2623 
z
" transform="scale(0.015625)"/>
      </defs>
      <use xlink:href="#CMSS17-50" transform="scale(0.996264)"/>
      <use xlink:href="#CMSS17-65" transform="translate(57.133132 0) scale(0.996264)"/>
      <use xlink:href="#CMSS17-72" transform="translate(98.771954 0) scale(0.996264)"/>
      <use xlink:href="#CMSS17-69" transform="translate(130.681727 0) scale(0.996264)"/>
      <use xlink:href="#CMSS17-63" transform="translate(152.86245 0) scale(0.996264)"/>
      <use xlink:href="#CMSS17-65" transform="translate(194.501272 0) scale(0.996264)"/>
      <use xlink:href="#CMSS17-6e" transform="translate(236.140094 0) scale(0.996264)"/>
      <use xlink:href="#CMSS17-74" transform="translate(284.345037 0) scale(0.996264)"/>
      <use xlink:href="#CMSS17-65" transform="translate(318.176604 0) scale(0.996264)"/>
      <use xlink:href="#CMSS17-72" transform="translate(359.815426 0) scale(0.996264)"/>
      <use xlink:href="#CMSS17-73" transform="translate(391.725199 0) scale(0.996264)"/>
     </g>
    </g>
    <g id="line2d_22">
     <g>
      <use xlink:href="#ma78a162146" x="69.209319" y="120.685246" style="fill: #98c379; stroke: #98c379; stroke-linejoin: miter"/>
     </g>
    </g>
    <g id="text_15">
     <!-- Apocenters -->
     <g style="fill: #ffffff" transform="translate(89.009319 124.535246) scale(0.11 -0.11)">
      <defs>
       <path id="CMSS17-41" d="M 2272 4416 
L 1722 4416 
L 166 0 
L 653 0 
L 1101 1280 
L 2816 1280 
L 3270 0 
L 3827 0 
L 2272 4416 
z
M 2694 1638 
L 1222 1638 
C 1530 2530 1914 3638 1958 3924 
L 1965 3924 
C 2010 3663 2138 3281 2246 2956 
L 2694 1638 
z
" transform="scale(0.015625)"/>
       <path id="CMSS17-70" d="M 966 275 
C 1178 70 1466 -64 1773 -64 
C 2368 -64 2880 553 2880 1382 
C 2880 2147 2496 2816 1946 2816 
C 1626 2816 1242 2700 954 2470 
L 954 2764 
L 480 2764 
L 480 -1280 
L 966 -1280 
L 966 275 
z
M 966 2088 
C 1018 2166 1235 2412 1587 2412 
C 2035 2412 2394 1946 2394 1382 
C 2394 741 1958 326 1530 326 
C 1402 326 1267 358 1139 468 
C 966 624 966 721 966 812 
L 966 2088 
z
" transform="scale(0.015625)"/>
       <path id="CMSS17-6f" d="M 2829 1356 
C 2829 2175 2221 2816 1504 2816 
C 768 2816 173 2156 173 1356 
C 173 544 787 -64 1498 -64 
C 2227 -64 2829 563 2829 1356 
z
M 1504 339 
C 1050 339 659 710 659 1407 
C 659 2150 1114 2425 1498 2425 
C 1914 2425 2342 2124 2342 1407 
C 2342 684 1926 339 1504 339 
z
" transform="scale(0.015625)"/>
      </defs>
      <use xlink:href="#CMSS17-41" transform="scale(0.996264)"/>
      <use xlink:href="#CMSS17-70" transform="translate(62.217855 0) scale(0.996264)"/>
      <use xlink:href="#CMSS17-6f" transform="translate(113.025237 0) scale(0.996264)"/>
      <use xlink:href="#CMSS17-63" transform="translate(162.471299 0) scale(0.996264)"/>
      <use xlink:href="#CMSS17-65" transform="translate(204.110121 0) scale(0.996264)"/>
      <use xlink:href="#CMSS17-6e" transform="translate(245.748943 0) scale(0.996264)"/>
      <use xlink:href="#CMSS17-74" transform="translate(293.953886 0) scale(0.996264)"/>
      <use xlink:href="#CMSS17-65" transform="translate(327.785453 0) scale(0.996264)"/>
      <use xlink:href="#CMSS17-72" transform="translate(369.424275 0) scale(0.996264)"/>
      <use xlink:href="#CMSS17-73" transform="translate(401.334048 0) scale(0.996264)"/>
     </g>
    </g>
    <g id="line2d_23">
     <path d="M 162.24232 105.354351 
L 173.24232 105.354351 
L 184.24232 105.354351 
" style="fill: none; stroke-dasharray: 5.55,2.4; stroke-dashoffset: 0; stroke: #e5c07b; stroke-width: 1.5"/>
    </g>
    <g id="text_16">
     <!-- $\omega^{\mathrm{p}}_{\mathrm{gw}}$$(t)$ -->
     <g style="fill: #ffffff" transform="translate(193.04232 109.204351) scale(0.11 -0.11)">
      <defs>
       <path id="CMR17-70" d="M 1408 -1114 
C 998 -1114 973 -1088 973 -834 
L 973 380 
C 1158 109 1427 -64 1766 -64 
C 2406 -64 3053 503 3053 1382 
C 3053 2196 2496 2816 1837 2816 
C 1453 2816 1139 2603 960 2345 
L 960 2816 
L 198 2745 
L 198 2577 
C 576 2577 634 2539 634 2228 
L 634 -834 
C 634 -1081 608 -1114 198 -1114 
L 198 -1280 
C 352 -1268 634 -1268 800 -1268 
C 966 -1268 1254 -1268 1408 -1280 
L 1408 -1114 
z
M 973 2015 
C 973 2106 973 2241 1222 2481 
C 1254 2506 1472 2700 1792 2700 
C 2259 2700 2643 2112 2643 1376 
C 2643 639 2234 38 1728 38 
C 1498 38 1248 148 1056 451 
C 973 594 973 632 973 736 
L 973 2015 
z
" transform="scale(0.015625)"/>
       <path id="CMR17-28" d="M 1958 -1562 
C 1958 -1556 1958 -1543 1939 -1524 
C 1645 -1223 858 -403 858 1596 
C 858 3595 1632 4408 1946 4729 
C 1946 4735 1958 4748 1958 4767 
C 1958 4787 1939 4800 1914 4800 
C 1843 4800 1299 4325 986 3620 
C 666 2909 576 2218 576 1603 
C 576 1141 621 360 1005 -467 
C 1312 -1133 1837 -1600 1914 -1600 
C 1946 -1600 1958 -1588 1958 -1562 
z
" transform="scale(0.015625)"/>
       <path id="CMR17-29" d="M 1683 1596 
C 1683 2057 1638 2839 1254 3665 
C 947 4332 422 4800 346 4800 
C 326 4800 301 4793 301 4761 
C 301 4748 307 4742 314 4729 
C 621 4408 1402 3595 1402 1603 
C 1402 -396 627 -1210 314 -1530 
C 307 -1543 301 -1549 301 -1562 
C 301 -1594 326 -1600 346 -1600 
C 416 -1600 960 -1127 1274 -422 
C 1594 289 1683 981 1683 1596 
z
" transform="scale(0.015625)"/>
      </defs>
      <use xlink:href="#CMMI12-21" transform="scale(0.996264)"/>
      <use xlink:href="#CMR17-70" transform="translate(64.318346 36.153639) scale(0.697382)"/>
      <use xlink:href="#CMR17-67" transform="translate(60.743753 -24.62935) scale(0.697382)"/>
      <use xlink:href="#CMR17-77" transform="translate(92.726935 -24.62935) scale(0.697382)"/>
      <use xlink:href="#CMR17-28" transform="translate(140.692587 0) scale(0.996264)"/>
      <use xlink:href="#CMMI12-74" transform="translate(175.973355 0) scale(0.996264)"/>
      <use xlink:href="#CMR17-29" transform="translate(211.199685 0) scale(0.996264)"/>
     </g>
    </g>
    <g id="line2d_24">
     <path d="M 162.24232 123.27436 
L 173.24232 123.27436 
L 184.24232 123.27436 
" style="fill: none; stroke-dasharray: 5.55,2.4; stroke-dashoffset: 0; stroke: #98c379; stroke-width: 1.5"/>
    </g>
    <g id="text_17">
     <!-- $\omega^{\mathrm{a}}_{\mathrm{gw}}$$(t)$ -->
     <g style="fill: #ffffff" transform="translate(193.04232 127.12436) scale(0.11 -0.11)">
      <defs>
       <path id="CMR17-61" d="M 2304 1656 
C 2304 2048 2304 2275 2035 2534 
C 1798 2751 1523 2816 1306 2816 
C 800 2816 435 2408 435 1977 
C 435 1740 627 1728 666 1728 
C 749 1728 896 1779 896 1958 
C 896 2118 774 2188 666 2188 
C 640 2188 608 2182 589 2176 
C 723 2594 1069 2713 1293 2713 
C 1613 2713 1965 2421 1965 1875 
L 1965 1632 
C 1587 1619 1133 1568 774 1373 
C 371 1147 256 822 256 576 
C 256 77 832 -64 1171 -64 
C 1523 -64 1850 135 1990 505 
C 2003 219 2182 -39 2464 -39 
C 2598 -39 2938 51 2938 563 
L 2938 926 
L 2822 926 
L 2822 557 
C 2822 161 2650 109 2566 109 
C 2304 109 2304 446 2304 732 
L 2304 1656 
z
M 1965 887 
C 1965 323 1568 38 1216 38 
C 896 38 646 278 646 576 
C 646 771 730 1114 1101 1322 
C 1408 1497 1760 1523 1965 1536 
L 1965 887 
z
" transform="scale(0.015625)"/>
      </defs>
      <use xlink:href="#CMMI12-21" transform="scale(0.996264)"/>
      <use xlink:href="#CMR17-61" transform="translate(64.318346 36.153639) scale(0.697382)"/>
      <use xlink:href="#CMR17-67" transform="translate(60.743753 -24.62935) scale(0.697382)"/>
      <use xlink:href="#CMR17-77" transform="translate(92.726935 -24.62935) scale(0.697382)"/>
      <use xlink:href="#CMR17-28" transform="translate(140.692587 0) scale(0.996264)"/>
      <use xlink:href="#CMMI12-74" transform="translate(175.973355 0) scale(0.996264)"/>
      <use xlink:href="#CMR17-29" transform="translate(211.199685 0) scale(0.996264)"/>
     </g>
    </g>
   </g>
  </g>
 </g>
 <defs>
  <clipPath id="p8739211453">
   <rect x="48.309319" y="11.005173" width="279" height="82.133333"/>
  </clipPath>
  <clipPath id="p64e63f7a03">
   <rect x="48.309319" y="95.19184" width="279" height="82.133333"/>
  </clipPath>
 </defs>
</svg>
