<?xml version="1.0" encoding="utf-8" standalone="no"?>
<!DOCTYPE svg PUBLIC "-//W3C//DTD SVG 1.1//EN"
  "http://www.w3.org/Graphics/SVG/1.1/DTD/svg11.dtd">
<svg height="99pt" version="1.1" viewBox="0 0 72 99" width="72pt" xmlns="http://www.w3.org/2000/svg" xmlns:xlink="http://www.w3.org/1999/xlink">
 <metadata>
  <rdf:RDF xmlns:cc="http://creativecommons.org/ns#" xmlns:dc="http://purl.org/dc/elements/1.1/" xmlns:rdf="http://www.w3.org/1999/02/22-rdf-syntax-ns#">
   <cc:Work>
    <dc:type rdf:resource="http://purl.org/dc/dcmitype/StillImage"/>
    <dc:date>2022-01-15T01:22:10.395050</dc:date>
    <dc:format>image/svg+xml</dc:format>
    <dc:creator>
     <cc:Agent>
      <dc:title>Matplotlib v3.4.3, https://matplotlib.org/</dc:title>
     </cc:Agent>
    </dc:creator>
   </cc:Work>
  </rdf:RDF>
 </metadata>
 <defs>
  <style type="text/css">*{stroke-linecap:butt;stroke-linejoin:round;}</style>
 </defs>
 <g id="figure_1">
  <g id="patch_1">
   <path d="M 0 99 
L 72 99 
L 72 0 
L 0 0 
z
" style="fill:none;"/>
  </g>
  <g id="axes_1">
   <g id="patch_2">
    <path d="M 0 99 
L 72 99 
L 72 0 
L 0 0 
z
" style="fill:#ffffff;"/>
   </g>
   <g id="PolyCollection_1">
    <path clip-path="url(#p74ae8ca631)" d="M 0 69.3 
L 0 99 
L 72 99 
L 72 69.3 
L 72 69.3 
L 0 69.3 
z
" style="fill:#d62728;fill-opacity:0.75;"/>
   </g>
   <g id="line2d_1">
    <path clip-path="url(#p74ae8ca631)" d="M 46.8 0 
L 72 34.65 
" style="fill:none;stroke:#d62728;stroke-linecap:square;stroke-width:1.5;"/>
   </g>
   <g id="line2d_2">
    <path clip-path="url(#p74ae8ca631)" d="M 72 99 
L 72 34.65 
" style="fill:none;stroke:#d62728;stroke-linecap:square;stroke-width:1.5;"/>
   </g>
   <g id="line2d_3">
    <path clip-path="url(#p74ae8ca631)" d="M 0 0 
L 46.8 0 
" style="fill:none;stroke:#d62728;stroke-linecap:square;stroke-width:1.5;"/>
   </g>
   <g id="line2d_4">
    <path clip-path="url(#p74ae8ca631)" d="M 0 0 
L 46.8 0 
" style="fill:none;stroke:#d62728;stroke-linecap:square;stroke-width:1.5;"/>
   </g>
   <g id="line2d_5">
    <path clip-path="url(#p74ae8ca631)" d="M 0 99 
L 0 0 
" style="fill:none;stroke:#d62728;stroke-linecap:square;stroke-width:1.5;"/>
   </g>
   <g id="line2d_6">
    <path clip-path="url(#p74ae8ca631)" d="M 0 99 
L 72 99 
" style="fill:none;stroke:#d62728;stroke-linecap:square;stroke-width:1.5;"/>
   </g>
   <g id="line2d_7">
    <path clip-path="url(#p74ae8ca631)" d="M 46.8 34.65 
L 46.8 0 
" style="fill:none;stroke:#d62728;stroke-linecap:square;stroke-width:1.5;"/>
   </g>
   <g id="line2d_8">
    <path clip-path="url(#p74ae8ca631)" d="M 46.8 34.65 
L 72 34.65 
" style="fill:none;stroke:#d62728;stroke-linecap:square;stroke-width:1.5;"/>
   </g>
   <g id="line2d_9">
    <path clip-path="url(#p74ae8ca631)" d="M 51.27053 39.6 
L 47.574731 39.527239 
L 43.53109 40.133122 
L 39.333591 41.441991 
L 35.180791 43.421264 
L 31.264224 45.982698 
L 27.757322 48.987423 
L 24.805554 52.254437 
L 22.518367 55.572022 
L 20.963466 58.711351 
L 20.163732 61.44142 
L 20.097 63.544331 
L 20.698654 64.829952 
L 21.866884 65.148995 
L 23.470225 64.403661 
L 25.356898 62.555157 
L 27.365324 59.627569 
L 29.335142 55.707846 
L 31.117989 50.941837 
L 32.587373 45.526647 
L 33.646973 39.699742 
L 34.236851 33.725488 
L 34.337164 27.87997 
L 33.969147 22.435003 
L 33.193308 17.642374 
L 32.104952 13.719258 
L 30.827343 10.835751 
L 29.502938 9.105272 
L 28.283281 8.578447 
L 27.31822 9.240828 
L 26.745142 11.014598 
L 26.678958 13.764128 
L 27.203472 17.305026 
L 28.364735 21.416083 
L 30.166807 25.853365 
L 32.570235 30.365531 
L 35.493358 34.709415 
L 38.816376 38.664869 
L 42.387945 42.047942 
L 46.033882 44.721545 
L 49.567451 46.60296 
L 52.800581 47.667714 
L 55.555297 47.949603 
L 57.674661 47.536879 
L 59.032518 46.564888 
L 59.541421 45.205636 
L 59.158251 43.655005 
L 57.887143 42.118437 
L 55.77955 40.796068 
L 52.931435 39.868257 
L 49.477741 39.48249 
L 45.58451 39.742506 
L 41.439133 40.700381 
L 37.239334 42.352078 
L 33.181592 44.636787 
L 29.449713 47.440095 
L 26.204282 50.600807 
L 23.573628 53.920979 
L 21.646884 57.178535 
L 20.46955 60.141646 
L 20.041834 62.583967 
L 20.319848 64.299729 
L 21.21957 65.117719 
L 22.623295 64.913247 
L 24.388142 63.617293 
L 26.356072 61.22226 
L 28.364735 57.783917 
L 30.258462 53.419396 
L 31.898675 48.301347 
L 33.173051 42.648595 
L 34.002832 36.713867 
L 34.347831 30.76936 
L 34.208796 25.091032 
L 33.626995 19.942603 
L 32.681052 15.560264 
L 31.481237 12.139046 
L 30.161607 9.821701 
L 28.870483 8.690781 
L 27.759925 8.764412 
L 26.974865 9.996001 
L 26.642633 12.277902 
L 26.863552 15.448776 
L 27.703241 19.304174 
L 29.187117 23.609665 
L 31.297501 28.115657 
L 33.973494 32.572971 
L 37.113693 36.74818 
L 40.581557 40.437725 
L 44.213123 43.479935 
L 47.82657 45.76419 
L 51.233064 47.236647 
L 54.248164 47.902207 
L 56.703107 47.822603 
L 58.455228 47.11076 
L 59.396871 45.921824 
L 59.46221 44.441453 
L 58.631563 42.872156 
L 56.9329 41.418579 
L 54.440456 40.272714 
L 51.27053 39.6 
" style="fill:none;stroke:#d62728;stroke-linecap:square;stroke-width:1.5;"/>
   </g>
   <g id="text_1">
    <!-- PDF -->
    <g transform="translate(6.778125 92.760937)scale(0.3 -0.3)">
     <defs>
      <path d="M 1259 4147 
L 1259 2394 
L 2053 2394 
Q 2494 2394 2734 2622 
Q 2975 2850 2975 3272 
Q 2975 3691 2734 3919 
Q 2494 4147 2053 4147 
L 1259 4147 
z
M 628 4666 
L 2053 4666 
Q 2838 4666 3239 4311 
Q 3641 3956 3641 3272 
Q 3641 2581 3239 2228 
Q 2838 1875 2053 1875 
L 1259 1875 
L 1259 0 
L 628 0 
L 628 4666 
z
" id="DejaVuSans-50" transform="scale(0.015625)"/>
      <path d="M 1259 4147 
L 1259 519 
L 2022 519 
Q 2988 519 3436 956 
Q 3884 1394 3884 2338 
Q 3884 3275 3436 3711 
Q 2988 4147 2022 4147 
L 1259 4147 
z
M 628 4666 
L 1925 4666 
Q 3281 4666 3915 4102 
Q 4550 3538 4550 2338 
Q 4550 1131 3912 565 
Q 3275 0 1925 0 
L 628 0 
L 628 4666 
z
" id="DejaVuSans-44" transform="scale(0.015625)"/>
      <path d="M 628 4666 
L 3309 4666 
L 3309 4134 
L 1259 4134 
L 1259 2759 
L 3109 2759 
L 3109 2228 
L 1259 2228 
L 1259 0 
L 628 0 
L 628 4666 
z
" id="DejaVuSans-46" transform="scale(0.015625)"/>
     </defs>
     <use xlink:href="#DejaVuSans-50"/>
     <use x="60.302734" xlink:href="#DejaVuSans-44"/>
     <use x="137.304688" xlink:href="#DejaVuSans-46"/>
    </g>
   </g>
  </g>
 </g>
 <defs>
  <clipPath id="p74ae8ca631">
   <rect height="99" width="72" x="0" y="0"/>
  </clipPath>
 </defs>
</svg>
