<?xml version="1.0" encoding="utf-8" standalone="no"?>
<!DOCTYPE svg PUBLIC "-//W3C//DTD SVG 1.1//EN"
  "http://www.w3.org/Graphics/SVG/1.1/DTD/svg11.dtd">
<svg xmlns:xlink="http://www.w3.org/1999/xlink" width="320.506243pt" height="229.610649pt" viewBox="0 0 320.506243 229.610649" xmlns="http://www.w3.org/2000/svg" version="1.1">
 <metadata>
  <rdf:RDF xmlns:dc="http://purl.org/dc/elements/1.1/" xmlns:cc="http://creativecommons.org/ns#" xmlns:rdf="http://www.w3.org/1999/02/22-rdf-syntax-ns#">
   <cc:Work>
    <dc:type rdf:resource="http://purl.org/dc/dcmitype/StillImage"/>
    <dc:date>2025-07-21T20:22:01.536720</dc:date>
    <dc:format>image/svg+xml</dc:format>
    <dc:creator>
     <cc:Agent>
      <dc:title>Matplotlib v3.7.3, https://matplotlib.org/</dc:title>
     </cc:Agent>
    </dc:creator>
   </cc:Work>
  </rdf:RDF>
 </metadata>
 <defs>
  <style type="text/css">*{stroke-linejoin: round; stroke-linecap: butt}</style>
 </defs>
 <g id="figure_1">
  <g id="patch_1">
   <path d="M 0 229.610649 
L 320.506243 229.610649 
L 320.506243 0 
L 0 0 
z
" style="fill: #282c34"/>
  </g>
  <g id="axes_1">
   <g id="patch_2">
    <path d="M 34.306243 189.205876 
L 313.306243 189.205876 
L 313.306243 22.885876 
L 34.306243 22.885876 
z
" style="fill: #282c34"/>
   </g>
   <g id="patch_3">
    <path d="M 156.324408 173.432088 
L 154.427767 171.768888 
L 156.32348 171.768888 
L 156.32348 89.451132 
L 156.325336 89.451132 
L 156.325336 171.768888 
L 158.141434 171.768888 
z
" clip-path="url(#p06802b68cb)" style="fill: #808080; stroke-dasharray: 3.7,1.6; stroke-dashoffset: 0; stroke: #808080; stroke-linejoin: miter"/>
   </g>
   <g id="matplotlib.axis_1">
    <g id="xtick_1">
     <g id="line2d_1">
      <defs>
       <path id="ma055482db2" d="M 0 0 
L 0 3.5 
" style="stroke: #ffffff; stroke-width: 0.8"/>
      </defs>
      <g>
       <use xlink:href="#ma055482db2" x="119.649225" y="189.205876" style="fill: #ffffff; stroke: #ffffff; stroke-width: 0.8"/>
      </g>
     </g>
     <g id="text_1">
      <!-- $\mathdefault{10^{1}}$ -->
      <g style="fill: #ffffff" transform="translate(111.985588 203.816223) scale(0.11 -0.11)">
       <defs>
        <path id="CMR17-31" d="M 1702 4083 
C 1702 4217 1696 4224 1606 4224 
C 1357 3927 979 3833 621 3820 
C 602 3820 570 3820 563 3808 
C 557 3795 557 3782 557 3648 
C 755 3648 1088 3686 1344 3839 
L 1344 467 
C 1344 243 1331 166 781 166 
L 589 166 
L 589 0 
C 896 6 1216 12 1523 12 
C 1830 12 2150 6 2458 0 
L 2458 166 
L 2266 166 
C 1715 166 1702 236 1702 467 
L 1702 4083 
z
" transform="scale(0.015625)"/>
        <path id="CMR17-30" d="M 2688 2038 
C 2688 2430 2682 3099 2413 3613 
C 2176 4063 1798 4224 1466 4224 
C 1158 4224 768 4082 525 3620 
C 269 3137 243 2539 243 2038 
C 243 1671 250 1112 448 623 
C 723 -39 1216 -128 1466 -128 
C 1760 -128 2208 -7 2470 604 
C 2662 1048 2688 1568 2688 2038 
z
M 1466 -26 
C 1056 -26 813 328 723 816 
C 653 1196 653 1749 653 2109 
C 653 2604 653 3015 736 3407 
C 858 3954 1216 4121 1466 4121 
C 1728 4121 2067 3947 2189 3420 
C 2272 3054 2278 2623 2278 2109 
C 2278 1691 2278 1176 2202 797 
C 2067 96 1690 -26 1466 -26 
z
" transform="scale(0.015625)"/>
       </defs>
       <use xlink:href="#CMR17-31" transform="scale(0.996264)"/>
       <use xlink:href="#CMR17-30" transform="translate(45.690477 0) scale(0.996264)"/>
       <use xlink:href="#CMR17-31" transform="translate(91.380954 36.153639) scale(0.697382)"/>
      </g>
     </g>
    </g>
    <g id="xtick_2">
     <g id="line2d_2">
      <g>
       <use xlink:href="#ma055482db2" x="219.334658" y="189.205876" style="fill: #ffffff; stroke: #ffffff; stroke-width: 0.8"/>
      </g>
     </g>
     <g id="text_2">
      <!-- $\mathdefault{10^{2}}$ -->
      <g style="fill: #ffffff" transform="translate(211.671021 203.816223) scale(0.11 -0.11)">
       <defs>
        <path id="CMR17-32" d="M 2669 990 
L 2554 990 
C 2490 537 2438 460 2413 422 
C 2381 371 1920 371 1830 371 
L 602 371 
C 832 620 1280 1073 1824 1596 
C 2214 1966 2669 2400 2669 3033 
C 2669 3788 2067 4224 1395 4224 
C 691 4224 262 3603 262 3027 
C 262 2777 448 2745 525 2745 
C 589 2745 781 2783 781 3007 
C 781 3206 614 3264 525 3264 
C 486 3264 448 3257 422 3244 
C 544 3788 915 4057 1306 4057 
C 1862 4057 2227 3616 2227 3033 
C 2227 2477 1901 1998 1536 1583 
L 262 147 
L 262 0 
L 2515 0 
L 2669 990 
z
" transform="scale(0.015625)"/>
       </defs>
       <use xlink:href="#CMR17-31" transform="scale(0.996264)"/>
       <use xlink:href="#CMR17-30" transform="translate(45.690477 0) scale(0.996264)"/>
       <use xlink:href="#CMR17-32" transform="translate(91.380954 36.153639) scale(0.697382)"/>
      </g>
     </g>
    </g>
    <g id="xtick_3">
     <g id="line2d_3">
      <defs>
       <path id="mdd0073a920" d="M 0 0 
L 0 2 
" style="stroke: #ffffff; stroke-width: 0.6"/>
      </defs>
      <g>
       <use xlink:href="#mdd0073a920" x="49.972098" y="189.205876" style="fill: #ffffff; stroke: #ffffff; stroke-width: 0.6"/>
      </g>
     </g>
    </g>
    <g id="xtick_4">
     <g id="line2d_4">
      <g>
       <use xlink:href="#mdd0073a920" x="67.525831" y="189.205876" style="fill: #ffffff; stroke: #ffffff; stroke-width: 0.6"/>
      </g>
     </g>
    </g>
    <g id="xtick_5">
     <g id="line2d_5">
      <g>
       <use xlink:href="#mdd0073a920" x="79.980403" y="189.205876" style="fill: #ffffff; stroke: #ffffff; stroke-width: 0.6"/>
      </g>
     </g>
    </g>
    <g id="xtick_6">
     <g id="line2d_6">
      <g>
       <use xlink:href="#mdd0073a920" x="89.64092" y="189.205876" style="fill: #ffffff; stroke: #ffffff; stroke-width: 0.6"/>
      </g>
     </g>
    </g>
    <g id="xtick_7">
     <g id="line2d_7">
      <g>
       <use xlink:href="#mdd0073a920" x="97.534136" y="189.205876" style="fill: #ffffff; stroke: #ffffff; stroke-width: 0.6"/>
      </g>
     </g>
    </g>
    <g id="xtick_8">
     <g id="line2d_8">
      <g>
       <use xlink:href="#mdd0073a920" x="104.207756" y="189.205876" style="fill: #ffffff; stroke: #ffffff; stroke-width: 0.6"/>
      </g>
     </g>
    </g>
    <g id="xtick_9">
     <g id="line2d_9">
      <g>
       <use xlink:href="#mdd0073a920" x="109.988708" y="189.205876" style="fill: #ffffff; stroke: #ffffff; stroke-width: 0.6"/>
      </g>
     </g>
    </g>
    <g id="xtick_10">
     <g id="line2d_10">
      <g>
       <use xlink:href="#mdd0073a920" x="115.08787" y="189.205876" style="fill: #ffffff; stroke: #ffffff; stroke-width: 0.6"/>
      </g>
     </g>
    </g>
    <g id="xtick_11">
     <g id="line2d_11">
      <g>
       <use xlink:href="#mdd0073a920" x="149.65753" y="189.205876" style="fill: #ffffff; stroke: #ffffff; stroke-width: 0.6"/>
      </g>
     </g>
    </g>
    <g id="xtick_12">
     <g id="line2d_12">
      <g>
       <use xlink:href="#mdd0073a920" x="167.211264" y="189.205876" style="fill: #ffffff; stroke: #ffffff; stroke-width: 0.6"/>
      </g>
     </g>
    </g>
    <g id="xtick_13">
     <g id="line2d_13">
      <g>
       <use xlink:href="#mdd0073a920" x="179.665836" y="189.205876" style="fill: #ffffff; stroke: #ffffff; stroke-width: 0.6"/>
      </g>
     </g>
    </g>
    <g id="xtick_14">
     <g id="line2d_14">
      <g>
       <use xlink:href="#mdd0073a920" x="189.326352" y="189.205876" style="fill: #ffffff; stroke: #ffffff; stroke-width: 0.6"/>
      </g>
     </g>
    </g>
    <g id="xtick_15">
     <g id="line2d_15">
      <g>
       <use xlink:href="#mdd0073a920" x="197.219569" y="189.205876" style="fill: #ffffff; stroke: #ffffff; stroke-width: 0.6"/>
      </g>
     </g>
    </g>
    <g id="xtick_16">
     <g id="line2d_16">
      <g>
       <use xlink:href="#mdd0073a920" x="203.893189" y="189.205876" style="fill: #ffffff; stroke: #ffffff; stroke-width: 0.6"/>
      </g>
     </g>
    </g>
    <g id="xtick_17">
     <g id="line2d_17">
      <g>
       <use xlink:href="#mdd0073a920" x="209.674141" y="189.205876" style="fill: #ffffff; stroke: #ffffff; stroke-width: 0.6"/>
      </g>
     </g>
    </g>
    <g id="xtick_18">
     <g id="line2d_18">
      <g>
       <use xlink:href="#mdd0073a920" x="214.773302" y="189.205876" style="fill: #ffffff; stroke: #ffffff; stroke-width: 0.6"/>
      </g>
     </g>
    </g>
    <g id="xtick_19">
     <g id="line2d_19">
      <g>
       <use xlink:href="#mdd0073a920" x="249.342963" y="189.205876" style="fill: #ffffff; stroke: #ffffff; stroke-width: 0.6"/>
      </g>
     </g>
    </g>
    <g id="xtick_20">
     <g id="line2d_20">
      <g>
       <use xlink:href="#mdd0073a920" x="266.896696" y="189.205876" style="fill: #ffffff; stroke: #ffffff; stroke-width: 0.6"/>
      </g>
     </g>
    </g>
    <g id="xtick_21">
     <g id="line2d_21">
      <g>
       <use xlink:href="#mdd0073a920" x="279.351268" y="189.205876" style="fill: #ffffff; stroke: #ffffff; stroke-width: 0.6"/>
      </g>
     </g>
    </g>
    <g id="xtick_22">
     <g id="line2d_22">
      <g>
       <use xlink:href="#mdd0073a920" x="289.011785" y="189.205876" style="fill: #ffffff; stroke: #ffffff; stroke-width: 0.6"/>
      </g>
     </g>
    </g>
    <g id="xtick_23">
     <g id="line2d_23">
      <g>
       <use xlink:href="#mdd0073a920" x="296.905002" y="189.205876" style="fill: #ffffff; stroke: #ffffff; stroke-width: 0.6"/>
      </g>
     </g>
    </g>
    <g id="xtick_24">
     <g id="line2d_24">
      <g>
       <use xlink:href="#mdd0073a920" x="303.578621" y="189.205876" style="fill: #ffffff; stroke: #ffffff; stroke-width: 0.6"/>
      </g>
     </g>
    </g>
    <g id="xtick_25">
     <g id="line2d_25">
      <g>
       <use xlink:href="#mdd0073a920" x="309.359574" y="189.205876" style="fill: #ffffff; stroke: #ffffff; stroke-width: 0.6"/>
      </g>
     </g>
    </g>
    <g id="text_3">
     <!-- $r$ [$GM_{\mathrm{BH}}/c^2$] -->
     <g style="fill: #ffffff" transform="translate(141.163334 219.421857) scale(0.12 -0.12)">
      <defs>
       <path id="CMMI12-72" d="M 2490 2633 
C 2291 2598 2189 2457 2189 2316 
C 2189 2163 2310 2111 2400 2111 
C 2579 2111 2726 2265 2726 2457 
C 2726 2651 2528 2816 2208 2816 
C 1952 2816 1658 2700 1389 2335 
C 1344 2660 1088 2816 832 2816 
C 582 2816 454 2642 378 2508 
C 269 2278 173 1892 173 1860 
C 173 1834 198 1801 243 1801 
C 294 1801 301 1808 339 1957 
C 435 2342 557 2687 813 2687 
C 966 2687 1011 2604 1011 2419 
C 1011 2278 947 2028 902 1827 
L 723 1130 
C 698 1007 627 716 595 600 
C 550 432 480 128 480 96 
C 480 6 550 -64 646 -64 
C 717 -64 838 -20 877 109 
C 896 160 1133 1136 1171 1285 
C 1203 1427 1242 1562 1274 1705 
C 1299 1795 1325 1898 1344 1982 
C 1363 2040 1536 2355 1696 2495 
C 1773 2566 1939 2687 2202 2687 
C 2304 2687 2406 2674 2490 2633 
z
" transform="scale(0.015625)"/>
       <path id="CMSS17-5b" d="M 1613 -1600 
L 1613 -1210 
L 1062 -1210 
L 1062 4409 
L 1613 4409 
L 1613 4800 
L 595 4800 
L 595 -1600 
L 1613 -1600 
z
" transform="scale(0.015625)"/>
       <path id="CMMI12-47" d="M 4774 4422 
C 4774 4480 4730 4480 4717 4480 
C 4704 4480 4678 4480 4627 4415 
L 4186 3887 
C 4154 3938 4026 4161 3776 4307 
C 3501 4480 3226 4480 3130 4480 
C 1760 4480 320 3093 320 1593 
C 320 546 1050 -128 2010 -128 
C 2470 -128 3053 25 3373 425 
C 3443 184 3584 12 3629 12 
C 3661 12 3667 32 3674 32 
C 3680 44 3731 266 3763 381 
L 3866 787 
C 3917 996 3942 1085 3987 1275 
C 4051 1516 4064 1535 4416 1542 
C 4442 1542 4518 1542 4518 1663 
C 4518 1728 4454 1728 4435 1728 
C 4326 1728 4205 1715 4090 1715 
L 3744 1715 
C 3475 1715 3194 1728 2931 1728 
C 2874 1728 2797 1728 2797 1612 
C 2797 1548 2848 1548 2848 1542 
L 3008 1542 
C 3514 1542 3514 1491 3514 1396 
C 3514 1390 3392 749 3270 558 
C 3027 203 2522 57 2144 57 
C 1651 57 851 311 851 1409 
C 851 1835 1005 2807 1626 3525 
C 2029 3983 2624 4294 3187 4294 
C 3942 4294 4211 3652 4211 3068 
C 4211 2966 4186 2826 4186 2738 
C 4186 2680 4250 2680 4269 2680 
C 4339 2680 4346 2687 4371 2801 
L 4774 4422 
z
" transform="scale(0.015625)"/>
       <path id="CMMI12-4d" d="M 5811 3886 
C 5869 4102 5882 4166 6336 4166 
C 6458 4166 6515 4166 6515 4287 
C 6515 4352 6470 4352 6349 4352 
L 5581 4352 
C 5421 4352 5414 4345 5344 4243 
L 3008 567 
L 2528 4211 
C 2509 4352 2502 4352 2336 4352 
L 1542 4352 
C 1421 4352 1363 4352 1363 4230 
C 1363 4166 1421 4166 1517 4166 
C 1907 4166 1907 4115 1907 4045 
C 1907 4032 1907 3994 1882 3898 
L 1062 650 
C 986 344 838 204 410 185 
C 390 185 314 179 314 70 
C 314 0 371 0 397 0 
C 525 0 851 12 979 12 
L 1286 12 
C 1376 12 1485 0 1574 0 
C 1619 0 1690 0 1690 121 
C 1690 179 1626 185 1600 185 
C 1389 191 1184 230 1184 459 
C 1184 523 1184 529 1210 618 
L 2093 4128 
L 2099 4128 
L 2630 172 
C 2650 19 2656 0 2714 0 
C 2784 0 2816 51 2848 108 
L 5421 4159 
L 5427 4159 
L 4499 472 
C 4442 249 4429 185 3981 185 
C 3859 185 3795 185 3795 70 
C 3795 0 3853 0 3891 0 
C 4000 0 4128 12 4237 12 
L 4992 12 
C 5101 12 5235 0 5344 0 
C 5395 0 5466 0 5466 121 
C 5466 185 5408 185 5312 185 
C 4922 185 4922 236 4922 300 
C 4922 306 4922 351 4934 402 
L 5811 3886 
z
" transform="scale(0.015625)"/>
       <path id="CMR17-42" d="M 333 4352 
L 333 4185 
C 774 4185 845 4185 845 3897 
L 845 451 
C 845 166 774 166 333 166 
L 333 0 
L 2534 0 
C 3354 0 3885 578 3885 1155 
C 3885 1726 3360 2214 2675 2259 
C 3290 2380 3718 2790 3718 3276 
C 3718 3808 3194 4352 2368 4352 
L 333 4352 
z
M 1248 2304 
L 1248 3936 
C 1248 4153 1261 4185 1517 4185 
L 2336 4185 
C 2970 4185 3251 3673 3251 3276 
C 3251 2790 2861 2304 2170 2304 
L 1248 2304 
z
M 1517 166 
C 1261 166 1248 198 1248 413 
L 1248 2201 
L 2432 2201 
C 3091 2201 3411 1624 3411 1161 
C 3411 698 3046 166 2349 166 
L 1517 166 
z
" transform="scale(0.015625)"/>
       <path id="CMR17-48" d="M 3590 3898 
C 3590 4185 3661 4185 4102 4185 
L 4102 4352 
C 3917 4339 3578 4339 3379 4339 
C 3181 4339 2842 4339 2656 4352 
L 2656 4185 
C 3098 4185 3168 4185 3168 3898 
L 3168 2342 
L 1261 2342 
L 1261 3898 
C 1261 4185 1331 4185 1773 4185 
L 1773 4352 
C 1587 4339 1248 4339 1050 4339 
C 851 4339 512 4339 326 4352 
L 326 4185 
C 768 4185 838 4185 838 3898 
L 838 452 
C 838 166 768 166 326 166 
L 326 0 
C 512 12 851 12 1050 12 
C 1248 12 1587 12 1773 0 
L 1773 166 
C 1331 166 1261 166 1261 452 
L 1261 2176 
L 3168 2176 
L 3168 452 
C 3168 166 3098 166 2656 166 
L 2656 0 
C 2842 12 3181 12 3379 12 
C 3578 12 3917 12 4102 0 
L 4102 166 
C 3661 166 3590 166 3590 452 
L 3590 3898 
z
" transform="scale(0.015625)"/>
       <path id="CMMI12-3d" d="M 2746 4563 
C 2746 4569 2784 4665 2784 4678 
C 2784 4755 2720 4800 2669 4800 
C 2637 4800 2579 4800 2528 4659 
L 384 -1364 
C 384 -1370 346 -1466 346 -1479 
C 346 -1556 410 -1600 461 -1600 
C 499 -1600 557 -1594 602 -1460 
L 2746 4563 
z
" transform="scale(0.015625)"/>
       <path id="CMMI12-63" d="M 2502 2432 
C 2381 2432 2323 2432 2234 2355 
C 2195 2323 2125 2227 2125 2124 
C 2125 1996 2221 1919 2342 1919 
C 2496 1919 2669 2047 2669 2303 
C 2669 2591 2374 2816 1933 2816 
C 1094 2816 256 1932 256 1011 
C 256 446 602 -64 1254 -64 
C 2125 -64 2675 622 2675 706 
C 2675 745 2637 777 2611 777 
C 2592 777 2586 771 2528 712 
C 2118 161 1510 64 1267 64 
C 826 64 685 453 685 777 
C 685 1004 794 1634 1024 2073 
C 1190 2374 1536 2687 1939 2687 
C 2022 2687 2374 2676 2502 2432 
z
" transform="scale(0.015625)"/>
       <path id="CMSS17-5d" d="M 1146 4800 
L 128 4800 
L 128 4409 
L 678 4409 
L 678 -1210 
L 128 -1210 
L 128 -1600 
L 1146 -1600 
L 1146 4800 
z
" transform="scale(0.015625)"/>
      </defs>
      <use xlink:href="#CMMI12-72" transform="scale(0.996264)"/>
      <use xlink:href="#CMSS17-5b" transform="translate(77.899725 0) scale(0.996264)"/>
      <use xlink:href="#CMMI12-47" transform="translate(105.085163 0) scale(0.996264)"/>
      <use xlink:href="#CMMI12-4d" transform="translate(182.032025 0) scale(0.996264)"/>
      <use xlink:href="#CMR17-42" transform="translate(276.40545 -14.943915) scale(0.697382)"/>
      <use xlink:href="#CMR17-48" transform="translate(322.03737 -14.943915) scale(0.697382)"/>
      <use xlink:href="#CMMI12-3d" transform="translate(370.885987 0) scale(0.996264)"/>
      <use xlink:href="#CMMI12-63" transform="translate(419.660906 0) scale(0.996264)"/>
      <use xlink:href="#CMR17-32" transform="translate(461.64414 36.153639) scale(0.697382)"/>
      <use xlink:href="#CMSS17-5d" transform="translate(494.125454 0) scale(0.996264)"/>
     </g>
    </g>
   </g>
   <g id="matplotlib.axis_2">
    <g id="ytick_1">
     <g id="line2d_26">
      <defs>
       <path id="m0d7f619092" d="M 0 0 
L -3.5 0 
" style="stroke: #ffffff; stroke-width: 0.8"/>
      </defs>
      <g>
       <use xlink:href="#m0d7f619092" x="34.306243" y="189.205876" style="fill: #ffffff; stroke: #ffffff; stroke-width: 0.8"/>
      </g>
     </g>
     <g id="text_4">
      <!-- $\mathdefault{0}$ -->
      <g style="fill: #ffffff" transform="translate(21.826776 193.01105) scale(0.11 -0.11)">
       <use xlink:href="#CMR17-30" transform="scale(0.996264)"/>
      </g>
     </g>
    </g>
    <g id="ytick_2">
     <g id="line2d_27">
      <g>
       <use xlink:href="#m0d7f619092" x="34.306243" y="155.941876" style="fill: #ffffff; stroke: #ffffff; stroke-width: 0.8"/>
      </g>
     </g>
     <g id="text_5">
      <!-- $\mathdefault{1}$ -->
      <g style="fill: #ffffff" transform="translate(21.826776 159.74705) scale(0.11 -0.11)">
       <use xlink:href="#CMR17-31" transform="scale(0.996264)"/>
      </g>
     </g>
    </g>
    <g id="ytick_3">
     <g id="line2d_28">
      <g>
       <use xlink:href="#m0d7f619092" x="34.306243" y="122.677876" style="fill: #ffffff; stroke: #ffffff; stroke-width: 0.8"/>
      </g>
     </g>
     <g id="text_6">
      <!-- $\mathdefault{2}$ -->
      <g style="fill: #ffffff" transform="translate(21.826776 126.48305) scale(0.11 -0.11)">
       <use xlink:href="#CMR17-32" transform="scale(0.996264)"/>
      </g>
     </g>
    </g>
    <g id="ytick_4">
     <g id="line2d_29">
      <g>
       <use xlink:href="#m0d7f619092" x="34.306243" y="89.413876" style="fill: #ffffff; stroke: #ffffff; stroke-width: 0.8"/>
      </g>
     </g>
     <g id="text_7">
      <!-- $\mathdefault{3}$ -->
      <g style="fill: #ffffff" transform="translate(21.826776 93.21905) scale(0.11 -0.11)">
       <defs>
        <path id="CMR17-33" d="M 1414 2176 
C 1984 2176 2234 1673 2234 1094 
C 2234 322 1824 25 1453 25 
C 1114 25 563 193 390 691 
C 422 678 454 678 486 678 
C 640 678 755 780 755 947 
C 755 1132 614 1216 486 1216 
C 378 1216 211 1164 211 927 
C 211 335 787 -128 1466 -128 
C 2176 -128 2720 432 2720 1087 
C 2720 1718 2208 2176 1600 2246 
C 2086 2347 2554 2776 2554 3353 
C 2554 3856 2048 4224 1472 4224 
C 890 4224 378 3862 378 3347 
C 378 3123 544 3084 627 3084 
C 762 3084 877 3167 877 3334 
C 877 3500 762 3584 627 3584 
C 602 3584 570 3584 544 3571 
C 730 3999 1235 4076 1459 4076 
C 1683 4076 2106 3966 2106 3347 
C 2106 3167 2080 2851 1862 2574 
C 1670 2329 1453 2316 1242 2297 
C 1210 2297 1062 2284 1037 2284 
C 992 2278 966 2272 966 2227 
C 966 2182 973 2176 1101 2176 
L 1414 2176 
z
" transform="scale(0.015625)"/>
       </defs>
       <use xlink:href="#CMR17-33" transform="scale(0.996264)"/>
      </g>
     </g>
    </g>
    <g id="ytick_5">
     <g id="line2d_30">
      <g>
       <use xlink:href="#m0d7f619092" x="34.306243" y="56.149876" style="fill: #ffffff; stroke: #ffffff; stroke-width: 0.8"/>
      </g>
     </g>
     <g id="text_8">
      <!-- $\mathdefault{4}$ -->
      <g style="fill: #ffffff" transform="translate(21.826776 59.95505) scale(0.11 -0.11)">
       <defs>
        <path id="CMR17-34" d="M 2150 4147 
C 2150 4281 2144 4288 2029 4288 
L 128 1254 
L 128 1088 
L 1779 1088 
L 1779 460 
C 1779 230 1766 166 1318 166 
L 1197 166 
L 1197 0 
C 1402 12 1747 12 1965 12 
C 2182 12 2528 12 2733 0 
L 2733 166 
L 2611 166 
C 2163 166 2150 230 2150 460 
L 2150 1088 
L 2803 1088 
L 2803 1254 
L 2150 1254 
L 2150 4147 
z
M 1798 3723 
L 1798 1254 
L 256 1254 
L 1798 3723 
z
" transform="scale(0.015625)"/>
       </defs>
       <use xlink:href="#CMR17-34" transform="scale(0.996264)"/>
      </g>
     </g>
    </g>
    <g id="ytick_6">
     <g id="line2d_31">
      <g>
       <use xlink:href="#m0d7f619092" x="34.306243" y="22.885876" style="fill: #ffffff; stroke: #ffffff; stroke-width: 0.8"/>
      </g>
     </g>
     <g id="text_9">
      <!-- $\mathdefault{5}$ -->
      <g style="fill: #ffffff" transform="translate(21.826776 26.69105) scale(0.11 -0.11)">
       <defs>
        <path id="CMR17-35" d="M 730 3750 
C 794 3724 1056 3641 1325 3641 
C 1920 3641 2246 3961 2432 4140 
C 2432 4191 2432 4224 2394 4224 
C 2387 4224 2374 4224 2323 4198 
C 2099 4102 1837 4032 1517 4032 
C 1325 4032 1037 4055 723 4191 
C 653 4224 640 4224 634 4224 
C 602 4224 595 4217 595 4090 
L 595 2231 
C 595 2113 595 2080 659 2080 
C 691 2080 704 2093 736 2139 
C 941 2435 1222 2560 1542 2560 
C 1766 2560 2246 2415 2246 1293 
C 2246 1087 2246 716 2054 422 
C 1894 159 1645 25 1370 25 
C 947 25 518 319 403 812 
C 429 806 480 793 506 793 
C 589 793 749 838 749 1036 
C 749 1209 627 1280 506 1280 
C 358 1280 262 1190 262 1011 
C 262 454 704 -128 1382 -128 
C 2042 -128 2669 441 2669 1267 
C 2669 2054 2170 2662 1549 2662 
C 1222 2662 947 2540 730 2304 
L 730 3750 
z
" transform="scale(0.015625)"/>
       </defs>
       <use xlink:href="#CMR17-35" transform="scale(0.996264)"/>
      </g>
     </g>
    </g>
    <g id="text_10">
     <!-- $\mathcal{M}$ -->
     <g style="fill: #ffffff" transform="translate(15.50218 113.224356) rotate(-90) scale(0.12 -0.12)">
      <defs>
       <path id="CMSY10-4d" d="M 2464 3603 
C 2637 2764 2918 1384 3283 636 
C 3424 359 3494 217 3558 217 
C 3584 217 3597 217 3712 333 
C 4198 804 4531 1178 4979 1694 
L 6381 3338 
C 6291 2790 6061 1339 6061 584 
C 6061 410 6067 243 6086 70 
C 6093 0 6118 -186 6387 -186 
C 6656 -186 7142 96 7142 224 
C 7142 262 7104 268 7085 268 
C 7002 268 6874 211 6803 166 
C 6650 185 6637 288 6624 436 
C 6605 642 6605 836 6605 862 
C 6605 1578 6886 3532 7072 4331 
C 7078 4376 7085 4389 7085 4441 
C 7085 4467 7078 4537 7034 4537 
C 7008 4537 7002 4531 6880 4389 
C 6278 3654 4410 1397 3776 855 
C 3616 1197 3501 1442 3277 2345 
C 3091 3074 2982 3609 2874 4235 
C 2854 4325 2822 4499 2822 4511 
C 2803 4544 2771 4544 2752 4544 
C 2637 4544 2368 4402 2349 4267 
C 2272 3725 2144 2874 1696 1642 
C 1184 268 1043 268 922 268 
C 838 268 602 320 461 449 
C 429 481 416 481 403 481 
C 314 481 173 192 173 12 
C 173 -45 173 -122 378 -231 
C 538 -314 691 -320 723 -320 
C 1120 -320 1498 597 1626 926 
C 1926 1655 2285 2674 2464 3603 
z
" transform="scale(0.015625)"/>
      </defs>
      <use xlink:href="#CMSY10-4d" transform="scale(0.996264)"/>
     </g>
    </g>
   </g>
   <g id="line2d_32">
    <path d="M 270.616053 155.941876 
L 270.465617 155.864371 
L 270.249798 155.75327 
L 270.098752 155.675099 
L 269.883112 155.563997 
L 269.731455 155.485494 
L 269.51669 155.374393 
L 269.364559 155.295557 
L 269.15029 155.184455 
L 268.997414 155.104954 
L 268.783389 154.993852 
L 268.629903 154.913686 
L 268.416138 154.802584 
L 268.262041 154.722086 
L 268.048836 154.610984 
L 267.893988 154.52982 
L 267.681226 154.418718 
L 267.525766 154.337221 
L 267.313613 154.226119 
L 267.157398 154.143957 
L 266.94559 154.032855 
L 266.788618 153.950028 
L 266.577028 153.838926 
L 266.419442 153.755766 
L 266.208674 153.644665 
L 266.050327 153.560839 
L 265.839821 153.449738 
L 265.680859 153.36558 
L 265.470931 153.254478 
L 265.311205 153.169655 
L 265.101728 153.058553 
L 264.941236 152.973064 
L 264.731929 152.861963 
L 264.570818 152.776142 
L 264.362157 152.66504 
L 264.199969 152.578221 
L 263.99136 152.467119 
L 263.828549 152.379967 
L 263.620629 152.268866 
L 263.456884 152.181049 
L 263.249365 152.069947 
L 263.084837 151.981465 
L 262.877739 151.870363 
L 262.712267 151.781215 
L 262.505452 151.670114 
L 262.339189 151.580301 
L 262.132674 151.469199 
L 261.965456 151.378721 
L 261.75942 151.267619 
L 261.591241 151.176476 
L 261.385544 151.065374 
L 261.216561 150.973565 
L 261.01122 150.862464 
L 260.841265 150.76999 
L 260.6363 150.658888 
L 260.465366 150.565749 
L 260.260965 150.454647 
L 260.089046 150.360843 
L 259.885062 150.249741 
L 259.712152 150.155271 
L 259.508777 150.044169 
L 259.33487 149.949034 
L 259.131782 149.837932 
L 258.956698 149.741799 
L 258.75374 149.630698 
L 258.577642 149.533899 
L 258.375003 149.422798 
L 258.197707 149.325002 
L 257.995406 149.2139 
L 257.817079 149.115438 
L 257.615132 149.004337 
L 257.435768 148.90521 
L 257.234195 148.794108 
L 257.053605 148.693983 
L 256.852425 148.582882 
L 256.670779 148.482092 
L 256.469828 148.37099 
L 256.286751 148.269202 
L 256.086413 148.1581 
L 255.902262 148.055647 
L 255.702189 147.944546 
L 255.516769 147.841095 
L 255.316976 147.729993 
L 255.130084 147.625544 
L 254.930588 147.514442 
L 254.74259 147.409328 
L 254.543791 147.298226 
L 254.354295 147.192114 
L 254.155832 147.081012 
L 253.965015 146.973902 
L 253.76671 146.8628 
L 253.574363 146.754692 
L 253.376425 146.643591 
L 253.182729 146.534485 
L 252.984978 146.423383 
L 252.789719 146.313279 
L 252.59257 146.202177 
L 252.39573 146.091075 
L 252.199004 145.979974 
L 252.00077 145.867874 
L 251.804078 145.756772 
L 251.604022 145.643342 
L 251.407785 145.53224 
L 251.206093 145.417812 
L 251.010123 145.30671 
L 250.806566 145.190952 
L 250.610877 145.07985 
L 250.405851 144.963093 
L 250.210672 144.851991 
L 250.003738 144.733904 
L 249.808661 144.622803 
L 249.599792 144.503385 
L 249.404827 144.392283 
L 249.193996 144.271535 
L 248.999373 144.160433 
L 248.786553 144.038354 
L 248.592288 143.927252 
L 248.377453 143.803843 
L 248.183563 143.692741 
L 247.966684 143.568001 
L 247.773186 143.456899 
L 247.554237 143.330829 
L 247.360922 143.219727 
L 247.139645 143.091993 
L 246.946524 142.980891 
L 246.723113 142.851827 
L 246.530432 142.740725 
L 246.304161 142.609665 
L 246.111701 142.498563 
L 245.883225 142.366173 
L 245.691235 142.255071 
L 245.460287 142.121017 
L 245.268311 142.009915 
L 245.03485 141.874198 
L 244.843376 141.763096 
L 244.607365 141.625716 
L 244.416169 141.514614 
L 244.177079 141.375238 
L 243.986175 141.264136 
L 243.744199 141.122764 
L 243.553599 141.011663 
L 243.308937 140.868627 
L 243.118406 140.757526 
L 242.87026 140.612162 
L 242.680309 140.50106 
L 242.429378 140.354033 
L 242.239774 140.242932 
L 241.984987 140.093244 
L 241.795226 139.982142 
L 241.537023 139.830125 
L 241.347628 139.719024 
L 241.086209 139.565011 
L 240.897195 139.45391 
L 240.631711 139.297236 
L 240.442824 139.186134 
L 240.173728 139.027132 
L 239.985246 138.916031 
L 239.71193 138.754368 
L 239.523867 138.643266 
L 239.246519 138.478942 
L 239.058615 138.36784 
L 238.776603 138.200522 
L 238.588864 138.08942 
L 238.302089 137.919109 
L 238.114802 137.808007 
L 237.823447 137.634701 
L 237.636342 137.5236 
L 237.339739 137.346968 
L 237.153109 137.235866 
L 236.851432 137.055908 
L 236.664712 136.944806 
L 236.357262 136.761189 
L 236.171035 136.650087 
L 235.857387 136.462478 
L 235.671367 136.351376 
L 235.351971 136.160108 
L 235.166164 136.049007 
L 234.839677 135.853082 
L 234.654085 135.74198 
L 234.320636 135.541731 
L 234.135261 135.430629 
L 233.794676 135.225723 
L 233.609522 135.114621 
L 233.260679 134.904392 
L 233.075743 134.793291 
L 232.719378 134.578405 
L 232.534982 134.467303 
L 232.169291 134.24643 
L 231.984795 134.135329 
L 231.60919 133.908135 
L 231.425234 133.797034 
L 231.040097 133.563853 
L 230.856356 133.452751 
L 230.460074 133.212585 
L 230.27654 133.101483 
L 229.867424 132.853001 
L 229.684081 132.7419 
L 229.262761 132.485767 
L 229.079599 132.374665 
L 228.643598 132.109218 
L 228.460948 131.998117 
L 228.010491 131.723689 
L 227.827991 131.612587 
L 227.359716 131.326849 
L 227.177337 131.215747 
L 226.689879 130.917702 
L 226.507584 130.8066 
L 225.999494 130.495582 
L 225.817617 130.38448 
L 225.286226 130.058825 
L 225.104731 129.947724 
L 224.545658 129.604772 
L 224.364109 129.49367 
L 223.774623 129.131425 
L 223.593728 129.020323 
L 222.968911 128.636124 
L 222.788209 128.525022 
L 222.121136 128.114212 
L 221.940522 128.00311 
L 221.221626 127.559701 
L 221.041374 127.448599 
L 220.259826 126.965939 
L 220.079772 126.854837 
L 219.217956 126.321948 
L 219.037866 126.210846 
L 218.065862 125.608767 
L 217.886277 125.497666 
L 216.762982 124.801118 
L 216.583896 124.690016 
L 215.217795 123.841784 
L 215.038881 123.730682 
L 213.207366 122.591723 
L 213.028445 122.480621 
L 209.796702 120.467484 
L 178.712498 101.436817 
L 178.302292 101.197648 
L 172.546831 97.898858 
L 168.693348 95.764307 
L 167.899602 95.332873 
L 166.106006 94.370212 
L 165.178282 93.878571 
L 163.721737 93.116825 
L 162.643173 92.560318 
L 161.363961 91.909674 
L 160.108755 91.280985 
L 158.93154 90.701193 
L 157.470943 89.994666 
L 156.356129 89.466101 
L 154.658064 88.678409 
L 153.568353 88.185104 
L 151.63724 87.334876 
L 150.529271 86.861862 
L 148.414227 85.98968 
L 147.226303 85.518995 
L 145.071635 84.701033 
L 143.702563 84.207395 
L 141.702274 83.523487 
L 139.85554 82.934049 
L 137.438407 82.227522 
L 135.984746 81.839664 
L 129.281332 80.450892 
L 121.192068 79.785944 
L 117.70021 79.897046 
L 114.388556 80.251308 
L 108.208949 81.625443 
L 102.874997 83.63093 
L 100.944695 84.556002 
L 96.273379 87.245396 
L 91.965334 90.27242 
L 87.718118 93.683311 
L 80.215601 99.879729 
L 77.916594 101.378605 
L 76.403387 102.095111 
L 75.054216 102.474321 
L 73.923851 102.549497 
L 72.903605 102.386171 
L 71.950034 101.999643 
L 71.028256 101.379603 
L 70.086424 100.462847 
L 69.109735 99.173201 
L 68.082019 97.402226 
L 67.073082 95.210128 
L 65.980289 92.283562 
L 64.843845 88.584272 
L 63.613627 83.776294 
L 62.347425 77.911185 
L 60.975972 70.474353 
L 59.490207 61.135485 
L 57.861526 49.411921 
L 56.018835 34.457757 
L 53.659063 13.336447 
L 52.12416 -1 
L 52.12416 -1 
" clip-path="url(#p06802b68cb)" style="fill: none; stroke: #61afef; stroke-width: 1.5; stroke-linecap: square"/>
   </g>
   <g id="line2d_33">
    <path d="M 270.616318 155.94201 
L 283.659749 162.370311 
L 284.570713 162.796922 
L 285.163948 163.073113 
L 286.225671 163.564056 
L 286.750302 163.805087 
L 288.045168 164.395456 
L 288.510156 164.605884 
L 290.245209 165.383597 
L 290.653944 165.565085 
L 293.818029 166.947271 
L 300.624425 169.779468 
L 300.624425 169.779468 
" clip-path="url(#p06802b68cb)" style="fill: none; stroke: #61afef; stroke-width: 1.5; stroke-linecap: square"/>
   </g>
   <g id="line2d_34">
    <path d="M 74.370675 155.891315 
L 72.751415 152.316433 
L 71.148937 148.243589 
L 69.512433 143.455569 
L 67.911864 138.075449 
L 66.264702 131.726682 
L 64.645026 124.591554 
L 62.962391 116.151812 
L 61.211705 106.181594 
L 59.387229 94.458362 
L 57.354889 79.847815 
L 54.933851 60.654487 
L 48.246943 6.486059 
L 47.145819 -1 
L 47.145819 -1 
" clip-path="url(#p06802b68cb)" style="fill: none; stroke: #e5c07b; stroke-width: 1.5; stroke-linecap: square"/>
   </g>
   <g id="line2d_35">
    <path d="M 74.395309 155.992305 
L 76.12128 159.267345 
L 77.872073 162.120664 
L 79.663969 164.623348 
L 81.54152 166.860784 
L 83.480998 168.823094 
L 85.509104 170.557113 
L 87.610086 172.067532 
L 89.915992 173.448054 
L 92.325549 174.635779 
L 94.992329 175.703021 
L 97.813697 176.603078 
L 101.031836 177.398953 
L 104.594852 178.05136 
L 108.77519 178.57427 
L 112.96268 178.888282 
L 117.948932 179.0397 
L 123.478887 178.969446 
L 129.118485 178.668906 
L 135.333017 178.082162 
L 140.126428 177.441298 
L 144.951383 176.61512 
L 149.995837 175.528518 
L 155.05945 174.159338 
L 158.556182 173.00857 
L 162.091371 171.622792 
L 165.116378 170.200956 
L 168.035881 168.536658 
L 170.176663 167.047262 
L 171.92375 165.570507 
L 173.455898 163.960197 
L 174.60239 162.413155 
L 175.460062 160.871069 
L 176.047656 159.365407 
L 176.41556 157.819263 
L 176.563479 156.268562 
L 176.56813 155.614559 
L 176.56813 155.614559 
" clip-path="url(#p06802b68cb)" style="fill: none; stroke: #e5c07b; stroke-width: 1.5; stroke-linecap: square"/>
   </g>
   <g id="line2d_36">
    <path d="M 270.616318 155.941876 
L 270.76676 155.864371 
L 270.982256 155.75327 
L 271.13235 155.675432 
L 271.34747 155.56433 
L 271.497214 155.486492 
L 271.711308 155.375391 
L 271.86083 155.29722 
L 272.074419 155.186118 
L 272.22346 155.107948 
L 272.43616 154.996846 
L 272.584848 154.918676 
L 272.796666 154.807574 
L 272.945002 154.729404 
L 273.155819 154.618302 
L 273.303927 154.539799 
L 273.514246 154.428697 
L 273.662 154.350194 
L 273.87145 154.239092 
L 274.018848 154.160589 
L 274.227315 154.049487 
L 274.37448 153.970652 
L 274.582574 153.85955 
L 274.729381 153.780714 
L 274.936619 153.669613 
L 275.083069 153.590777 
L 275.289338 153.479675 
L 275.43555 153.400507 
L 275.641447 153.289405 
L 275.787299 153.210237 
L 275.992353 153.099135 
L 276.138078 153.019634 
L 276.342642 152.908532 
L 276.488004 152.829031 
L 276.691731 152.71793 
L 276.836731 152.638429 
L 277.039626 152.527327 
L 277.184491 152.447493 
L 277.387012 152.336391 
L 277.531512 152.256558 
L 277.733094 152.145456 
L 277.877229 152.065623 
L 278.078103 151.954521 
L 278.222096 151.874355 
L 278.422486 151.763253 
L 278.566221 151.683087 
L 278.765796 151.571985 
L 278.909163 151.491819 
L 279.107929 151.380717 
L 279.251146 151.300218 
L 279.44954 151.189116 
L 279.592386 151.108617 
L 279.789975 150.997515 
L 279.932559 150.917017 
L 280.12935 150.805915 
L 280.271775 150.725083 
L 280.468194 150.613982 
L 280.610352 150.53315 
L 280.805976 150.422048 
L 280.94797 150.340884 
L 281.143221 150.229782 
L 281.284943 150.148618 
L 281.479404 150.037516 
L 281.620853 149.956352 
L 281.814428 149.845251 
L 281.955706 149.763754 
L 282.149112 149.652652 
L 282.290112 149.571155 
L 282.482637 149.460053 
L 282.62336 149.378557 
L 282.815112 149.267455 
L 282.955656 149.185625 
L 283.147135 149.074524 
L 283.287398 148.992694 
L 283.478205 148.881592 
L 283.618186 148.799763 
L 283.808129 148.688661 
L 283.948023 148.606499 
L 284.137691 148.495397 
L 284.277297 148.413235 
L 284.466205 148.302134 
L 284.605716 148.219639 
L 284.794249 148.108537 
L 284.93347 148.026042 
L 285.121342 147.914941 
L 285.260273 147.832446 
L 285.447486 147.721344 
L 285.586313 147.638517 
L 285.773152 147.527415 
L 285.911777 147.444588 
L 286.097775 147.333486 
L 286.236105 147.250659 
L 286.421545 147.139557 
L 286.559762 147.056397 
L 286.744827 146.945295 
L 286.882836 146.862135 
L 287.067163 146.751033 
L 287.204962 146.667541 
L 287.389094 146.556439 
L 287.52668 146.472946 
L 287.710165 146.361844 
L 287.847537 146.278352 
L 288.030202 146.16725 
L 288.167447 146.083425 
L 288.349912 145.972323 
L 288.486938 145.888498 
L 288.668675 145.777396 
L 288.805567 145.693238 
L 288.987014 145.582136 
L 289.123682 145.497978 
L 289.304492 145.386877 
L 289.440934 145.302719 
L 289.621024 145.191617 
L 289.75741 145.107126 
L 289.937208 144.996025 
L 290.073364 144.911534 
L 290.25253 144.800432 
L 290.388538 144.715609 
L 290.567493 144.604507 
L 290.703349 144.519684 
L 290.881509 144.408582 
L 291.017128 144.323759 
L 291.194662 144.212657 
L 291.330127 144.127502 
L 291.507528 144.0164 
L 291.642834 143.931244 
L 291.819448 143.820142 
L 291.954512 143.734986 
L 292.130587 143.623885 
L 292.265569 143.538396 
L 292.441346 143.427294 
L 292.576161 143.341806 
L 292.75124 143.230704 
L 292.885886 143.144883 
L 293.060824 143.033781 
L 293.195299 142.94796 
L 293.369541 142.836858 
L 293.50392 142.750705 
L 293.677938 142.639603 
L 293.81214 142.553449 
L 293.985543 142.442347 
L 294.119565 142.356194 
L 294.29228 142.245092 
L 294.426199 142.158605 
L 294.598763 142.047504 
L 294.732497 141.961017 
L 294.904375 141.849915 
L 295.037999 141.763096 
L 295.209646 141.651995 
L 295.34308 141.565176 
L 295.514196 141.454074 
L 295.647439 141.367255 
L 295.817876 141.256153 
L 295.951074 141.169001 
L 296.121277 141.0579 
L 296.254279 140.970748 
L 296.42388 140.859646 
L 296.556757 140.772162 
L 296.726194 140.66106 
L 296.858942 140.573576 
L 297.027707 140.462474 
L 297.160253 140.37499 
L 297.328492 140.263888 
L 297.460976 140.176071 
L 297.628976 140.064969 
L 297.761252 139.977152 
L 297.928657 139.866051 
L 298.060865 139.777901 
L 298.228097 139.666799 
L 298.360163 139.57865 
L 298.526732 139.467548 
L 298.658723 139.379066 
L 298.825115 139.267964 
L 298.956889 139.179482 
L 299.122758 139.06838 
L 299.254382 138.979898 
L 299.419595 138.868796 
L 299.551135 138.779981 
L 299.716235 138.668879 
L 299.847621 138.580064 
L 300.012066 138.468963 
L 300.143362 138.379815 
L 300.30769 138.268713 
L 300.438825 138.179566 
L 300.602568 138.068464 
L 300.624425 138.053495 
L 300.624425 138.053495 
" clip-path="url(#p06802b68cb)" style="fill: none; stroke: #98c379; stroke-width: 1.5; stroke-linecap: square"/>
   </g>
   <g id="line2d_37">
    <path d="M 270.616053 155.94201 
L 261.076639 160.609947 
L 258.930513 161.594661 
L 257.902071 162.058128 
L 256.183926 162.82024 
L 254.968432 163.350268 
L 253.48141 163.988405 
L 252.025599 164.602292 
L 250.691105 165.155539 
L 248.904575 165.882158 
L 246.844825 166.70002 
L 244.38948 167.647312 
L 241.3109 168.79299 
L 240.235482 169.182212 
L 235.581923 170.801936 
L 228.233838 173.149876 
L 215.566807 176.620542 
L 211.194732 177.65788 
L 207.75539 178.419093 
L 204.110221 179.174951 
L 199.478505 180.062734 
L 194.031823 181.007731 
L 187.677764 181.98353 
L 180.434774 182.942664 
L 172.476607 183.826555 
L 164.140483 184.582846 
L 155.85254 185.183161 
L 148.018116 185.627435 
L 133.046337 186.180802 
L 121.847166 186.35109 
L 111.602254 186.297981 
L 102.983289 186.044047 
L 95.720136 185.613897 
L 89.647759 185.046346 
L 82.877056 184.180318 
L 76.63786 183.431046 
L 74.023324 183.341467 
L 71.858734 183.486331 
L 69.909233 183.841557 
L 67.939317 184.43532 
L 65.695199 185.3566 
L 59.594326 187.998453 
L 57.517397 188.557568 
L 55.316658 188.913712 
L 52.572051 189.119519 
L 48.041918 189.202766 
L 46.988061 189.205883 
L 46.988061 189.205883 
" clip-path="url(#p06802b68cb)" style="fill: none; stroke: #98c379; stroke-width: 1.5; stroke-linecap: square"/>
   </g>
   <g id="line2d_38">
    <path d="M 74.395309 155.891315 
L 77.655629 149.535563 
L 80.463337 144.614154 
L 83.180482 140.350707 
L 86.067501 136.34173 
L 88.383535 133.492668 
L 90.953124 130.688846 
L 93.275332 128.456831 
L 95.449019 126.609016 
L 98.135107 124.626149 
L 100.218943 123.300579 
L 101.914605 122.350226 
L 105.033951 120.883284 
L 107.095659 120.100249 
L 109.825349 119.275635 
L 113.17436 118.56944 
L 117.468996 118.113058 
L 119.735292 118.058837 
L 122.731434 118.169939 
L 126.601125 118.600708 
L 131.871232 119.664491 
L 139.869382 122.225486 
L 141.205448 122.757045 
L 143.643158 123.800204 
L 145.338178 124.581243 
L 147.047568 125.414838 
L 149.165317 126.512218 
L 150.516752 127.250013 
L 153.364371 128.904565 
L 154.46885 129.583483 
L 162.402111 135.167843 
L 166.574382 138.754368 
L 168.620911 140.763513 
L 170.309866 142.602015 
L 171.119054 143.559685 
L 173.188985 146.349204 
L 174.779651 149.083172 
L 175.514893 150.736726 
L 176.093522 152.490736 
L 176.444718 154.20483 
L 176.566967 155.786201 
L 176.56813 156.269527 
L 176.56813 156.269527 
" clip-path="url(#p06802b68cb)" style="fill: none; stroke: #e5c07b; stroke-width: 1.5; stroke-linecap: square"/>
   </g>
   <g id="line2d_39">
    <path d="M 74.370675 155.992404 
L 71.148937 162.855001 
L 64.195407 177.853871 
L 62.332459 181.223248 
L 60.792257 183.567329 
L 59.422046 185.262762 
L 58.132722 186.513388 
L 56.877701 187.429003 
L 55.56619 188.110107 
L 54.135129 188.59786 
L 52.451205 188.929587 
L 50.206757 189.129897 
L 46.989916 189.205888 
L 46.989916 189.205888 
" clip-path="url(#p06802b68cb)" style="fill: none; stroke: #e5c07b; stroke-width: 1.5; stroke-linecap: square"/>
   </g>
   <g id="patch_4">
    <path d="M 34.306243 189.205876 
L 34.306243 22.885876 
" style="fill: none; stroke: #ffffff; stroke-width: 0.8; stroke-linejoin: miter; stroke-linecap: square"/>
   </g>
   <g id="patch_5">
    <path d="M 34.306243 189.205876 
L 313.306243 189.205876 
" style="fill: none; stroke: #ffffff; stroke-width: 0.8; stroke-linejoin: miter; stroke-linecap: square"/>
   </g>
   <g id="text_11">
    <!-- $r_{\rm in}$ -->
    <g style="fill: #ffffff" transform="translate(79.980403 155.941876) scale(0.12 -0.12)">
     <defs>
      <path id="CMR17-69" d="M 992 3961 
C 992 4102 877 4224 730 4224 
C 589 4224 467 4108 467 3961 
C 467 3820 582 3699 730 3699 
C 870 3699 992 3814 992 3961 
z
M 243 2745 
L 243 2579 
C 602 2579 653 2540 653 2231 
L 653 443 
C 653 198 627 166 218 166 
L 218 0 
C 371 12 646 12 806 12 
C 960 12 1222 12 1370 0 
L 1370 166 
C 992 166 979 205 979 436 
L 979 2816 
L 243 2745 
z
" transform="scale(0.015625)"/>
      <path id="CMR17-6e" d="M 2656 1954 
C 2656 2282 2592 2816 1837 2816 
C 1331 2816 1069 2424 973 2166 
L 966 2166 
L 966 2816 
L 211 2745 
L 211 2578 
C 589 2578 646 2540 646 2231 
L 646 443 
C 646 198 621 166 211 166 
L 211 0 
C 365 12 646 12 813 12 
C 979 12 1267 12 1421 0 
L 1421 166 
C 1011 166 986 192 986 443 
L 986 1678 
C 986 2269 1344 2713 1792 2713 
C 2266 2713 2317 2289 2317 1980 
L 2317 443 
C 2317 198 2291 166 1882 166 
L 1882 0 
C 2035 12 2317 12 2483 12 
C 2650 12 2938 12 3091 0 
L 3091 166 
C 2682 166 2656 192 2656 443 
L 2656 1954 
z
" transform="scale(0.015625)"/>
     </defs>
     <use xlink:href="#CMMI12-72" transform="scale(0.996264)"/>
     <use xlink:href="#CMR17-69" transform="translate(43.960894 -14.943915) scale(0.697382)"/>
     <use xlink:href="#CMR17-6e" transform="translate(61.370553 -14.943915) scale(0.697382)"/>
    </g>
   </g>
   <g id="text_12">
    <!-- $r_{\rm mid}$ -->
    <g style="fill: #ffffff" transform="translate(127.542442 155.941876) scale(0.12 -0.12)">
     <defs>
      <path id="CMR17-6d" d="M 4326 1954 
C 4326 2276 4269 2816 3507 2816 
C 3072 2816 2771 2520 2656 2173 
L 2650 2173 
C 2573 2700 2195 2816 1837 2816 
C 1331 2816 1069 2424 973 2166 
L 966 2166 
L 966 2816 
L 211 2745 
L 211 2578 
C 589 2578 646 2540 646 2231 
L 646 443 
C 646 198 621 166 211 166 
L 211 0 
C 365 12 646 12 813 12 
C 979 12 1267 12 1421 0 
L 1421 166 
C 1011 166 986 192 986 443 
L 986 1678 
C 986 2269 1344 2713 1792 2713 
C 2266 2713 2317 2289 2317 1980 
L 2317 443 
C 2317 198 2291 166 1882 166 
L 1882 0 
C 2035 12 2317 12 2483 12 
C 2650 12 2938 12 3091 0 
L 3091 166 
C 2682 166 2656 192 2656 443 
L 2656 1678 
C 2656 2269 3014 2713 3462 2713 
C 3936 2713 3987 2289 3987 1980 
L 3987 443 
C 3987 198 3962 166 3552 166 
L 3552 0 
C 3706 12 3987 12 4154 12 
C 4320 12 4608 12 4762 0 
L 4762 166 
C 4352 166 4326 192 4326 443 
L 4326 1954 
z
" transform="scale(0.015625)"/>
      <path id="CMR17-64" d="M 1869 4345 
L 1869 4179 
C 2246 4179 2304 4141 2304 3843 
L 2304 2371 
C 2278 2403 2016 2816 1498 2816 
C 845 2816 211 2228 211 1376 
C 211 529 806 -64 1434 -64 
C 1978 -64 2259 361 2291 406 
L 2291 -64 
L 3066 -13 
L 3066 154 
C 2688 154 2630 193 2630 503 
L 2630 4416 
L 1869 4345 
z
M 2291 762 
C 2291 568 2176 393 2029 264 
C 1811 70 1594 38 1472 38 
C 1286 38 621 135 621 1369 
C 621 2636 1363 2713 1530 2713 
C 1824 2713 2061 2545 2208 2313 
C 2291 2177 2291 2157 2291 2041 
L 2291 762 
z
" transform="scale(0.015625)"/>
     </defs>
     <use xlink:href="#CMMI12-72" transform="scale(0.996264)"/>
     <use xlink:href="#CMR17-6d" transform="translate(43.960894 -14.943915) scale(0.697382)"/>
     <use xlink:href="#CMR17-69" transform="translate(97.804361 -14.943915) scale(0.697382)"/>
     <use xlink:href="#CMR17-64" transform="translate(115.21402 -14.943915) scale(0.697382)"/>
    </g>
   </g>
   <g id="text_13">
    <!-- $r_{\rm out}$ -->
    <g style="fill: #ffffff" transform="translate(289.011785 155.941876) scale(0.12 -0.12)">
     <defs>
      <path id="CMR17-6f" d="M 2758 1356 
C 2758 2176 2163 2816 1466 2816 
C 768 2816 173 2176 173 1356 
C 173 550 768 -64 1466 -64 
C 2163 -64 2758 550 2758 1356 
z
M 1466 51 
C 1165 51 909 230 762 480 
C 602 768 582 1126 582 1408 
C 582 1676 595 2009 762 2297 
C 890 2508 1139 2713 1466 2713 
C 1754 2713 1997 2553 2150 2329 
C 2349 2028 2349 1606 2349 1408 
C 2349 1158 2336 774 2163 467 
C 1984 172 1709 51 1466 51 
z
" transform="scale(0.015625)"/>
      <path id="CMR17-75" d="M 1882 2745 
L 1882 2579 
C 2259 2579 2317 2540 2317 2229 
L 2317 1053 
C 2317 510 2029 38 1555 38 
C 1030 38 986 355 986 691 
L 986 2816 
L 211 2745 
L 211 2579 
C 467 2579 640 2579 646 2320 
L 646 1079 
C 646 646 646 368 813 187 
C 896 103 1056 -64 1517 -64 
C 2061 -64 2272 400 2323 536 
L 2330 536 
L 2330 -64 
L 3091 -13 
L 3091 154 
C 2714 154 2656 193 2656 503 
L 2656 2816 
L 1882 2745 
z
" transform="scale(0.015625)"/>
      <path id="CMR17-74" d="M 966 2585 
L 1862 2585 
L 1862 2752 
L 966 2752 
L 966 3968 
L 851 3968 
C 838 3292 614 2700 70 2687 
L 70 2585 
L 627 2585 
L 627 778 
C 627 655 627 -64 1370 -64 
C 1747 -64 1965 308 1965 784 
L 1965 1151 
L 1850 1151 
L 1850 790 
C 1850 347 1677 51 1408 51 
C 1222 51 966 179 966 765 
L 966 2585 
z
" transform="scale(0.015625)"/>
     </defs>
     <use xlink:href="#CMMI12-72" transform="scale(0.996264)"/>
     <use xlink:href="#CMR17-6f" transform="translate(43.960894 -14.943915) scale(0.697382)"/>
     <use xlink:href="#CMR17-75" transform="translate(75.944076 -14.943915) scale(0.697382)"/>
     <use xlink:href="#CMR17-74" transform="translate(111.570685 -14.943915) scale(0.697382)"/>
    </g>
   </g>
   <g id="text_14">
    <!-- $+$ -->
    <g style="fill: #ffffff" transform="translate(118.927482 155.941876) scale(0.12 -0.12)">
     <defs>
      <path id="CMR17-2b" d="M 2413 1472 
L 4109 1472 
C 4198 1472 4307 1472 4307 1580 
C 4307 1696 4205 1696 4109 1696 
L 2413 1696 
L 2413 3385 
C 2413 3475 2413 3584 2304 3584 
C 2189 3584 2189 3481 2189 3385 
L 2189 1696 
L 493 1696 
C 403 1696 294 1696 294 1587 
C 294 1472 397 1472 493 1472 
L 2189 1472 
L 2189 -194 
C 2189 -282 2189 -391 2298 -391 
C 2413 -391 2413 -289 2413 -194 
L 2413 1472 
z
" transform="scale(0.015625)"/>
     </defs>
     <use xlink:href="#CMR17-2b" transform="scale(0.996264)"/>
    </g>
   </g>
   <g id="text_15">
    <!-- $\xi_0 = 1.002,\gamma = 1.35,\lambda_0 = 3.05, a = 0.5$ -->
    <g style="fill: #808080" transform="translate(59.342393 16.885876) scale(0.14 -0.14)">
     <defs>
      <path id="CMMI12-18" d="M 1670 0 
L 998 271 
C 832 335 448 490 448 876 
C 448 1430 1120 1990 1254 1990 
C 1267 1990 1325 1977 1344 1971 
C 1517 1919 1683 1919 1798 1919 
C 1997 1919 2374 1919 2374 2089 
C 2374 2220 2144 2240 1869 2240 
C 1741 2240 1568 2240 1338 2163 
C 1184 2291 1120 2497 1120 2690 
C 1120 3043 1350 3545 1856 3780 
C 1971 3648 2125 3648 2259 3648 
C 2419 3648 2810 3648 2810 3817 
C 2810 3968 2502 3968 2298 3968 
C 2170 3968 2074 3968 1894 3936 
C 1862 4016 1856 4029 1856 4180 
C 1856 4303 1882 4396 1882 4415 
C 1882 4454 1850 4480 1818 4480 
C 1715 4480 1715 4235 1715 4180 
C 1715 4084 1722 3988 1760 3904 
C 992 3705 653 3159 653 2741 
C 653 2355 909 2144 1082 2066 
C 422 1713 141 1057 141 709 
C 141 148 646 -51 877 -148 
L 1453 -380 
C 1613 -438 1875 -547 1920 -573 
C 1984 -618 2035 -695 2035 -798 
C 2035 -934 1933 -1152 1709 -1152 
C 1613 -1152 1402 -1127 1171 -953 
C 1126 -914 1120 -908 1094 -908 
C 1062 -908 1030 -934 1030 -972 
C 1030 -1043 1363 -1280 1709 -1280 
C 2118 -1280 2368 -882 2368 -605 
C 2368 -405 2259 -244 2054 -154 
L 1670 0 
z
M 1997 3817 
C 2106 3840 2221 3840 2304 3840 
C 2515 3840 2534 3835 2662 3812 
C 2586 3789 2534 3776 2266 3776 
C 2144 3776 2067 3776 1997 3817 
z
M 1491 2084 
C 1645 2112 1786 2112 1862 2112 
C 2074 2112 2086 2107 2227 2084 
C 2157 2061 2099 2048 1824 2048 
C 1670 2048 1606 2048 1491 2084 
z
" transform="scale(0.015625)"/>
      <path id="CMR17-3d" d="M 4115 2048 
C 4211 2048 4307 2048 4307 2156 
C 4307 2272 4198 2272 4090 2272 
L 512 2272 
C 403 2272 294 2272 294 2156 
C 294 2048 390 2048 486 2048 
L 4115 2048 
z
M 4090 927 
C 4198 927 4307 927 4307 1043 
C 4307 1152 4211 1152 4115 1152 
L 486 1152 
C 390 1152 294 1152 294 1043 
C 294 927 403 927 512 927 
L 4090 927 
z
" transform="scale(0.015625)"/>
      <path id="CMMI12-3a" d="M 1178 307 
C 1178 492 1024 620 870 620 
C 685 620 557 467 557 313 
C 557 128 710 0 864 0 
C 1050 0 1178 153 1178 307 
z
" transform="scale(0.015625)"/>
      <path id="CMMI12-3b" d="M 1248 -26 
C 1248 345 1126 620 864 620 
C 659 620 557 454 557 313 
C 557 172 653 0 870 0 
C 954 0 1024 25 1082 83 
C 1094 96 1101 96 1107 96 
C 1120 96 1120 6 1120 -26 
C 1120 -233 1082 -642 710 -1051 
C 640 -1127 640 -1140 640 -1152 
C 640 -1184 672 -1216 704 -1216 
C 755 -1216 1248 -749 1248 -26 
z
" transform="scale(0.015625)"/>
      <path id="CMMI12-d" d="M 2419 785 
C 2406 1097 2394 1586 2150 2158 
C 2022 2476 1805 2816 1338 2816 
C 550 2816 122 1815 122 1649 
C 122 1592 166 1592 186 1592 
C 243 1592 243 1605 275 1688 
C 410 2081 819 2393 1261 2393 
C 2150 2393 2278 1408 2278 779 
C 2278 378 2234 245 2195 118 
C 2074 -276 1862 -1064 1862 -1242 
C 1862 -1293 1882 -1351 1933 -1351 
C 2029 -1351 2086 -1140 2157 -886 
C 2310 -327 2349 -47 2381 207 
C 2400 360 2765 1409 3270 2407 
C 3315 2509 3405 2681 3405 2700 
C 3405 2707 3398 2752 3341 2752 
C 3328 2752 3296 2752 3283 2726 
C 3270 2713 3046 2280 2854 1848 
C 2758 1630 2630 1344 2419 785 
z
" transform="scale(0.015625)"/>
      <path id="CMMI12-15" d="M 1978 3963 
C 1818 4416 1312 4416 1229 4416 
C 1190 4416 1120 4416 1120 4351 
C 1120 4300 1158 4294 1190 4287 
C 1286 4275 1363 4262 1466 4078 
C 1530 3957 2189 2055 2189 2042 
C 2189 2036 2182 2029 2131 1978 
L 467 305 
C 390 229 339 178 339 95 
C 339 6 416 -71 518 -71 
C 544 -71 614 -58 653 -20 
C 755 76 1670 1190 2253 1877 
C 2419 1380 2624 795 2822 261 
C 2854 165 2886 76 2976 -7 
C 3040 -64 3053 -64 3232 -64 
L 3354 -64 
C 3379 -64 3424 -64 3424 -13 
C 3424 12 3418 19 3392 44 
C 3334 114 3290 229 3264 305 
L 1978 3963 
z
" transform="scale(0.015625)"/>
      <path id="CMMI12-61" d="M 1926 759 
C 1894 651 1894 638 1805 517 
C 1664 338 1382 64 1082 64 
C 819 64 672 300 672 676 
C 672 1028 870 1743 992 2011 
C 1210 2458 1510 2687 1760 2687 
C 2182 2687 2266 2164 2266 2113 
C 2266 2107 2246 2024 2240 2011 
L 1926 759 
z
M 2336 2394 
C 2266 2560 2093 2816 1760 2816 
C 1037 2816 256 1883 256 938 
C 256 306 627 -64 1062 -64 
C 1414 -64 1715 210 1894 421 
C 1958 44 2259 -64 2451 -64 
C 2643 -64 2797 51 2912 280 
C 3014 496 3104 885 3104 910 
C 3104 942 3078 968 3040 968 
C 2982 968 2976 936 2950 840 
C 2854 465 2733 64 2470 64 
C 2285 64 2272 229 2272 356 
C 2272 503 2291 573 2349 821 
C 2394 980 2426 1120 2477 1305 
C 2714 2260 2771 2489 2771 2528 
C 2771 2617 2701 2688 2605 2688 
C 2400 2688 2349 2464 2336 2388 
L 2336 2394 
z
" transform="scale(0.015625)"/>
     </defs>
     <use xlink:href="#CMMI12-18" transform="scale(0.996264)"/>
     <use xlink:href="#CMR17-30" transform="translate(42.606035 -14.943915) scale(0.697382)"/>
     <use xlink:href="#CMR17-3d" transform="translate(102.761358 0) scale(0.996264)"/>
     <use xlink:href="#CMR17-31" transform="translate(202.150155 0) scale(0.996264)"/>
     <use xlink:href="#CMMI12-3a" transform="translate(247.840632 0) scale(0.996264)"/>
     <use xlink:href="#CMR17-30" transform="translate(274.93781 0) scale(0.996264)"/>
     <use xlink:href="#CMR17-30" transform="translate(320.628287 0) scale(0.996264)"/>
     <use xlink:href="#CMR17-32" transform="translate(366.318764 0) scale(0.996264)"/>
     <use xlink:href="#CMMI12-3b" transform="translate(412.009241 0) scale(0.996264)"/>
     <use xlink:href="#CMMI12-d" transform="translate(455.710823 0) scale(0.996264)"/>
     <use xlink:href="#CMR17-3d" transform="translate(539.4034 0) scale(0.996264)"/>
     <use xlink:href="#CMR17-31" transform="translate(638.792197 0) scale(0.996264)"/>
     <use xlink:href="#CMMI12-3a" transform="translate(684.482674 0) scale(0.996264)"/>
     <use xlink:href="#CMR17-33" transform="translate(711.579851 0) scale(0.996264)"/>
     <use xlink:href="#CMR17-35" transform="translate(757.270328 0) scale(0.996264)"/>
     <use xlink:href="#CMMI12-3b" transform="translate(802.960806 0) scale(0.996264)"/>
     <use xlink:href="#CMMI12-15" transform="translate(846.662388 0) scale(0.996264)"/>
     <use xlink:href="#CMR17-30" transform="translate(903.56646 -14.943915) scale(0.697382)"/>
     <use xlink:href="#CMR17-3d" transform="translate(963.721782 0) scale(0.996264)"/>
     <use xlink:href="#CMR17-33" transform="translate(1063.11058 0) scale(0.996264)"/>
     <use xlink:href="#CMMI12-3a" transform="translate(1108.801057 0) scale(0.996264)"/>
     <use xlink:href="#CMR17-30" transform="translate(1135.898234 0) scale(0.996264)"/>
     <use xlink:href="#CMR17-35" transform="translate(1181.588711 0) scale(0.996264)"/>
     <use xlink:href="#CMMI12-3b" transform="translate(1227.279188 0) scale(0.996264)"/>
     <use xlink:href="#CMMI12-61" transform="translate(1270.98077 0) scale(0.996264)"/>
     <use xlink:href="#CMR17-3d" transform="translate(1349.862637 0) scale(0.996264)"/>
     <use xlink:href="#CMR17-30" transform="translate(1449.251434 0) scale(0.996264)"/>
     <use xlink:href="#CMMI12-3a" transform="translate(1494.941911 0) scale(0.996264)"/>
     <use xlink:href="#CMR17-35" transform="translate(1522.039088 0) scale(0.996264)"/>
    </g>
   </g>
  </g>
 </g>
 <defs>
  <clipPath id="p06802b68cb">
   <rect x="34.306243" y="22.885876" width="279" height="166.32"/>
  </clipPath>
 </defs>
</svg>
